# This file uses centimeters as units for non-parametric coordinates.

mtllib Batente_sem_porta.mtl
g default
v 0.130309 -2.982342 1.280837
v 0.130309 -2.982342 -1.134810
v 0.130309 1.583831 1.280837
v 0.130309 1.583831 -1.134810
v -0.130309 1.583831 1.280837
v -0.130309 1.583831 -1.134810
v -0.130309 -2.982342 1.280837
v -0.130309 -2.982342 -1.134810
v 0.130309 1.805321 1.524127
v 0.130309 1.805321 -1.378100
v -0.130309 1.805321 -1.378100
v -0.130309 1.805321 1.524127
v -0.130309 -2.982342 -1.378100
v 0.130309 -2.982342 -1.378100
v -0.130309 -2.982342 1.524127
v 0.130309 -2.982342 1.524127
v 0.178469 1.583831 1.280837
v 0.178469 1.583831 -1.134810
v 0.178469 1.805321 -1.378100
v 0.178469 1.805321 1.524127
v 0.178469 -2.982342 -1.134810
v 0.178469 -2.982342 -1.378100
v 0.178469 -2.982342 1.280837
v 0.178469 -2.982342 1.524127
v -0.178469 1.583831 1.280837
v -0.178469 1.583831 -1.134810
v -0.178469 1.808602 1.524127
v -0.178469 1.808602 -1.378100
v -0.178469 -2.982342 -1.134810
v -0.178469 -2.982342 -1.378100
v -0.178469 -2.982342 1.280837
v -0.178469 -2.982342 1.524127
v -0.089480 1.738859 1.522905
v 0.109003 1.738859 1.522905
v -0.089480 2.984810 1.522905
v 0.109003 2.984810 1.522905
v -0.089480 2.984810 -1.389855
v 0.109003 2.984810 -1.389855
v -0.089480 1.738859 -1.389855
v 0.109003 1.738859 -1.389855
v -0.089480 1.738859 1.792245
v 0.109003 1.738859 1.792245
v 0.109003 2.984810 1.792245
v -0.089480 2.984810 1.792245
v -0.089480 2.984810 -1.792245
v 0.109003 2.984810 -1.792245
v 0.109003 1.738859 -1.792245
v -0.089480 1.738859 -1.792245
v -0.089480 -2.584679 1.522905
v 0.109003 -2.584679 1.522905
v 0.109003 -2.584679 1.792245
v -0.089480 -2.584679 1.792245
v -0.089480 -2.584679 -1.389855
v 0.109003 -2.584679 -1.389855
v -0.089480 -2.584679 -1.792245
v 0.109003 -2.584679 -1.792245
v -0.089480 -2.984811 1.522905
v 0.109003 -2.984811 1.522905
v 0.109003 -2.984811 1.792245
v -0.089480 -2.984811 1.792245
v -0.089480 -2.984811 -1.389855
v 0.109003 -2.984811 -1.389855
v -0.089480 -2.984811 -1.792245
v 0.109003 -2.984811 -1.792245
v 0.125623 -2.584679 1.522905
v 0.125623 -2.584679 1.792245
v 0.125623 -2.984811 1.792245
v 0.125623 -2.984811 1.522905
v -0.106099 -2.584679 1.522905
v -0.106099 -2.584679 1.792245
v -0.106099 -2.984811 1.522905
v -0.106099 -2.984811 1.792245
v -0.106099 -2.584679 -1.389855
v -0.106099 -2.584679 -1.792245
v -0.106099 -2.984811 -1.792245
v -0.106099 -2.984811 -1.389855
v 0.125623 -2.584679 -1.389855
v 0.125623 -2.584679 -1.792245
v 0.125623 -2.984811 -1.389855
v 0.125623 -2.984811 -1.792245
vt 0.069712 0.860898
vt 0.087942 0.778821
vt 0.100698 0.782203
vt 0.082293 0.863748
vt 0.971488 0.002536
vt 0.983022 0.002535
vt 0.983022 0.130095
vt 0.971488 0.130095
vt 0.981259 0.464162
vt 0.992793 0.464162
vt 0.992793 0.591721
vt 0.981259 0.591721
vt 0.733230 0.748251
vt 0.794849 0.748251
vt 0.801055 0.753901
vt 0.727024 0.753901
vt 0.733238 0.748194
vt 0.794842 0.748194
vt 0.801046 0.753926
vt 0.727034 0.753926
vt 0.449519 0.967405
vt 0.449517 0.955885
vt 0.455727 0.955885
vt 0.455725 0.967405
vt 0.733238 0.626622
vt 0.727034 0.626316
vt 0.794849 0.626647
vt 0.801055 0.626342
vt 0.455725 0.955884
vt 0.455726 0.967403
vt 0.449518 0.967407
vt 0.449519 0.955884
vt 0.733230 0.626647
vt 0.727024 0.626342
vt 0.794842 0.626622
vt 0.801046 0.626316
vt 0.951993 0.857680
vt 0.951993 0.786178
vt 0.954467 0.786177
vt 0.954467 0.857680
vt 0.060620 0.860898
vt 0.085563 0.778152
vt 0.414564 0.439637
vt 0.414559 0.298629
vt 0.417030 0.298629
vt 0.417036 0.439637
vt 0.455725 0.969535
vt 0.449519 0.969535
vt 0.969356 0.130095
vt 0.969356 0.002536
vt 0.414564 0.439637
vt 0.414559 0.298629
vt 0.417030 0.298629
vt 0.417036 0.439637
vt 0.994925 0.464162
vt 0.994925 0.591721
vt 0.455724 0.969534
vt 0.449519 0.969532
vt 0.938608 0.786177
vt 0.938608 0.857680
vt 0.936135 0.857680
vt 0.936135 0.786177
vt 0.103043 0.782783
vt 0.084631 0.864279
vt 0.401183 0.298629
vt 0.401178 0.439637
vt 0.398706 0.439637
vt 0.398712 0.298629
vt 0.985154 0.002536
vt 0.985154 0.130178
vt 0.449520 0.953755
vt 0.455724 0.953755
vt 0.401183 0.298629
vt 0.401178 0.439637
vt 0.398706 0.439637
vt 0.398712 0.298629
vt 0.449519 0.953755
vt 0.455725 0.953755
vt 0.979127 0.591805
vt 0.979127 0.464163
vt 0.375000 0.000000
vt 0.625000 0.000000
vt 0.625000 0.250000
vt 0.375000 0.250000
vt 0.375000 0.250000
vt 0.625000 0.250000
vt 0.625000 0.500000
vt 0.375000 0.500000
vt 0.375000 0.500000
vt 0.625000 0.500000
vt 0.625000 0.750000
vt 0.375000 0.750000
vt 0.375000 0.750000
vt 0.625000 0.750000
vt 0.625000 1.000000
vt 0.375000 1.000000
vt 0.625000 0.000000
vt 0.875000 0.000000
vt 0.875000 0.250000
vt 0.125000 0.000000
vt 0.375000 0.000000
vt 0.125000 0.250000
vt 0.375000 0.000000
vt 0.625000 0.000000
vt 0.625000 0.000000
vt 0.375000 0.000000
vt 0.625000 0.750000
vt 0.375000 0.750000
vt 0.375000 0.750000
vt 0.625000 0.750000
vt 0.625000 0.000000
vt 0.375000 0.000000
vt 0.625000 0.000000
vt 0.375000 0.000000
vt 0.375000 0.750000
vt 0.625000 0.750000
vt 0.375000 0.750000
vt 0.625000 0.750000
vt 0.625000 0.000000
vt 0.625000 0.000000
vt 0.625000 0.000000
vt 0.625000 0.000000
vt 0.375000 0.000000
vt 0.375000 0.000000
vt 0.375000 0.000000
vt 0.375000 0.000000
vt 0.375000 0.750000
vt 0.375000 0.750000
vt 0.375000 0.750000
vt 0.375000 0.750000
vt 0.625000 0.750000
vt 0.625000 0.750000
vt 0.625000 0.750000
vt 0.625000 0.750000
vn 0.000000 1.000000 0.000000
vn 0.000000 1.000000 0.000000
vn 0.000000 1.000000 0.000000
vn 0.000000 1.000000 0.000000
vn 0.000000 0.000000 -1.000000
vn 0.000000 0.000000 -1.000000
vn 0.000000 0.000000 -1.000000
vn 0.000000 0.000000 -1.000000
vn -0.000000 0.000000 1.000000
vn -0.000000 0.000000 1.000000
vn -0.000000 0.000000 1.000000
vn -0.000000 0.000000 1.000000
vn 1.000000 0.000000 0.000000
vn 1.000000 0.000000 0.000000
vn 1.000000 0.000000 0.000000
vn 1.000000 0.000000 0.000000
vn -1.000000 0.000000 -0.000000
vn -1.000000 0.000000 -0.000000
vn -1.000000 0.000000 -0.000000
vn -1.000000 0.000000 -0.000000
vn -0.000000 -0.998791 0.049162
vn -0.000000 -0.998791 0.049162
vn -0.000000 -0.998791 0.049162
vn -0.000000 -0.998791 0.049162
vn -1.000000 0.000000 -0.000000
vn -1.000000 0.000000 -0.000000
vn -1.000000 0.000000 -0.000000
vn -1.000000 0.000000 -0.000000
vn 1.000000 0.000000 0.000000
vn 1.000000 0.000000 0.000000
vn 1.000000 0.000000 0.000000
vn 1.000000 0.000000 0.000000
vn 0.000000 -0.998791 -0.049162
vn 0.000000 -0.998791 -0.049162
vn 0.000000 -0.998791 -0.049162
vn 0.000000 -0.998791 -0.049162
vn 1.000000 0.000000 0.000000
vn 1.000000 0.000000 0.000000
vn 1.000000 0.000000 0.000000
vn 1.000000 0.000000 0.000000
vn -1.000000 0.000000 -0.000000
vn -1.000000 0.000000 -0.000000
vn -1.000000 0.000000 -0.000000
vn -1.000000 0.000000 -0.000000
vn 0.000000 -1.000000 0.000000
vn 0.000000 -1.000000 0.000000
vn 0.000000 -1.000000 0.000000
vn 0.000000 -1.000000 0.000000
vn 0.000000 1.000000 0.000000
vn 0.000000 1.000000 0.000000
vn 0.000000 1.000000 0.000000
vn 0.000000 1.000000 0.000000
vn -0.000000 0.000000 1.000000
vn -0.000000 0.000000 1.000000
vn -0.000000 0.000000 1.000000
vn -0.000000 0.000000 1.000000
vn -0.000000 -0.998791 0.049162
vn -0.000000 -0.998791 0.049162
vn -0.000000 -0.998791 0.049162
vn -0.000000 -0.998791 0.049162
vn 0.000000 0.000000 -1.000000
vn 0.000000 0.000000 -1.000000
vn 0.000000 0.000000 -1.000000
vn 0.000000 0.000000 -1.000000
vn 0.000000 0.000000 -1.000000
vn 0.000000 0.000000 -1.000000
vn 0.000000 0.000000 -1.000000
vn 0.000000 0.000000 -1.000000
vn -0.000000 0.000000 1.000000
vn -0.000000 0.000000 1.000000
vn -0.000000 0.000000 1.000000
vn -0.000000 0.000000 1.000000
vn 0.000000 -0.998791 -0.049162
vn 0.000000 -0.998791 -0.049162
vn 0.000000 -0.998791 -0.049162
vn 0.000000 -0.998791 -0.049162
vn 0.000000 -1.000000 0.000000
vn 0.000000 -1.000000 0.000000
vn 0.000000 -1.000000 0.000000
vn 0.000000 -1.000000 0.000000
vn 0.067961 0.997688 0.000000
vn 0.067961 0.997688 0.000000
vn 0.067961 0.997688 0.000000
vn 0.067961 0.997688 0.000000
vn -0.000000 0.000000 1.000000
vn -0.000000 0.000000 1.000000
vn -0.000000 0.000000 1.000000
vn -0.000000 0.000000 1.000000
vn 0.000000 0.000000 -1.000000
vn 0.000000 0.000000 -1.000000
vn 0.000000 0.000000 -1.000000
vn 0.000000 0.000000 -1.000000
vn -0.000000 -0.998791 0.049162
vn -0.000000 -0.998791 0.049162
vn -0.000000 -0.998791 0.049162
vn -0.000000 -0.998791 0.049162
vn 0.000000 0.000000 -1.000000
vn 0.000000 0.000000 -1.000000
vn 0.000000 0.000000 -1.000000
vn 0.000000 0.000000 -1.000000
vn 0.000000 -0.998791 -0.049162
vn 0.000000 -0.998791 -0.049162
vn 0.000000 -0.998791 -0.049162
vn 0.000000 -0.998791 -0.049162
vn -0.000000 0.000000 1.000000
vn -0.000000 0.000000 1.000000
vn -0.000000 0.000000 1.000000
vn -0.000000 0.000000 1.000000
vn -0.000000 0.000000 1.000000
vn -0.000000 0.000000 1.000000
vn -0.000000 0.000000 1.000000
vn -0.000000 0.000000 1.000000
vn 0.000000 -1.000000 0.000000
vn 0.000000 -1.000000 0.000000
vn 0.000000 -1.000000 0.000000
vn 0.000000 -1.000000 0.000000
vn 0.000000 0.000000 -1.000000
vn 0.000000 0.000000 -1.000000
vn 0.000000 0.000000 -1.000000
vn 0.000000 0.000000 -1.000000
vn 0.000000 0.000000 1.000000
vn 0.000000 0.000000 1.000000
vn 0.000000 0.000000 1.000000
vn 0.000000 0.000000 1.000000
vn 0.000000 1.000000 0.000000
vn 0.000000 1.000000 0.000000
vn 0.000000 1.000000 0.000000
vn 0.000000 1.000000 0.000000
vn 0.000000 0.000000 -1.000000
vn 0.000000 0.000000 -1.000000
vn 0.000000 0.000000 -1.000000
vn 0.000000 0.000000 -1.000000
vn 0.000000 -1.000000 0.000000
vn 0.000000 -1.000000 0.000000
vn 0.000000 -1.000000 0.000000
vn 0.000000 -1.000000 0.000000
vn 1.000000 0.000000 0.000000
vn 1.000000 0.000000 0.000000
vn 1.000000 0.000000 0.000000
vn 1.000000 0.000000 0.000000
vn -1.000000 0.000000 0.000000
vn -1.000000 0.000000 0.000000
vn -1.000000 0.000000 0.000000
vn -1.000000 0.000000 0.000000
vn 0.000000 -1.000000 0.000000
vn 0.000000 -1.000000 0.000000
vn 0.000000 -1.000000 0.000000
vn 0.000000 -1.000000 0.000000
vn 1.000000 0.000000 0.000000
vn 1.000000 0.000000 0.000000
vn 1.000000 0.000000 0.000000
vn 1.000000 0.000000 0.000000
vn 0.000000 1.000000 0.000000
vn 0.000000 1.000000 0.000000
vn 0.000000 1.000000 0.000000
vn 0.000000 1.000000 0.000000
vn -1.000000 0.000000 0.000000
vn -1.000000 0.000000 0.000000
vn -1.000000 0.000000 0.000000
vn -1.000000 0.000000 0.000000
vn 0.000000 1.000000 0.000000
vn 0.000000 1.000000 0.000000
vn 0.000000 1.000000 0.000000
vn 0.000000 1.000000 0.000000
vn 1.000000 0.000000 0.000000
vn 1.000000 0.000000 0.000000
vn 1.000000 0.000000 0.000000
vn 1.000000 0.000000 0.000000
vn 0.000000 -1.000000 0.000000
vn 0.000000 -1.000000 0.000000
vn 0.000000 -1.000000 0.000000
vn 0.000000 -1.000000 0.000000
vn -1.000000 0.000000 0.000000
vn -1.000000 0.000000 0.000000
vn -1.000000 0.000000 0.000000
vn -1.000000 0.000000 0.000000
vn 0.000000 0.000000 -1.000000
vn 0.000000 0.000000 -1.000000
vn 0.000000 0.000000 -1.000000
vn 0.000000 0.000000 -1.000000
vn 1.000000 0.000000 0.000000
vn 1.000000 0.000000 0.000000
vn 1.000000 0.000000 0.000000
vn 1.000000 0.000000 0.000000
vn 0.000000 0.000000 1.000000
vn 0.000000 0.000000 1.000000
vn 0.000000 0.000000 1.000000
vn 0.000000 0.000000 1.000000
vn -1.000000 0.000000 0.000000
vn -1.000000 0.000000 0.000000
vn -1.000000 0.000000 0.000000
vn -1.000000 0.000000 0.000000
vn 0.000000 0.000000 1.000000
vn 0.000000 0.000000 1.000000
vn 0.000000 0.000000 1.000000
vn 0.000000 0.000000 1.000000
vn -1.000000 0.000000 0.000000
vn -1.000000 0.000000 0.000000
vn -1.000000 0.000000 0.000000
vn -1.000000 0.000000 0.000000
vn 0.000000 0.000000 -1.000000
vn 0.000000 0.000000 -1.000000
vn 0.000000 0.000000 -1.000000
vn 0.000000 0.000000 -1.000000
vn 1.000000 0.000000 0.000000
vn 1.000000 0.000000 0.000000
vn 1.000000 0.000000 0.000000
vn 1.000000 0.000000 0.000000
vn 0.000000 0.000000 -1.000000
vn 0.000000 0.000000 -1.000000
vn 0.000000 0.000000 -1.000000
vn 0.000000 0.000000 -1.000000
vn 1.000000 0.000000 0.000000
vn 1.000000 0.000000 0.000000
vn 1.000000 0.000000 0.000000
vn 1.000000 0.000000 0.000000
vn 0.000000 0.000000 1.000000
vn 0.000000 0.000000 1.000000
vn 0.000000 0.000000 1.000000
vn 0.000000 0.000000 1.000000
vn -1.000000 0.000000 0.000000
vn -1.000000 0.000000 0.000000
vn -1.000000 0.000000 0.000000
vn -1.000000 0.000000 0.000000
vn 0.000000 0.000000 1.000000
vn 0.000000 0.000000 1.000000
vn 0.000000 0.000000 1.000000
vn 0.000000 0.000000 1.000000
vn -1.000000 0.000000 0.000000
vn -1.000000 0.000000 0.000000
vn -1.000000 0.000000 0.000000
vn -1.000000 0.000000 0.000000
vn 0.000000 0.000000 -1.000000
vn 0.000000 0.000000 -1.000000
vn 0.000000 0.000000 -1.000000
vn 0.000000 0.000000 -1.000000
vn 1.000000 0.000000 0.000000
vn 1.000000 0.000000 0.000000
vn 1.000000 0.000000 0.000000
vn 1.000000 0.000000 0.000000
vn 0.000000 1.000000 0.000000
vn 0.000000 1.000000 0.000000
vn 0.000000 1.000000 0.000000
vn 0.000000 1.000000 0.000000
vn 0.000000 0.000000 1.000000
vn 0.000000 0.000000 1.000000
vn 0.000000 0.000000 1.000000
vn 0.000000 0.000000 1.000000
vn 0.000000 -1.000000 0.000000
vn 0.000000 -1.000000 0.000000
vn 0.000000 -1.000000 0.000000
vn 0.000000 -1.000000 0.000000
vn 0.000000 0.000000 -1.000000
vn 0.000000 0.000000 -1.000000
vn 0.000000 0.000000 -1.000000
vn 0.000000 0.000000 -1.000000
vn 0.000000 1.000000 0.000000
vn 0.000000 1.000000 0.000000
vn 0.000000 1.000000 0.000000
vn 0.000000 1.000000 0.000000
vn 0.000000 0.000000 -1.000000
vn 0.000000 0.000000 -1.000000
vn 0.000000 0.000000 -1.000000
vn 0.000000 0.000000 -1.000000
vn 0.000000 -1.000000 0.000000
vn 0.000000 -1.000000 0.000000
vn 0.000000 -1.000000 0.000000
vn 0.000000 -1.000000 0.000000
vn 0.000000 0.000000 1.000000
vn 0.000000 0.000000 1.000000
vn 0.000000 0.000000 1.000000
vn 0.000000 0.000000 1.000000
vn 0.000000 1.000000 0.000000
vn 0.000000 1.000000 0.000000
vn 0.000000 1.000000 0.000000
vn 0.000000 1.000000 0.000000
vn 0.000000 0.000000 -1.000000
vn 0.000000 0.000000 -1.000000
vn 0.000000 0.000000 -1.000000
vn 0.000000 0.000000 -1.000000
vn 0.000000 -1.000000 0.000000
vn 0.000000 -1.000000 0.000000
vn 0.000000 -1.000000 0.000000
vn 0.000000 -1.000000 0.000000
vn 0.000000 0.000000 1.000000
vn 0.000000 0.000000 1.000000
vn 0.000000 0.000000 1.000000
vn 0.000000 0.000000 1.000000
vn 0.000000 1.000000 0.000000
vn 0.000000 1.000000 0.000000
vn 0.000000 1.000000 0.000000
vn 0.000000 1.000000 0.000000
vn 0.000000 0.000000 1.000000
vn 0.000000 0.000000 1.000000
vn 0.000000 0.000000 1.000000
vn 0.000000 0.000000 1.000000
vn 0.000000 -1.000000 0.000000
vn 0.000000 -1.000000 0.000000
vn 0.000000 -1.000000 0.000000
vn 0.000000 -1.000000 0.000000
vn 0.000000 0.000000 -1.000000
vn 0.000000 0.000000 -1.000000
vn 0.000000 0.000000 -1.000000
vn 0.000000 0.000000 -1.000000
s off
g Batente_sem_porta
usemtl Porta1:initialShadingGroup
f 9/1/1 10/2/2 11/3/3 12/4/4
f 14/5/5 13/6/6 11/7/7 10/8/8
f 15/9/9 16/10/10 9/11/11 12/12/12
f 17/13/13 18/14/14 19/15/15 20/16/16
f 26/17/17 25/18/18 27/19/19 28/20/20
f 2/21/21 8/22/22 13/23/23 14/24/24
f 29/25/25 26/17/26 28/20/27 30/26/28
f 18/14/29 21/27/30 22/28/31 19/15/32
f 7/29/33 1/30/34 16/31/35 15/32/36
f 23/33/37 17/13/38 20/16/39 24/34/40
f 25/18/41 31/35/42 32/36/43 27/19/44
f 3/37/45 4/38/46 18/39/47 17/40/48
f 10/2/49 9/1/50 20/41/51 19/42/52
f 4/43/53 2/44/54 21/45/55 18/46/56
f 2/21/57 14/24/58 22/47/59 21/48/60
f 14/5/61 10/8/62 19/49/63 22/50/64
f 1/51/65 3/52/66 17/53/67 23/54/68
f 9/11/69 16/10/70 24/55/71 20/56/72
f 16/31/73 1/30/74 23/57/75 24/58/76
f 6/59/77 5/60/78 25/61/79 26/62/80
f 12/4/81 11/3/82 28/63/83 27/64/84
f 8/65/85 6/66/86 26/67/87 29/68/88
f 11/7/89 13/6/90 30/69/91 28/70/92
f 13/23/93 8/22/94 29/71/95 30/72/96
f 5/73/97 7/74/98 31/75/99 25/76/100
f 7/29/101 15/32/102 32/77/103 31/78/104
f 15/9/105 12/12/106 27/79/107 32/80/108
f 2/44/109 4/43/110 6/66/111 8/65/112
f 4/38/113 3/37/114 5/60/115 6/59/116
f 3/52/117 1/51/118 7/74/119 5/73/120
usemtl initialShadingGroup
f 41/81/121 42/82/122 43/83/123 44/84/124
f 35/85/125 36/86/126 38/87/127 37/88/128
f 45/89/129 46/90/130 47/91/131 48/92/132
f 39/93/133 40/94/134 34/95/135 33/96/136
f 34/97/137 40/98/138 38/99/139 36/86/140
f 39/100/141 33/101/142 35/85/143 37/102/144
f 57/103/145 58/104/146 59/105/147 60/106/148
f 34/97/149 36/86/150 43/83/151 42/82/152
f 36/86/153 35/85/154 44/84/155 43/83/156
f 35/85/157 33/101/158 41/81/159 44/84/160
f 37/88/161 38/87/162 46/90/163 45/89/164
f 38/87/165 40/94/166 47/91/167 46/90/168
f 62/107/169 61/108/170 63/109/171 64/110/172
f 39/93/173 37/88/174 45/89/175 48/92/176
f 33/101/177 34/97/178 50/111/179 49/112/180
f 34/97/181 42/82/182 51/113/183 50/111/184
f 42/82/185 41/81/186 52/114/187 51/113/188
f 41/81/189 33/101/190 49/112/191 52/114/192
f 40/94/193 39/93/194 53/115/195 54/116/196
f 39/93/197 48/92/198 55/117/199 53/115/200
f 48/92/201 47/91/202 56/118/203 55/117/204
f 47/91/205 40/94/206 54/116/207 56/118/208
f 49/112/209 50/111/210 58/104/211 57/103/212
f 65/119/213 66/120/214 67/121/215 68/122/216
f 51/113/217 52/114/218 60/106/219 59/105/220
f 70/123/221 69/124/222 71/125/223 72/126/224
f 54/116/225 53/115/226 61/108/227 62/107/228
f 73/127/229 74/128/230 75/129/231 76/130/232
f 55/117/233 56/118/234 64/110/235 63/109/236
f 78/131/237 77/132/238 79/133/239 80/134/240
f 50/111/241 51/113/242 66/120/243 65/119/244
f 51/113/245 59/105/246 67/121/247 66/120/248
f 59/105/249 58/104/250 68/122/251 67/121/252
f 58/104/253 50/111/254 65/119/255 68/122/256
f 52/114/257 49/112/258 69/124/259 70/123/260
f 49/112/261 57/103/262 71/125/263 69/124/264
f 57/103/265 60/106/266 72/126/267 71/125/268
f 60/106/269 52/114/270 70/123/271 72/126/272
f 53/115/273 55/117/274 74/128/275 73/127/276
f 55/117/277 63/109/278 75/129/279 74/128/280
f 63/109/281 61/108/282 76/130/283 75/129/284
f 61/108/285 53/115/286 73/127/287 76/130/288
f 56/118/289 54/116/290 77/132/291 78/131/292
f 54/116/293 62/107/294 79/133/295 77/132/296
f 62/107/297 64/110/298 80/134/299 79/133/300
f 64/110/301 56/118/302 78/131/303 80/134/304
