# This file uses centimeters as units for non-parametric coordinates.

mtllib batente.mtl
g default
v 6.616984 -0.546233 0.548418
v 6.616984 25.678661 0.548418
v 6.616984 25.678661 -0.746408
v 6.616984 26.356466 0.548418
v 7.428455 -0.546233 0.548418
v 7.428455 25.678661 0.548418
v 6.616984 -0.546233 -0.746407
v 7.428455 26.356466 0.548418
v 6.616984 26.356466 -0.592918
v 6.616984 26.073364 -0.746408
v 7.428455 25.678661 -0.592918
v 7.145353 25.678661 -0.746408
v 7.145353 26.073364 -0.746408
v 7.428455 26.356466 -0.592918
v 7.145353 -0.546233 -0.746407
v 7.428455 -0.546233 -0.592918
v -6.318724 -0.546233 0.548418
v -6.318724 25.678661 0.548418
v -6.318724 25.678661 -0.746408
v -6.318724 26.356466 0.548418
v -7.130194 -0.546233 0.548418
v -7.130194 25.678661 0.548418
v -6.318724 -0.546233 -0.746407
v 0.149130 25.678661 -0.746408
v 0.149130 25.678661 0.548418
v 0.149130 26.356466 0.548418
v -7.130194 26.356466 0.548418
v -6.318724 26.356466 -0.592918
v -6.318724 26.073364 -0.746408
v -7.130194 25.678661 -0.592918
v -6.847092 25.678661 -0.746408
v 0.149130 26.356466 -0.592918
v 0.149130 26.073364 -0.746408
v -6.847092 26.073364 -0.746408
v -7.130194 26.356466 -0.592918
v -6.847092 -0.546233 -0.746407
v -7.130194 -0.546233 -0.592918
vt 0.375000 0.545896
vt 0.625000 0.545896
vt 0.625000 0.728687
vt 0.375000 0.728687
vt 0.000000 0.000000
vt 0.000000 0.000000
vt 0.000000 0.000000
vt 0.000000 0.000000
vt 0.000000 0.000000
vt 0.000000 0.000000
vt 0.000000 0.000000
vt 0.000000 0.000000
vt 0.625000 0.521313
vt 0.625000 0.728687
vt 0.625000 0.521313
vt 0.375000 0.728687
vt 0.375000 0.521313
vt 0.375000 0.521313
vt 0.000000 0.000000
vt 0.000000 0.000000
vt 0.000000 0.000000
vt 0.000000 0.000000
vt 0.000000 0.000000
vt 0.625000 0.545896
vt 0.625000 0.728687
vt 0.625000 0.728687
vt 0.625000 0.545896
vt 0.625000 0.521313
vt 0.000000 0.000000
vt 0.000000 0.000000
vt 0.000000 0.000000
vt 0.000000 0.000000
vt 0.000000 0.000000
vt 0.625000 0.521313
vt 0.000000 0.000000
vt 0.000000 0.000000
vt 0.750000 0.545896
vt 0.750000 0.728687
vt 0.375000 0.545896
vt 0.375000 0.728687
vt 0.625000 0.728687
vt 0.625000 0.545896
vt 0.000000 0.000000
vt 0.000000 0.000000
vt 0.000000 0.000000
vt 0.000000 0.000000
vt 0.625000 0.521313
vt 0.625000 0.521313
vt 0.625000 0.728687
vt 0.375000 0.728687
vt 0.375000 0.521313
vt 0.375000 0.521313
vt 0.000000 0.000000
vt 0.000000 0.000000
vt 0.000000 0.000000
vt 0.000000 0.000000
vt 0.000000 0.000000
vt 0.625000 0.545896
vt 0.625000 0.545896
vt 0.625000 0.728687
vt 0.625000 0.728687
vt 0.625000 0.521313
vt 0.000000 0.000000
vt 0.000000 0.000000
vt 0.000000 0.000000
vt 0.000000 0.000000
vt 0.625000 0.521313
vt 0.000000 0.000000
vt 0.000000 0.000000
vn 1.000000 0.000000 0.000000
vn 1.000000 0.000000 0.000000
vn 1.000000 0.000000 0.000000
vn 1.000000 0.000000 0.000000
vn 0.000000 0.000000 -1.000000
vn 0.000000 0.000000 -1.000000
vn 0.000000 0.000000 -1.000000
vn 0.000000 0.000000 -1.000000
vn 0.000000 0.000000 1.000000
vn 0.000000 0.000000 1.000000
vn 0.000000 0.000000 1.000000
vn 0.000000 0.000000 1.000000
vn 0.000000 1.000000 0.000000
vn 0.000000 1.000000 0.000000
vn 0.000000 1.000000 0.000000
vn 0.000000 1.000000 0.000000
vn 0.000000 1.000000 0.000000
vn 0.000000 -1.000000 0.000000
vn 0.000000 -1.000000 0.000000
vn 0.000000 -1.000000 0.000000
vn 0.000000 -1.000000 0.000000
vn 0.000000 -1.000000 0.000000
vn 0.000000 0.000000 1.000000
vn 0.000000 0.000000 1.000000
vn 0.000000 0.000000 1.000000
vn 0.000000 0.000000 1.000000
vn 0.000000 0.000000 -1.000000
vn 0.000000 0.000000 -1.000000
vn 0.000000 0.000000 -1.000000
vn 0.000000 0.000000 -1.000000
vn 0.000000 1.000000 0.000000
vn 0.000000 1.000000 0.000000
vn 0.000000 1.000000 0.000000
vn 0.000000 1.000000 0.000000
vn 1.000000 0.000000 0.000000
vn 1.000000 0.000000 0.000000
vn 1.000000 0.000000 0.000000
vn 1.000000 0.000000 0.000000
vn 1.000000 0.000000 0.000000
vn 0.000000 0.000000 -1.000000
vn 0.000000 0.000000 -1.000000
vn 0.000000 0.000000 -1.000000
vn 0.000000 0.000000 -1.000000
vn 1.000000 0.000000 0.000000
vn 1.000000 0.000000 0.000000
vn 1.000000 0.000000 0.000000
vn 1.000000 0.000000 0.000000
vn 0.000000 0.000000 1.000000
vn 0.000000 0.000000 1.000000
vn 0.000000 0.000000 1.000000
vn 0.000000 0.000000 1.000000
vn -1.000000 0.000000 0.000000
vn -1.000000 0.000000 0.000000
vn -1.000000 0.000000 0.000000
vn -1.000000 0.000000 0.000000
vn 0.000000 -1.000000 0.000000
vn 0.000000 -1.000000 0.000000
vn 0.000000 -1.000000 0.000000
vn 0.000000 -1.000000 0.000000
vn 0.000000 0.476609 -0.879116
vn 0.000000 0.476609 -0.879116
vn 0.000000 0.476609 -0.879116
vn 0.000000 0.476609 -0.879116
vn 0.000000 0.476609 -0.879116
vn 0.000000 0.476609 -0.879116
vn 0.000000 0.476609 -0.879116
vn 0.000000 0.476609 -0.879116
vn 0.476609 0.000000 -0.879116
vn 0.476609 0.000000 -0.879116
vn 0.476609 0.000000 -0.879116
vn 0.476609 0.000000 -0.879116
vn 0.476609 0.000000 -0.879116
vn 0.476609 0.000000 -0.879116
vn 0.476609 0.000000 -0.879116
vn 0.476609 0.000000 -0.879116
vn 0.000000 1.000000 0.000000
vn 0.000000 1.000000 0.000000
vn 0.000000 1.000000 0.000000
vn 0.000000 1.000000 0.000000
vn -1.000000 0.000000 0.000000
vn -1.000000 0.000000 0.000000
vn -1.000000 0.000000 0.000000
vn -1.000000 0.000000 0.000000
vn 0.000000 0.000000 -1.000000
vn 0.000000 0.000000 -1.000000
vn 0.000000 0.000000 -1.000000
vn 0.000000 0.000000 -1.000000
vn 0.000000 0.000000 1.000000
vn 0.000000 0.000000 1.000000
vn 0.000000 0.000000 1.000000
vn 0.000000 0.000000 1.000000
vn 0.000000 1.000000 0.000000
vn 0.000000 1.000000 0.000000
vn 0.000000 1.000000 0.000000
vn 0.000000 1.000000 0.000000
vn 0.000000 1.000000 0.000000
vn 0.000000 -1.000000 0.000000
vn 0.000000 -1.000000 0.000000
vn 0.000000 -1.000000 0.000000
vn 0.000000 -1.000000 0.000000
vn 0.000000 -1.000000 0.000000
vn 0.000000 0.000000 1.000000
vn 0.000000 0.000000 1.000000
vn 0.000000 0.000000 1.000000
vn 0.000000 0.000000 1.000000
vn 0.000000 0.000000 -1.000000
vn 0.000000 0.000000 -1.000000
vn 0.000000 0.000000 -1.000000
vn 0.000000 0.000000 -1.000000
vn 0.000000 1.000000 0.000000
vn 0.000000 1.000000 0.000000
vn 0.000000 1.000000 0.000000
vn 0.000000 1.000000 0.000000
vn -1.000000 0.000000 0.000000
vn -1.000000 0.000000 0.000000
vn -1.000000 0.000000 0.000000
vn -1.000000 0.000000 0.000000
vn -1.000000 0.000000 0.000000
vn 0.000000 0.000000 -1.000000
vn 0.000000 0.000000 -1.000000
vn 0.000000 0.000000 -1.000000
vn 0.000000 0.000000 -1.000000
vn -1.000000 0.000000 0.000000
vn -1.000000 0.000000 0.000000
vn -1.000000 0.000000 0.000000
vn -1.000000 0.000000 0.000000
vn 0.000000 0.000000 1.000000
vn 0.000000 0.000000 1.000000
vn 0.000000 0.000000 1.000000
vn 0.000000 0.000000 1.000000
vn 1.000000 0.000000 0.000000
vn 1.000000 0.000000 0.000000
vn 1.000000 0.000000 0.000000
vn 1.000000 0.000000 0.000000
vn 0.000000 -1.000000 0.000000
vn 0.000000 -1.000000 0.000000
vn 0.000000 -1.000000 0.000000
vn 0.000000 -1.000000 0.000000
vn 0.000000 0.476609 -0.879116
vn 0.000000 0.476609 -0.879116
vn 0.000000 0.476609 -0.879116
vn 0.000000 0.476609 -0.879116
vn 0.000000 0.476609 -0.879116
vn 0.000000 0.476609 -0.879116
vn 0.000000 0.476609 -0.879116
vn 0.000000 0.476609 -0.879116
vn -0.476609 0.000000 -0.879116
vn -0.476609 0.000000 -0.879116
vn -0.476609 0.000000 -0.879116
vn -0.476609 0.000000 -0.879116
vn -0.476609 0.000000 -0.879116
vn -0.476609 0.000000 -0.879116
vn -0.476609 0.000000 -0.879116
vn -0.476609 0.000000 -0.879116
vn 0.000000 1.000000 0.000000
vn 0.000000 1.000000 0.000000
vn 0.000000 1.000000 0.000000
vn 0.000000 1.000000 0.000000
s off
g batente:Mesh
usemtl initialShadingGroup
f 16/1/1 11/2/2 6/3/3 5/4/4
f 3/5/5 24/6/6 33/7/7 10/8/8
f 25/9/9 2/10/10 4/11/11 26/12/12
f 3/13/13 2/14/14 6/3/15 11/2/16 12/15/17
f 1/16/18 7/17/19 15/18/20 16/1/21 5/4/22
f 2/10/23 1/19/24 5/20/25 6/21/26
f 12/22/27 3/5/28 10/8/29 13/23/30
f 9/24/31 4/25/32 8/26/33 14/27/34
f 2/14/35 3/13/36 10/28/37 9/24/38 4/25/39
f 7/29/40 3/5/41 12/22/42 15/30/43
f 6/3/44 11/2/45 14/27/46 8/26/47
f 8/31/48 4/11/49 2/10/50 6/21/51
f 7/29/52 1/19/53 2/10/54 3/5/55
f 25/9/56 24/6/57 3/5/58 2/10/59
f 32/32/60 9/33/61 10/8/62 33/7/63
f 13/34/64 10/28/65 9/24/66 14/27/67
f 12/15/68 13/34/69 14/27/70 11/2/71
f 11/35/72 16/36/73 15/30/74 12/22/75
f 9/24/76 32/37/77 26/38/78 4/25/79
f 37/39/80 21/40/81 22/41/82 30/42/83
f 19/43/84 29/44/85 33/7/86 24/6/87
f 25/9/88 26/12/89 20/45/90 18/46/91
f 19/47/92 31/48/93 30/42/94 22/41/95 18/49/96
f 17/50/97 21/40/98 37/39/99 36/51/100 23/52/101
f 18/46/102 22/53/103 21/54/104 17/55/105
f 31/56/106 34/57/107 29/44/108 19/43/109
f 28/58/110 35/59/111 27/60/112 20/61/113
f 18/49/114 20/61/115 28/58/116 29/62/117 19/47/118
f 23/63/119 36/64/120 31/56/121 19/43/122
f 22/41/123 27/60/124 35/59/125 30/42/126
f 27/65/127 22/53/128 18/46/129 20/45/130
f 23/63/131 19/43/132 18/46/133 17/55/134
f 25/9/135 18/46/136 19/43/137 24/6/138
f 32/32/139 33/7/140 29/44/141 28/66/142
f 34/67/143 35/59/144 28/58/145 29/62/146
f 31/48/147 30/42/148 35/59/149 34/67/150
f 30/68/151 31/56/152 36/64/153 37/69/154
f 28/58/155 20/61/156 26/38/157 32/37/158
