# This file uses centimeters as units for non-parametric coordinates.

mtllib Ficheiro.mtl
g default
v -0.038686 -1.737726 1.415787
v 0.038686 -1.770195 1.415787
v -0.038686 1.737726 1.415787
v 0.038686 1.737726 1.415787
v -0.038686 1.737726 -1.415786
v 0.038686 1.737726 -1.415786
v -0.038686 -1.737726 -1.415786
v 0.038686 -1.770195 -1.415786
v -0.038686 -1.828344 1.497637
v 0.018325 -1.828344 1.497637
v 0.018325 1.743711 1.497637
v -0.038686 1.743711 1.497637
v -0.038686 1.743711 -1.497636
v 0.018325 1.743711 -1.497636
v 0.018325 -1.828344 -1.497636
v -0.038686 -1.828344 -1.497636
v 0.120753 -1.710315 -1.325558
v 0.120753 -1.710315 1.325559
v 0.120753 1.737726 -1.325558
v 0.120753 1.737726 1.325559
v -0.038686 -1.737726 -1.325558
v -0.038686 -1.737726 1.325559
v -0.038686 1.737726 1.325559
v -0.038686 1.737726 -1.325558
v 0.289006 -1.664900 -1.209082
v 0.289006 -1.664900 1.209083
v 0.289006 1.737726 -1.209082
v 0.289006 1.737726 1.209083
v 0.321087 -1.622361 -1.131579
v 0.321087 -1.622361 1.131580
v 0.321087 1.737726 -1.131579
v 0.321087 1.737726 1.131580
v -0.015477 1.737726 1.370111
v 0.051912 1.737726 1.370111
v 0.051912 1.737726 -1.370110
v -0.015477 1.737726 -1.370110
v 0.123392 1.737726 1.282794
v 0.123392 1.737726 -1.282793
v 0.269937 1.737726 1.170075
v 0.269937 1.737726 -1.170074
v 0.297879 1.737726 1.095073
v 0.297879 1.737726 -1.095072
v -0.015477 -0.879010 1.370111
v 0.051912 -0.879010 1.370111
v 0.051912 -0.879010 -1.370110
v -0.015477 -0.879010 -1.370110
v 0.123392 -0.879010 1.282794
v 0.123392 -0.879010 -1.282793
v 0.269937 -0.879010 1.170075
v 0.269937 -0.879010 -1.170074
v 0.297879 -0.879010 1.095073
v 0.297879 -0.879010 -1.095072
vt 0.375000 0.000000
vt 0.625000 0.000000
vt 0.375000 0.250000
vt 0.625000 0.250000
vt 0.375000 0.500000
vt 0.625000 0.500000
vt 0.375000 0.750000
vt 0.625000 0.750000
vt 0.375000 1.000000
vt 0.625000 1.000000
vt 0.875000 0.000000
vt 0.875000 0.250000
vt 0.125000 0.000000
vt 0.125000 0.250000
vt 0.625000 0.000000
vt 0.625000 0.250000
vt 0.375000 0.250000
vt 0.375000 0.000000
vt 0.375000 0.500000
vt 0.625000 0.500000
vt 0.625000 0.750000
vt 0.375000 0.750000
vt 0.625000 1.000000
vt 0.375000 1.000000
vt 0.625000 0.000000
vt 0.875000 0.000000
vt 0.875000 0.250000
vt 0.625000 0.250000
vt 0.125000 0.000000
vt 0.375000 0.000000
vt 0.375000 0.250000
vt 0.125000 0.250000
vt 0.625000 0.000000
vt 0.875000 0.000000
vt 0.875000 0.250000
vt 0.625000 0.250000
vt 0.625000 0.000000
vt 0.875000 0.000000
vt 0.875000 0.250000
vt 0.625000 0.250000
vt 0.375000 0.250000
vt 0.625000 0.250000
vt 0.625000 0.500000
vt 0.375000 0.500000
vt 0.625000 0.250000
vt 0.875000 0.250000
vt 0.875000 0.250000
vt 0.625000 0.250000
vt 0.875000 0.250000
vt 0.625000 0.250000
vt 0.875000 0.250000
vt 0.375000 0.250000
vt 0.625000 0.250000
vt 0.625000 0.500000
vt 0.375000 0.500000
vt 0.625000 0.250000
vt 0.875000 0.250000
vt 0.875000 0.250000
vt 0.625000 0.250000
vt 0.875000 0.250000
vt 0.625000 0.250000
vt 0.875000 0.250000
vn 0.000000 0.000000 1.000000
vn 0.000000 0.000000 1.000000
vn 0.000000 0.000000 1.000000
vn 0.000000 0.000000 1.000000
vn 0.000000 1.000000 0.000000
vn 0.000000 1.000000 0.000000
vn 0.000000 1.000000 0.000000
vn 0.000000 1.000000 0.000000
vn 0.000000 0.000000 -1.000000
vn 0.000000 0.000000 -1.000000
vn 0.000000 0.000000 -1.000000
vn 0.000000 0.000000 -1.000000
vn 0.000000 -1.000000 0.000000
vn 0.000000 -1.000000 0.000000
vn 0.000000 -1.000000 0.000000
vn 0.000000 -1.000000 0.000000
vn 1.000000 0.000000 0.000000
vn 1.000000 0.000000 0.000000
vn 1.000000 0.000000 0.000000
vn 1.000000 0.000000 0.000000
vn -1.000000 0.000000 0.000000
vn -1.000000 0.000000 0.000000
vn -1.000000 0.000000 0.000000
vn -1.000000 0.000000 0.000000
vn 0.970425 0.000000 0.241403
vn 0.970425 0.000000 0.241403
vn 0.970425 0.000000 0.241403
vn 0.970425 0.000000 0.241403
vn 0.000000 0.997337 -0.072935
vn 0.000000 0.997337 -0.072935
vn 0.000000 0.997337 -0.072935
vn 0.000000 0.997337 -0.072935
vn -1.000000 0.000000 0.000000
vn -1.000000 0.000000 0.000000
vn -1.000000 0.000000 0.000000
vn -1.000000 0.000000 0.000000
vn 0.000000 0.997337 0.072935
vn 0.000000 0.997337 0.072935
vn 0.000000 0.997337 0.072935
vn 0.000000 0.997337 0.072935
vn 0.970425 0.000000 -0.241403
vn 0.970425 0.000000 -0.241403
vn 0.970425 0.000000 -0.241403
vn 0.970425 0.000000 -0.241403
vn -1.000000 0.000000 0.000000
vn -1.000000 0.000000 0.000000
vn -1.000000 0.000000 0.000000
vn -1.000000 0.000000 0.000000
vn 0.943814 -0.330476 0.000000
vn 0.943814 -0.330476 0.000000
vn 0.943814 -0.330476 0.000000
vn 0.943814 -0.330476 0.000000
vn -1.000000 0.000000 0.000000
vn -1.000000 0.000000 0.000000
vn -1.000000 0.000000 0.000000
vn -1.000000 0.000000 0.000000
vn 0.589426 -0.807823 0.000000
vn 0.589426 -0.807823 0.000000
vn 0.589426 -0.807823 0.000000
vn 0.589426 -0.807823 0.000000
vn 0.739771 0.000000 -0.672859
vn 0.739771 0.000000 -0.672859
vn 0.739771 0.000000 -0.672859
vn 0.739771 0.000000 -0.672859
vn 0.000000 1.000000 0.000000
vn 0.000000 1.000000 0.000000
vn 0.000000 1.000000 0.000000
vn 0.000000 1.000000 0.000000
vn 0.739771 0.000000 0.672859
vn 0.739771 0.000000 0.672859
vn 0.739771 0.000000 0.672859
vn 0.739771 0.000000 0.672859
vn 0.000000 0.000000 0.000000
vn 0.000000 0.000000 0.000000
vn 0.000000 0.000000 0.000000
vn 0.000000 0.000000 0.000000
vn -1.000000 0.000000 0.000000
vn -1.000000 0.000000 0.000000
vn -1.000000 0.000000 0.000000
vn -1.000000 0.000000 0.000000
vn 0.000000 0.000000 0.000000
vn 0.000000 0.000000 0.000000
vn 0.000000 0.000000 0.000000
vn 0.000000 0.000000 0.000000
vn -1.000000 0.000000 0.000000
vn -1.000000 0.000000 0.000000
vn -1.000000 0.000000 0.000000
vn -1.000000 0.000000 0.000000
vn 0.260591 -0.965449 0.000000
vn 0.260591 -0.965449 0.000000
vn 0.260591 -0.965449 0.000000
vn 0.260591 -0.965449 0.000000
vn 0.569189 0.000000 -0.822207
vn 0.569189 0.000000 -0.822207
vn 0.569189 0.000000 -0.822207
vn 0.569189 0.000000 -0.822207
vn 0.000000 1.000000 0.000000
vn 0.000000 1.000000 0.000000
vn 0.000000 1.000000 0.000000
vn 0.000000 1.000000 0.000000
vn 0.569187 0.000000 0.822208
vn 0.569187 0.000000 0.822208
vn 0.569187 0.000000 0.822208
vn 0.569187 0.000000 0.822208
vn 0.798410 -0.602114 0.000000
vn 0.798410 -0.602114 0.000000
vn 0.798410 -0.602114 0.000000
vn 0.798410 -0.602114 0.000000
vn 0.923970 0.000000 -0.382465
vn 0.923970 0.000000 -0.382465
vn 0.923970 0.000000 -0.382465
vn 0.923970 0.000000 -0.382465
vn 0.000000 1.000000 0.000000
vn 0.000000 1.000000 0.000000
vn 0.000000 1.000000 0.000000
vn 0.000000 1.000000 0.000000
vn 0.923970 0.000000 0.382464
vn 0.923970 0.000000 0.382464
vn 0.923970 0.000000 0.382464
vn 0.923970 0.000000 0.382464
vn 0.000000 1.000000 0.000000
vn 0.000000 1.000000 0.000000
vn 0.000000 1.000000 0.000000
vn 0.000000 1.000000 0.000000
vn 0.000000 1.000000 -0.000001
vn 0.000000 1.000000 -0.000001
vn 0.000000 1.000000 -0.000001
vn 0.000000 1.000000 -0.000001
vn 0.000000 1.000000 0.000000
vn 0.000000 1.000000 0.000000
vn 0.000000 1.000000 0.000000
vn 0.000000 1.000000 0.000000
vn 0.000000 1.000000 0.000001
vn 0.000000 1.000000 0.000001
vn 0.000000 1.000000 0.000001
vn 0.000000 1.000000 0.000001
vn 0.000000 1.000000 -0.000003
vn 0.000000 1.000000 -0.000003
vn 0.000000 1.000000 -0.000003
vn 0.000000 1.000000 -0.000003
vn 0.000000 1.000000 0.000002
vn 0.000000 1.000000 0.000002
vn 0.000000 1.000000 0.000002
vn 0.000000 1.000000 0.000002
vn 0.000000 1.000000 -0.000001
vn 0.000000 1.000000 -0.000001
vn 0.000000 1.000000 -0.000001
vn 0.000000 1.000000 -0.000001
vn 0.000000 1.000000 -0.000001
vn 0.000000 1.000000 -0.000001
vn 0.000000 1.000000 -0.000001
vn 0.000000 1.000000 -0.000001
vn 0.000000 1.000000 0.000000
vn 0.000000 1.000000 0.000000
vn 0.000000 1.000000 0.000000
vn 0.000000 1.000000 0.000000
vn 0.000000 1.000000 0.000000
vn 0.000000 1.000000 0.000000
vn 0.000000 1.000000 0.000000
vn 0.000000 1.000000 0.000000
vn 0.000000 0.000000 -1.000000
vn 0.000000 0.000000 -1.000000
vn 0.000000 0.000000 -1.000000
vn 0.000000 0.000000 -1.000000
vn 0.000000 0.000000 1.000000
vn 0.000000 0.000000 1.000000
vn 0.000000 0.000000 1.000000
vn 0.000000 0.000000 1.000000
vn 1.000000 0.000000 0.000000
vn 1.000000 0.000000 0.000000
vn 1.000000 0.000000 0.000000
vn 1.000000 0.000000 0.000000
vn -0.773793 0.000000 -0.633439
vn -0.773793 0.000000 -0.633439
vn -0.773793 0.000000 -0.633439
vn -0.773793 0.000000 -0.633439
vn -0.773793 0.000000 0.633439
vn -0.773793 0.000000 0.633439
vn -0.773793 0.000000 0.633439
vn -0.773793 0.000000 0.633439
vn -0.609682 0.000000 -0.792646
vn -0.609682 0.000000 -0.792646
vn -0.609682 0.000000 -0.792646
vn -0.609682 0.000000 -0.792646
vn -0.609682 0.000000 0.792646
vn -0.609682 0.000000 0.792646
vn -0.609682 0.000000 0.792646
vn -0.609682 0.000000 0.792646
vn -0.937081 0.000000 -0.349111
vn -0.937081 0.000000 -0.349111
vn -0.937081 0.000000 -0.349111
vn -0.937081 0.000000 -0.349111
vn -1.000000 0.000000 0.000000
vn -1.000000 0.000000 0.000000
vn -1.000000 0.000000 0.000000
vn -1.000000 0.000000 0.000000
vn -0.937081 0.000000 0.349112
vn -0.937081 0.000000 0.349112
vn -0.937081 0.000000 0.349112
vn -0.937081 0.000000 0.349112
s off
g pCube186
usemtl initialShadingGroup
f 9/18/1 10/15/2 11/16/3 12/17/4
f 43/52/5 44/53/6 45/54/7 46/55/8
f 13/19/9 14/20/10 15/21/11 16/22/12
f 16/22/13 15/21/14 10/23/15 9/24/16
f 30/37/17 29/38/18 31/39/19 32/40/20
f 21/29/21 22/30/22 23/31/23 24/32/24
f 2/2/25 4/4/26 11/16/27 10/15/28
f 4/4/29 3/3/30 12/17/31 11/16/32
f 3/3/33 1/1/34 9/18/35 12/17/36
f 5/5/37 6/6/38 14/20/39 13/19/40
f 6/6/41 8/8/42 15/21/43 14/20/44
f 7/7/45 5/5/46 13/19/47 16/22/48
f 8/8/49 2/10/50 10/23/51 15/21/52
f 1/9/53 7/7/54 16/22/55 9/24/56
f 2/2/57 8/11/58 17/26/59 18/25/60
f 8/11/61 6/12/62 19/27/63 17/26/64
f 45/58/65 44/53/66 47/56/67 48/57/68
f 4/4/69 2/2/70 18/25/71 20/28/72
f 7/13/73 1/1/74 22/30/75 21/29/76
f 1/1/77 3/3/78 23/31/79 22/30/80
f 3/3/81 5/14/82 24/32/83 23/31/84
f 5/14/85 7/13/86 21/29/87 24/32/88
f 18/25/89 17/26/90 25/34/91 26/33/92
f 17/26/93 19/27/94 27/35/95 25/34/96
f 48/57/97 47/56/98 49/59/99 50/60/100
f 20/28/101 18/25/102 26/33/103 28/36/104
f 26/33/105 25/34/106 29/38/107 30/37/108
f 25/34/109 27/35/110 31/39/111 29/38/112
f 50/60/113 49/59/114 51/61/115 52/62/116
f 28/36/117 26/33/118 30/37/119 32/40/120
f 3/3/121 4/4/122 34/42/123 33/41/124
f 6/6/125 5/5/126 36/44/127 35/43/128
f 5/5/129 3/3/130 33/41/131 36/44/132
f 4/4/133 20/28/134 37/45/135 34/42/136
f 19/27/137 6/12/138 35/47/139 38/46/140
f 20/28/141 28/36/142 39/48/143 37/45/144
f 27/35/145 19/27/146 38/46/147 40/49/148
f 28/36/149 32/40/150 41/50/151 39/48/152
f 32/40/153 31/39/154 42/51/155 41/50/156
f 31/39/157 27/35/158 40/49/159 42/51/160
f 33/41/161 34/42/162 44/53/163 43/52/164
f 35/43/165 36/44/166 46/55/167 45/54/168
f 36/44/169 33/41/170 43/52/171 46/55/172
f 34/42/173 37/45/174 47/56/175 44/53/176
f 38/46/177 35/47/178 45/58/179 48/57/180
f 37/45/181 39/48/182 49/59/183 47/56/184
f 40/49/185 38/46/186 48/57/187 50/60/188
f 39/48/189 41/50/190 51/61/191 49/59/192
f 41/50/193 42/51/194 52/62/195 51/61/196
f 42/51/197 40/49/198 50/60/199 52/62/200
