# Blender v2.92.0 OBJ File: 'fichario.blend'
# www.blender.org
mtllib fichario.mtl
v -1.090033 0.574009 7.941138
v -1.090033 0.574009 5.222824
v -1.171910 0.574009 5.375240
v -1.090033 -0.574009 5.375240
v -1.090033 -0.574009 7.850905
v -1.171910 0.574009 7.850905
v -1.140598 -0.574009 7.896021
v -1.140598 -0.548112 7.941138
v -1.171910 -0.548112 7.896021
v -1.140598 0.574009 7.941138
v -1.171910 0.574009 7.896021
v -1.171910 -0.548112 5.267940
v -1.140598 -0.548112 5.222824
v -1.140598 -0.574009 5.267940
v -1.171910 0.574009 5.267940
v -1.140598 0.574009 5.222824
v -1.090033 -0.548112 5.222824
v -1.090033 -0.574009 5.267940
v -1.090033 -0.548112 7.941138
v -1.090033 -0.574009 7.896021
v -1.140598 -0.574009 5.375240
v -1.171910 -0.548112 5.375240
v -1.058721 -0.413472 5.420357
v -1.058721 -0.387574 5.375240
v -1.090033 -0.387574 5.420357
v -1.171910 -0.548112 7.850905
v -1.140598 -0.574009 7.850905
v -1.058721 -0.413472 7.805789
v -1.090033 -0.387574 7.805789
v -1.058721 -0.387574 7.850905
v -1.171910 0.615436 5.375240
v -1.140598 0.641333 5.375240
v -1.171910 0.615436 5.267940
v -1.140598 0.641333 5.267940
v -1.140598 0.615436 5.222824
v -1.090033 0.615436 7.941138
v -1.090033 0.641333 7.896021
v -1.171910 0.615436 7.896021
v -1.140598 0.615436 7.941138
v -1.140598 0.641333 7.896021
v -1.090033 0.615436 5.222824
v -1.090033 0.641333 5.267940
v -1.058721 0.615436 7.850905
v -1.090033 0.615436 7.805789
v -1.121344 0.641333 7.896021
v -1.140598 0.641333 7.850905
v -1.171910 0.615436 7.850905
v -1.058721 0.615436 5.375240
v -1.121344 0.641333 5.330124
v -1.090033 0.615436 5.420357
v 0.000000 0.574009 5.222824
v 0.000000 0.574009 7.941138
v 1.090033 0.574009 7.941138
v 1.090033 0.574009 5.222824
v 1.171910 0.574009 5.375240
v 0.000000 -0.574009 5.375240
v 1.090033 -0.574009 5.375240
v 0.000000 -0.574009 7.850905
v 1.090033 -0.574009 7.850905
v 1.171910 0.574009 7.850905
v 1.140598 -0.574009 7.896021
v 1.140598 -0.548112 7.941138
v 1.171910 -0.548112 7.896021
v 1.140598 0.574009 7.941138
v 1.171910 0.574009 7.896021
v 1.171910 -0.548112 5.267940
v 1.140598 -0.548112 5.222824
v 1.140598 -0.574009 5.267940
v 1.171910 0.574009 5.267940
v 1.140598 0.574009 5.222824
v 0.000000 -0.574009 5.267940
v 0.000000 -0.548112 5.222824
v 0.000000 -0.548112 7.941138
v 0.000000 -0.574009 7.896021
v 1.090033 -0.548112 5.222824
v 1.090033 -0.574009 5.267940
v 1.090033 -0.548112 7.941138
v 1.090033 -0.574009 7.896021
v 1.140598 -0.574009 5.375240
v 1.171910 -0.548112 5.375240
v 0.000000 -0.387574 5.375240
v 0.000000 -0.413472 5.420357
v 1.058721 -0.413472 5.420357
v 1.058721 -0.387574 5.375240
v 1.090033 -0.387574 5.420357
v 1.171910 -0.548112 7.850905
v 1.140598 -0.574009 7.850905
v 0.000000 -0.413472 7.805789
v 0.000000 -0.387574 7.850905
v 1.058721 -0.413472 7.805789
v 1.090033 -0.387574 7.805789
v 1.058721 -0.387574 7.850905
v 1.171910 0.615436 5.375240
v 1.140598 0.641333 5.375240
v 1.171910 0.615436 5.267940
v 1.140598 0.641333 5.267940
v 1.140598 0.615436 5.222824
v 1.090033 0.615436 7.941138
v 1.090033 0.641333 7.896021
v 1.171910 0.615436 7.896021
v 1.140598 0.615436 7.941138
v 1.140598 0.641333 7.896021
v 1.090033 0.615436 5.222824
v 1.090033 0.641333 5.267940
v 0.000000 0.615436 5.222824
v 0.000000 0.641333 5.267940
v 0.000000 0.615436 7.850905
v 0.000000 0.641333 7.896021
v 0.000000 0.641333 7.896021
v 0.000000 0.615436 7.941138
v 1.058721 0.615436 7.850905
v 1.090033 0.615436 7.805789
v 1.121344 0.641333 7.896021
v 1.140598 0.641333 7.850905
v 1.171910 0.615436 7.850905
v 0.000000 0.641333 5.330124
v 0.000000 0.615436 5.375240
v 1.058721 0.615436 5.375240
v 1.121344 0.641333 5.330124
v 1.090033 0.615436 5.420357
v -1.098794 -0.449742 7.639204
v -1.087540 1.072046 7.952178
v -1.098794 -0.440478 7.596817
v -1.087540 1.081309 7.909791
v 1.076133 -0.449742 7.639204
v 1.087388 1.072046 7.952178
v 1.076133 -0.440478 7.596817
v 1.087388 1.081309 7.909791
v 0.767763 -0.440478 7.596817
v 0.779017 1.081309 7.909791
v 0.767763 -0.449742 7.639204
v 0.779017 1.072046 7.952178
v 1.087388 1.252461 8.038093
v 0.779017 1.252461 8.038093
v -1.098794 -0.449742 7.387065
v -1.087540 1.072046 7.700039
v -1.098794 -0.440478 7.344678
v -1.087540 1.081309 7.657652
v 1.076133 -0.449742 7.387065
v 1.087388 1.072046 7.700039
v 1.076133 -0.440478 7.344678
v 1.087388 1.081309 7.657652
v -0.762421 -0.440478 7.344678
v -0.751166 1.081309 7.657652
v -0.695445 -0.449742 7.387065
v -0.751166 1.072046 7.700039
v -1.087540 1.226080 7.763399
v -0.751166 1.226080 7.763399
v -1.098794 -0.449742 7.100787
v -1.087540 1.072046 7.413761
v -1.098794 -0.440478 7.058400
v -1.087540 1.081309 7.371374
v 1.076133 -0.449742 7.100787
v 1.087388 1.072046 7.413761
v 1.076133 -0.440478 7.058400
v 1.087388 1.081309 7.371374
v -0.348431 -0.440478 7.058400
v -0.337177 1.081309 7.371374
v -0.348431 -0.449742 7.100787
v -0.337177 1.072046 7.413761
v -0.688370 -0.440478 7.058400
v -0.677115 1.072046 7.413761
v -0.677115 1.081309 7.371374
v -0.688370 -0.449742 7.100787
v -0.337177 1.226056 7.474864
v -0.677115 1.226056 7.474864
v -1.098794 -0.449742 6.754745
v -1.087540 1.072046 7.067719
v -1.098794 -0.440478 6.712358
v -1.087540 1.081309 7.025332
v 1.076133 -0.449742 6.754745
v 1.087388 1.072046 7.067719
v 1.076133 -0.440478 6.712358
v 1.087388 1.081309 7.025332
v -0.011331 -0.440478 6.712358
v -0.000076 1.081309 7.025332
v -0.011331 -0.449742 6.754745
v -0.000076 1.072046 7.067719
v -0.336515 -0.440478 6.712358
v -0.325260 1.072046 7.067719
v -0.325260 1.081309 7.025332
v -0.336515 -0.449742 6.754745
v -0.000076 1.234526 7.142767
v -0.325260 1.234526 7.142767
v -1.098794 -0.449742 6.419905
v -1.087540 1.072046 6.732879
v -1.098794 -0.440478 6.377519
v -1.087540 1.081309 6.690493
v 1.076133 -0.449742 6.419905
v 1.087388 1.072046 6.732879
v 1.076133 -0.440478 6.377519
v 1.087388 1.081309 6.690493
v 0.365134 -0.440478 6.377519
v 0.376389 1.081309 6.690493
v 0.365134 -0.449742 6.419905
v 0.376389 1.072046 6.732879
v 0.019051 -0.440478 6.377519
v 0.030305 1.072046 6.732879
v 0.030305 1.081309 6.690493
v 0.019051 -0.449742 6.419905
v 0.378913 1.220414 6.811614
v 0.032829 1.220414 6.811614
v -1.098794 -0.449742 6.100649
v -1.087540 1.072046 6.413623
v -1.098794 -0.440478 6.058263
v -1.087540 1.081309 6.371237
v 1.076133 -0.449742 6.100649
v 1.087388 1.072046 6.413623
v 1.076133 -0.440478 6.058263
v 1.087388 1.081309 6.371237
v 0.433882 -0.440478 6.058263
v 0.445136 1.081309 6.371237
v 0.433882 -0.449742 6.100649
v 0.445136 1.072046 6.413623
v 0.766262 1.081309 6.371237
v 0.755007 -0.449742 6.100649
v 0.755007 -0.440478 6.058263
v 0.766262 1.072046 6.413623
v 0.445136 1.213647 6.465502
v 0.766262 1.213647 6.465502
v -1.098794 -0.449742 5.759790
v -1.087540 1.072046 6.072764
v -1.098794 -0.440478 5.717403
v -1.087540 1.081309 6.030377
v 1.076133 -0.449742 5.759790
v 1.087388 1.072046 6.072764
v 1.076133 -0.440478 5.717403
v 1.087388 1.081309 6.030377
v 0.801720 -0.440478 5.717403
v 0.812975 1.081309 6.030377
v 0.801720 -0.449742 5.759790
v 0.812975 1.072046 6.072764
v 1.087388 1.223095 6.145033
v 0.812975 1.223095 6.145033
vt 0.625000 0.245851
vt 0.625000 0.235982
vt 0.625000 0.235982
vt 0.625000 0.245851
vt 0.133736 0.741701
vt 0.147845 0.741701
vt 0.147845 0.745851
vt 0.133736 0.745851
vt 0.147845 0.514018
vt 0.133736 0.514018
vt 0.147845 0.504149
vt 0.250000 0.504149
vt 0.250000 0.514018
vt 0.133736 0.504149
vt 0.625000 0.991264
vt 0.625000 0.977155
vt 0.625000 0.977155
vt 0.625000 0.991264
vt 0.852155 0.504149
vt 0.866264 0.504149
vt 0.866264 0.514018
vt 0.860891 0.509868
vt 0.250000 0.741701
vt 0.250000 0.745851
vt 0.380640 0.272845
vt 0.625000 0.272845
vt 0.625000 0.375000
vt 0.380640 0.375000
vt 0.380640 0.235982
vt 0.380640 0.245851
vt 0.380640 0.875000
vt 0.625000 0.875000
vt 0.380640 0.977155
vt 0.750000 0.745851
vt 0.855090 0.745851
vt 0.852155 0.745851
vt 0.750000 0.745851
vt 0.380640 0.991264
vt 0.750000 0.504149
vt 0.855090 0.509868
vt 0.750000 0.509868
vt 0.625000 0.272845
vt 0.625000 0.375000
vt 0.860892 0.745851
vt 0.866264 0.741701
vt 0.866264 0.745851
vt 0.625000 0.008299
vt 0.625000 0.008299
vt 0.625000 0.004149
vt 0.625000 0.004149
vt 0.380640 0.258736
vt 0.625000 0.258736
vt 0.625000 0.258736
vt 0.849221 0.518167
vt 0.849221 0.737552
vt 0.750000 0.737552
vt 0.750000 0.518167
vt 0.750000 0.741701
vt 0.849221 0.741701
vt 0.849221 0.741701
vt 0.750000 0.741701
vt 0.625000 0.875000
vt 0.380640 0.008299
vt 0.852155 0.737552
vt 0.852155 0.518167
vt 0.852155 0.518167
vt 0.852155 0.737552
vt 0.849221 0.514018
vt 0.750000 0.514018
vt 0.750000 0.514018
vt 0.849221 0.514018
vt 0.375000 0.991264
vt 0.375000 0.991264
vt 0.380640 1.000000
vt 0.380640 0.250000
vt 0.375000 0.245851
vt 0.625000 0.245851
vt 0.625000 0.250000
vt 0.625000 0.000000
vt 0.625000 0.004149
vt 0.375000 0.008299
vt 0.375000 0.004149
vt 0.380640 0.004149
vt 0.380640 0.000000
vt 0.625000 0.000000
vt 0.375000 0.272845
vt 0.375000 0.258736
vt 0.375000 0.977155
vt 0.375000 0.875000
vt 0.375000 0.375000
vt 0.375000 0.235982
vt 0.625000 0.235982
vt 0.625000 0.977155
vt 0.625000 0.991264
vt 0.625000 0.272845
vt 0.625000 0.375000
vt 0.625000 0.875000
vt 0.625000 0.258736
vt 0.625000 0.008299
vt 0.625000 0.245851
vt 0.625000 0.245851
vt 0.625000 0.235982
vt 0.625000 0.235982
vt 0.133736 0.741701
vt 0.133736 0.745851
vt 0.147845 0.745851
vt 0.147845 0.741701
vt 0.147845 0.514018
vt 0.133736 0.514018
vt 0.147845 0.504149
vt 0.133736 0.504149
vt 0.625000 0.991264
vt 0.625000 0.991264
vt 0.625000 0.977155
vt 0.625000 0.977155
vt 0.852155 0.504149
vt 0.860891 0.509868
vt 0.866264 0.514018
vt 0.866264 0.504149
vt 0.380640 0.272845
vt 0.625000 0.272845
vt 0.380640 0.235982
vt 0.380640 0.245851
vt 0.380640 0.977155
vt 0.852155 0.745851
vt 0.855090 0.745851
vt 0.380640 0.991264
vt 0.855090 0.509868
vt 0.625000 0.272845
vt 0.860892 0.745851
vt 0.866264 0.745851
vt 0.866264 0.741701
vt 0.625000 0.008299
vt 0.625000 0.008299
vt 0.625000 0.004149
vt 0.625000 0.004149
vt 0.380640 0.258736
vt 0.625000 0.258736
vt 0.625000 0.258736
vt 0.849221 0.518167
vt 0.849221 0.737552
vt 0.849221 0.741701
vt 0.849221 0.741701
vt 0.380640 0.008299
vt 0.852155 0.737552
vt 0.852155 0.737552
vt 0.852155 0.518167
vt 0.852155 0.518167
vt 0.849221 0.514018
vt 0.849221 0.514018
vt 0.375000 0.991264
vt 0.380640 1.000000
vt 0.375000 0.991264
vt 0.375000 0.245851
vt 0.380640 0.250000
vt 0.625000 0.250000
vt 0.625000 0.245851
vt 0.625000 0.004149
vt 0.625000 0.000000
vt 0.375000 0.008299
vt 0.380640 0.004149
vt 0.375000 0.004149
vt 0.380640 0.000000
vt 0.625000 0.000000
vt 0.375000 0.272845
vt 0.375000 0.258736
vt 0.375000 0.977155
vt 0.375000 0.235982
vt 0.625000 0.235982
vt 0.625000 0.977155
vt 0.625000 0.991264
vt 0.625000 0.272845
vt 0.625000 0.258736
vt 0.625000 0.008299
vt 0.375000 0.000000
vt 0.625000 0.000000
vt 0.625000 0.250000
vt 0.375000 0.250000
vt 0.375000 0.464554
vt 0.625000 0.464554
vt 0.625000 0.500000
vt 0.375000 0.500000
vt 0.625000 0.750000
vt 0.375000 0.750000
vt 0.375000 0.785446
vt 0.625000 0.785446
vt 0.625000 1.000000
vt 0.375000 1.000000
vt 0.339554 0.500000
vt 0.339554 0.750000
vt 0.660446 0.500000
vt 0.875000 0.500000
vt 0.875000 0.750000
vt 0.660446 0.750000
vt 0.125000 0.500000
vt 0.125000 0.750000
vt 0.625000 0.750000
vt 0.660446 0.750000
vt 0.375000 0.000000
vt 0.625000 0.000000
vt 0.625000 0.250000
vt 0.375000 0.250000
vt 0.375000 0.296363
vt 0.625000 0.296363
vt 0.625000 0.500000
vt 0.375000 0.500000
vt 0.625000 0.750000
vt 0.375000 0.750000
vt 0.375000 0.953637
vt 0.625000 0.953636
vt 0.625000 1.000000
vt 0.375000 1.000000
vt 0.171364 0.500000
vt 0.171364 0.750000
vt 0.828636 0.500000
vt 0.875000 0.500000
vt 0.875000 0.750000
vt 0.828636 0.750000
vt 0.125000 0.500000
vt 0.125000 0.750000
vt 0.828636 0.750000
vt 0.875000 0.750000
vt 0.375000 0.000000
vt 0.625000 0.000000
vt 0.625000 0.250000
vt 0.375000 0.250000
vt 0.375000 0.336252
vt 0.625000 0.336251
vt 0.625000 0.500000
vt 0.375000 0.500000
vt 0.625000 0.750000
vt 0.375000 0.750000
vt 0.375000 0.952823
vt 0.625000 0.952823
vt 0.625000 1.000000
vt 0.375000 1.000000
vt 0.211252 0.500000
vt 0.211252 0.750000
vt 0.827823 0.500000
vt 0.875000 0.500000
vt 0.875000 0.750000
vt 0.827823 0.750000
vt 0.788749 0.500000
vt 0.788749 0.750000
vt 0.172177 0.500000
vt 0.172177 0.750000
vt 0.625000 0.913748
vt 0.375000 0.913749
vt 0.375000 0.297177
vt 0.625000 0.297177
vt 0.125000 0.500000
vt 0.125000 0.750000
vt 0.625000 0.952823
vt 0.625000 0.913748
vt 0.375000 0.000000
vt 0.625000 0.000000
vt 0.625000 0.250000
vt 0.375000 0.250000
vt 0.375000 0.375000
vt 0.625000 0.375000
vt 0.625000 0.500000
vt 0.375000 0.500000
vt 0.625000 0.750000
vt 0.375000 0.750000
vt 0.375000 0.917796
vt 0.625000 0.917796
vt 0.625000 1.000000
vt 0.375000 1.000000
vt 0.250000 0.500000
vt 0.250000 0.750000
vt 0.792796 0.500000
vt 0.875000 0.500000
vt 0.875000 0.750000
vt 0.792796 0.750000
vt 0.750000 0.500000
vt 0.750000 0.750000
vt 0.207204 0.500000
vt 0.207204 0.750000
vt 0.625000 0.875000
vt 0.375000 0.875000
vt 0.375000 0.332204
vt 0.625000 0.332204
vt 0.125000 0.500000
vt 0.125000 0.750000
vt 0.625000 0.917796
vt 0.625000 0.875000
vt 0.375000 0.000000
vt 0.625000 0.000000
vt 0.625000 0.250000
vt 0.375000 0.250000
vt 0.375000 0.418273
vt 0.625000 0.418273
vt 0.625000 0.500000
vt 0.375000 0.500000
vt 0.625000 0.750000
vt 0.375000 0.750000
vt 0.375000 0.871508
vt 0.625000 0.871508
vt 0.625000 1.000000
vt 0.375000 1.000000
vt 0.293273 0.500000
vt 0.293273 0.750000
vt 0.746508 0.500000
vt 0.875000 0.500000
vt 0.875000 0.750000
vt 0.746508 0.750000
vt 0.706727 0.500000
vt 0.706727 0.750000
vt 0.253492 0.500000
vt 0.253492 0.750000
vt 0.625000 0.831727
vt 0.375000 0.831727
vt 0.375000 0.378492
vt 0.625000 0.378492
vt 0.125000 0.500000
vt 0.125000 0.750000
vt 0.625000 0.871508
vt 0.625000 0.831727
vt 0.375000 0.000000
vt 0.625000 0.000000
vt 0.625000 0.250000
vt 0.375000 0.250000
vt 0.375000 0.463088
vt 0.625000 0.463088
vt 0.625000 0.500000
vt 0.375000 0.500000
vt 0.625000 0.750000
vt 0.375000 0.750000
vt 0.375000 0.823824
vt 0.625000 0.823824
vt 0.625000 1.000000
vt 0.375000 1.000000
vt 0.338088 0.500000
vt 0.338088 0.750000
vt 0.698824 0.500000
vt 0.875000 0.500000
vt 0.875000 0.750000
vt 0.698824 0.750000
vt 0.661912 0.500000
vt 0.661912 0.750000
vt 0.125000 0.500000
vt 0.301176 0.500000
vt 0.301176 0.750000
vt 0.125000 0.750000
vt 0.375000 0.786912
vt 0.625000 0.786912
vt 0.625000 0.426176
vt 0.375000 0.426176
vt 0.625000 0.823824
vt 0.625000 0.786912
vt 0.375000 0.000000
vt 0.625000 0.000000
vt 0.625000 0.250000
vt 0.375000 0.250000
vt 0.375000 0.468457
vt 0.625000 0.468457
vt 0.625000 0.500000
vt 0.375000 0.500000
vt 0.625000 0.750000
vt 0.375000 0.750000
vt 0.375000 0.781543
vt 0.625000 0.781543
vt 0.625000 1.000000
vt 0.375000 1.000000
vt 0.343457 0.500000
vt 0.343457 0.750000
vt 0.656543 0.500000
vt 0.875000 0.500000
vt 0.875000 0.750000
vt 0.656543 0.750000
vt 0.125000 0.500000
vt 0.125000 0.750000
vt 0.625000 0.750000
vt 0.656543 0.750000
vn -1.0000 0.0000 0.0000
vn 0.0000 -1.0000 0.0000
vn 0.0000 0.0000 1.0000
vn 0.0000 1.0000 -0.0000
vn 0.0000 0.0000 -1.0000
vn 1.0000 0.0000 0.0000
vn -0.5829 -0.7047 0.4045
vn -0.5829 -0.7047 -0.4045
vn 0.5829 0.7047 0.4045
vn 0.5829 0.7047 -0.4045
vn -0.5829 0.7047 -0.4045
vn -0.5829 0.7047 0.4045
vn 0.2614 0.9480 -0.1814
vn 0.2614 0.9480 0.1814
vn -0.6373 -0.7706 0.0000
vn -0.8215 0.0000 0.5702
vn -0.8215 0.0000 -0.5702
vn 0.0000 -0.8673 -0.4978
vn 0.0000 -0.8673 0.4978
vn 0.0000 0.8673 0.4978
vn 0.0000 0.8673 -0.4978
vn -0.6373 0.7706 0.0000
vn 0.8215 0.0000 -0.5702
vn 0.8215 0.0000 0.5702
vn 0.6373 0.7706 0.0000
vn 0.5829 -0.7047 0.4045
vn 0.5829 -0.7047 -0.4045
vn -0.2614 0.9480 -0.1814
vn -0.2614 0.9480 0.1814
vn 0.6373 -0.7706 0.0000
vn -1.0000 0.0071 0.0015
vn 0.0000 0.2014 -0.9795
vn 1.0000 -0.0071 -0.0015
vn 0.0000 -0.2014 0.9795
vn 0.0000 -0.9769 -0.2135
vn 0.0000 0.9769 0.2135
vn 0.0000 -0.4299 0.9029
vn 0.0000 -0.3804 0.9248
vn 0.0000 0.3688 -0.9295
vn 0.0000 0.4193 -0.9078
vn 0.0000 0.4688 -0.8833
vn 0.0000 0.3440 -0.9390
vn 0.0000 -0.4316 0.9021
usemtl None
s off
f 15/1/1 3/2/1 31/3/1 33/4/1
f 27/5/2 5/6/2 20/7/2 7/8/2
f 4/9/2 5/6/2 27/5/2 21/10/2
f 18/11/2 71/12/2 56/13/2 4/9/2
f 14/14/2 18/11/2 4/9/2 21/10/2
f 10/15/3 1/16/3 36/17/3 39/18/3
f 42/19/4 34/20/4 32/21/4 49/22/4
f 5/6/2 58/23/2 74/24/2 20/7/2
f 17/25/5 2/26/5 51/27/5 72/28/5
f 22/29/1 3/2/1 15/1/1 12/30/1
f 73/31/3 52/32/3 1/16/3 19/33/3
f 108/34/3 45/35/3 37/36/3 109/37/3
f 19/33/3 1/16/3 10/15/3 8/38/3
f 106/39/4 42/19/4 49/40/4 116/41/4
f 51/27/5 2/26/5 41/42/5 105/43/5
f 45/44/4 46/45/4 40/46/4 37/36/4
f 3/2/1 6/47/1 47/48/1 31/3/1
f 6/47/1 11/49/1 38/50/1 47/48/1
f 13/51/5 16/52/5 2/26/5 17/25/5
f 2/26/5 16/52/5 35/53/5 41/42/5
f 23/54/4 28/55/4 88/56/4 82/57/4
f 89/58/5 30/59/5 43/60/5 107/61/5
f 1/16/3 52/32/3 110/62/3 36/17/3
f 56/13/2 58/23/2 5/6/2 4/9/2
f 6/47/1 3/2/1 22/29/1 26/63/1
f 29/64/6 25/65/6 50/66/6 44/67/6
f 24/68/3 81/69/3 117/70/3 48/71/3
f 32/21/4 46/45/4 45/44/4 49/22/4
f 7/72/7 8/73/7 9/74/7
f 12/30/8 13/75/8 14/76/8
f 23/54/9 24/68/9 25/65/9
f 28/55/10 29/64/10 30/59/10
f 33/4/11 34/77/11 35/78/11
f 38/50/12 39/79/12 40/80/12
f 43/60/13 44/67/13 45/35/13
f 48/71/14 49/22/14 50/66/14
f 27/81/15 7/82/15 9/83/15 26/63/15
f 8/84/16 10/85/16 11/49/16 9/83/16
f 16/52/17 13/51/17 12/30/17 15/1/17
f 18/86/18 14/87/18 13/51/18 17/25/18
f 20/88/19 74/89/19 73/31/19 19/33/19
f 38/50/16 11/49/16 10/85/16 39/79/16
f 71/90/18 18/86/18 17/25/18 72/28/18
f 7/72/19 20/88/19 19/33/19 8/38/19
f 14/76/15 21/91/15 22/29/15 12/30/15
f 23/54/20 82/57/20 81/69/20 24/68/20
f 30/59/21 89/58/21 88/56/21 28/55/21
f 32/92/22 34/77/22 33/4/22 31/3/22
f 37/93/20 40/94/20 39/18/20 36/17/20
f 42/95/21 106/96/21 105/43/21 41/42/21
f 109/97/20 37/93/20 36/17/20 110/62/20
f 34/98/21 42/95/21 41/42/21 35/53/21
f 48/71/20 117/70/20 116/41/20 49/40/20
f 40/80/22 46/99/22 47/48/22 38/50/22
f 45/35/21 108/34/21 107/61/21 43/60/21
f 15/1/17 33/4/17 35/53/17 16/52/17
f 29/64/23 44/67/23 43/60/23 30/59/23
f 24/68/24 48/71/24 50/66/24 25/65/24
f 21/91/15 27/81/15 26/63/15 22/29/15
f 25/65/25 29/64/25 28/55/25 23/54/25
f 46/99/22 32/92/22 31/3/22 47/48/22
f 49/22/25 45/44/25 44/67/25 50/66/25
f 9/83/1 11/49/1 6/47/1 26/63/1
f 69/100/6 95/101/6 93/102/6 55/103/6
f 87/104/2 61/105/2 78/106/2 59/107/2
f 57/108/2 79/109/2 87/104/2 59/107/2
f 76/110/2 57/108/2 56/13/2 71/12/2
f 68/111/2 79/109/2 57/108/2 76/110/2
f 64/112/3 101/113/3 98/114/3 53/115/3
f 104/116/4 119/117/4 94/118/4 96/119/4
f 59/107/2 78/106/2 74/24/2 58/23/2
f 75/120/5 72/28/5 51/27/5 54/121/5
f 80/122/6 66/123/6 69/100/6 55/103/6
f 73/31/3 77/124/3 53/115/3 52/32/3
f 108/34/3 109/37/3 99/125/3 113/126/3
f 77/124/3 62/127/3 64/112/3 53/115/3
f 106/39/4 116/41/4 119/128/4 104/116/4
f 51/27/5 105/43/5 103/129/5 54/121/5
f 113/130/4 99/125/4 102/131/4 114/132/4
f 55/103/6 93/102/6 115/133/6 60/134/6
f 60/134/6 115/133/6 100/135/6 65/136/6
f 67/137/5 75/120/5 54/121/5 70/138/5
f 54/121/5 103/129/5 97/139/5 70/138/5
f 83/140/4 82/57/4 88/56/4 90/141/4
f 89/58/5 107/61/5 111/142/5 92/143/5
f 53/115/3 98/114/3 110/62/3 52/32/3
f 56/13/2 57/108/2 59/107/2 58/23/2
f 60/134/6 86/144/6 80/122/6 55/103/6
f 91/145/1 112/146/1 120/147/1 85/148/1
f 84/149/3 118/150/3 117/70/3 81/69/3
f 94/118/4 119/117/4 113/130/4 114/132/4
f 61/151/26 63/152/26 62/153/26
f 66/123/27 68/154/27 67/155/27
f 83/140/12 85/148/12 84/149/12
f 90/141/11 92/143/11 91/145/11
f 95/101/10 97/156/10 96/157/10
f 100/135/9 102/158/9 101/159/9
f 111/142/28 113/126/28 112/146/28
f 118/150/29 120/147/29 119/117/29
f 87/160/30 86/144/30 63/161/30 61/162/30
f 62/163/24 63/161/24 65/136/24 64/164/24
f 70/138/23 69/100/23 66/123/23 67/137/23
f 76/165/18 75/120/18 67/137/18 68/166/18
f 78/167/19 77/124/19 73/31/19 74/89/19
f 100/135/24 101/159/24 64/164/24 65/136/24
f 71/90/18 72/28/18 75/120/18 76/165/18
f 61/151/19 62/127/19 77/124/19 78/167/19
f 68/154/30 66/123/30 80/122/30 79/168/30
f 83/140/20 84/149/20 81/69/20 82/57/20
f 92/143/21 90/141/21 88/56/21 89/58/21
f 94/169/25 93/102/25 95/101/25 96/157/25
f 99/170/20 98/114/20 101/113/20 102/171/20
f 104/172/21 103/129/21 105/43/21 106/96/21
f 109/97/20 110/62/20 98/114/20 99/170/20
f 96/173/21 97/139/21 103/129/21 104/172/21
f 118/150/20 119/128/20 116/41/20 117/70/20
f 102/158/25 100/135/25 115/133/25 114/174/25
f 113/126/21 111/142/21 107/61/21 108/34/21
f 69/100/23 70/138/23 97/139/23 95/101/23
f 91/145/17 92/143/17 111/142/17 112/146/17
f 84/149/16 85/148/16 120/147/16 118/150/16
f 79/168/30 80/122/30 86/144/30 87/160/30
f 85/148/22 83/140/22 90/141/22 91/145/22
f 114/174/25 115/133/25 93/102/25 94/169/25
f 119/117/22 120/147/22 112/146/22 113/130/22
f 63/161/6 86/144/6 60/134/6 65/136/6
f 121/175/31 122/176/31 124/177/31 123/178/31
f 129/179/32 130/180/32 128/181/32 127/182/32
f 127/182/33 128/181/33 126/183/33 125/184/33
f 131/185/34 132/186/34 122/187/34 121/188/34
f 129/189/35 127/182/35 125/184/35 131/190/35
f 130/191/36 124/192/36 122/193/36 132/194/36
f 128/181/36 130/191/36 132/194/36 126/183/36
f 123/195/35 129/189/35 131/190/35 121/196/35
f 125/184/34 126/183/34 132/186/34 131/185/34
f 123/178/32 124/177/32 130/180/32 129/179/32
f 132/194/37 126/183/37 133/197/37 134/198/37
f 135/199/31 136/200/31 138/201/31 137/202/31
f 143/203/32 144/204/32 142/205/32 141/206/32
f 141/206/33 142/205/33 140/207/33 139/208/33
f 145/209/34 146/210/34 136/211/34 135/212/34
f 143/213/35 141/206/35 139/208/35 145/214/35
f 144/215/36 138/216/36 136/217/36 146/218/36
f 142/205/36 144/215/36 146/218/36 140/207/36
f 137/219/35 143/213/35 145/214/35 135/220/35
f 139/208/34 140/207/34 146/210/34 145/209/34
f 137/202/32 138/201/32 144/204/32 143/203/32
f 136/217/38 146/218/38 148/221/38 147/222/38
f 149/223/31 150/224/31 152/225/31 151/226/31
f 157/227/32 158/228/32 156/229/32 155/230/32
f 155/230/33 156/229/33 154/231/33 153/232/33
f 164/233/34 162/234/34 150/235/34 149/236/34
f 157/237/35 155/230/35 153/232/35 159/238/35
f 163/239/36 152/240/36 150/241/36 162/242/36
f 156/229/36 158/243/36 160/244/36 154/231/36
f 161/245/35 157/237/35 159/238/35 164/246/35
f 153/232/34 154/231/34 160/247/34 159/248/34
f 161/249/32 163/250/32 158/228/32 157/227/32
f 151/226/32 152/225/32 163/250/32 161/249/32
f 151/251/35 161/245/35 164/246/35 149/252/35
f 158/243/36 163/239/36 162/242/36 160/244/36
f 159/248/34 160/247/34 162/234/34 164/233/34
f 160/247/39 162/234/39 166/253/39 165/254/39
f 167/255/31 168/256/31 170/257/31 169/258/31
f 175/259/32 176/260/32 174/261/32 173/262/32
f 173/262/33 174/261/33 172/263/33 171/264/33
f 182/265/34 180/266/34 168/267/34 167/268/34
f 175/269/35 173/262/35 171/264/35 177/270/35
f 181/271/36 170/272/36 168/273/36 180/274/36
f 174/261/36 176/275/36 178/276/36 172/263/36
f 179/277/35 175/269/35 177/270/35 182/278/35
f 171/264/34 172/263/34 178/279/34 177/280/34
f 179/281/32 181/282/32 176/260/32 175/259/32
f 169/258/32 170/257/32 181/282/32 179/281/32
f 169/283/35 179/277/35 182/278/35 167/284/35
f 176/275/36 181/271/36 180/274/36 178/276/36
f 177/280/34 178/279/34 180/266/34 182/265/34
f 178/279/40 180/266/40 184/285/40 183/286/40
f 185/287/31 186/288/31 188/289/31 187/290/31
f 193/291/32 194/292/32 192/293/32 191/294/32
f 191/294/33 192/293/33 190/295/33 189/296/33
f 200/297/34 198/298/34 186/299/34 185/300/34
f 193/301/35 191/294/35 189/296/35 195/302/35
f 199/303/36 188/304/36 186/305/36 198/306/36
f 192/293/36 194/307/36 196/308/36 190/295/36
f 197/309/35 193/301/35 195/302/35 200/310/35
f 189/296/34 190/295/34 196/311/34 195/312/34
f 197/313/32 199/314/32 194/292/32 193/291/32
f 187/290/32 188/289/32 199/314/32 197/313/32
f 187/315/35 197/309/35 200/310/35 185/316/35
f 194/307/36 199/303/36 198/306/36 196/308/36
f 195/312/34 196/311/34 198/298/34 200/297/34
f 196/311/41 198/298/41 202/317/41 201/318/41
f 203/319/31 204/320/31 206/321/31 205/322/31
f 217/323/32 215/324/32 210/325/32 209/326/32
f 209/326/33 210/325/33 208/327/33 207/328/33
f 213/329/34 214/330/34 204/331/34 203/332/34
f 217/333/35 209/326/35 207/328/35 216/334/35
f 212/335/36 206/336/36 204/337/36 214/338/36
f 215/339/36 212/335/36 214/338/36 218/340/36
f 205/341/35 211/342/35 213/343/35 203/344/35
f 216/345/34 218/346/34 214/330/34 213/329/34
f 205/322/32 206/321/32 212/347/32 211/348/32
f 207/328/34 208/327/34 218/346/34 216/345/34
f 210/325/36 215/339/36 218/340/36 208/327/36
f 211/342/35 217/333/35 216/334/35 213/343/35
f 211/348/32 212/347/32 215/324/32 217/323/32
f 218/346/42 214/330/42 219/349/42 220/350/42
f 221/351/31 222/352/31 224/353/31 223/354/31
f 229/355/32 230/356/32 228/357/32 227/358/32
f 227/358/33 228/357/33 226/359/33 225/360/33
f 231/361/34 232/362/34 222/363/34 221/364/34
f 229/365/35 227/358/35 225/360/35 231/366/35
f 230/367/36 224/368/36 222/369/36 232/370/36
f 228/357/36 230/367/36 232/370/36 226/359/36
f 223/371/35 229/365/35 231/366/35 221/372/35
f 225/360/34 226/359/34 232/362/34 231/361/34
f 223/354/32 224/353/32 230/356/32 229/355/32
f 232/370/43 226/359/43 233/373/43 234/374/43
