# This file uses centimeters as units for non-parametric coordinates.

mtllib placa_hospital.mtl
g default
v -0.314693 -0.515310 0.064632
v 0.314693 -0.515310 0.064632
v -0.314693 0.515310 0.064632
v 0.314693 0.515310 0.064632
v -0.314693 0.515310 -0.064632
v 0.314693 0.515310 -0.064632
v -0.314693 -0.515310 -0.064632
v 0.314693 -0.515310 -0.064632
v -0.132444 0.413274 -0.064632
v 0.132442 0.413274 -0.064632
v 0.132442 -0.413276 -0.064632
v -0.132444 -0.413276 -0.064632
v -0.132444 0.340380 -0.294251
v 0.132442 0.340380 -0.294251
v 0.132442 -0.340384 -0.294251
v -0.132444 -0.340384 -0.294251
v -0.057949 0.340380 -0.286825
v 0.057944 0.340380 -0.286825
v 0.057944 -0.340384 -0.286825
v -0.057949 -0.340384 -0.286825
v -0.057949 0.413274 -0.286823
v 0.057944 0.413274 -0.286823
v -0.057949 -0.413276 -0.286823
v 0.057944 -0.413276 -0.286823
v -0.057949 0.340380 -3.152609
v 0.057944 0.340380 -3.152609
v 0.057944 -0.340384 -3.152609
v -0.057949 -0.340384 -3.152609
v -0.057949 0.413274 -3.152607
v 0.057944 0.413274 -3.152607
v -0.057949 -0.413276 -3.152607
v 0.057944 -0.413276 -3.152607
v -0.057949 1.053990 -0.286823
v 0.057944 1.053990 -0.286823
v 0.057944 1.053990 -3.152607
v -0.057949 1.053990 -3.152607
v -0.057949 -1.053992 -0.286823
v 0.057944 -1.053992 -0.286823
v -0.057949 -1.053992 -3.152607
v 0.057944 -1.053992 -3.152607
vt 0.375000 0.000000
vt 0.625000 0.000000
vt 0.375000 0.250000
vt 0.625000 0.250000
vt 0.375000 0.500000
vt 0.625000 0.500000
vt 0.375000 0.750000
vt 0.625000 0.750000
vt 0.375000 1.000000
vt 0.625000 1.000000
vt 0.875000 0.000000
vt 0.875000 0.250000
vt 0.125000 0.000000
vt 0.125000 0.250000
vt 0.375000 0.500000
vt 0.625000 0.500000
vt 0.625000 0.750000
vt 0.375000 0.750000
vt 0.375000 0.500000
vt 0.625000 0.500000
vt 0.625000 0.750000
vt 0.375000 0.750000
vt 0.625000 0.500000
vt 0.625000 0.750000
vt 0.375000 0.750000
vt 0.375000 0.500000
vt 0.375000 0.500000
vt 0.625000 0.500000
vt 0.625000 0.750000
vt 0.375000 0.750000
vt 0.625000 0.500000
vt 0.625000 0.750000
vt 0.375000 0.750000
vt 0.375000 0.500000
vt 0.375000 0.500000
vt 0.625000 0.500000
vt 0.625000 0.750000
vt 0.375000 0.750000
vt 0.375000 0.500000
vt 0.625000 0.500000
vt 0.625000 0.500000
vt 0.375000 0.500000
vt 0.625000 0.750000
vt 0.375000 0.750000
vt 0.375000 0.750000
vt 0.625000 0.750000
vn 0.000000 0.000000 1.000000
vn 0.000000 0.000000 1.000000
vn 0.000000 0.000000 1.000000
vn 0.000000 0.000000 1.000000
vn 0.000000 1.000000 0.000000
vn 0.000000 1.000000 0.000000
vn 0.000000 1.000000 0.000000
vn 0.000000 1.000000 0.000000
vn 0.000000 0.000000 -1.000000
vn 0.000000 0.000000 -1.000000
vn 0.000000 0.000000 -1.000000
vn 0.000000 0.000000 -1.000000
vn 0.000000 -1.000000 0.000000
vn 0.000000 -1.000000 0.000000
vn 0.000000 -1.000000 0.000000
vn 0.000000 -1.000000 0.000000
vn 1.000000 0.000000 0.000000
vn 1.000000 0.000000 0.000000
vn 1.000000 0.000000 0.000000
vn 1.000000 0.000000 0.000000
vn -1.000000 0.000000 0.000000
vn -1.000000 0.000000 0.000000
vn -1.000000 0.000000 0.000000
vn -1.000000 0.000000 0.000000
vn 0.000000 0.000000 -1.000000
vn 0.000000 0.000000 -1.000000
vn 0.000000 0.000000 -1.000000
vn 0.000000 0.000000 -1.000000
vn 0.000000 0.000000 -1.000000
vn 0.000000 0.000000 -1.000000
vn 0.000000 0.000000 -1.000000
vn 0.000000 0.000000 -1.000000
vn 0.000000 0.000000 -1.000000
vn 0.000000 0.000000 -1.000000
vn 0.000000 0.000000 -1.000000
vn 0.000000 0.000000 -1.000000
vn 0.000000 0.000000 -1.000000
vn 0.000000 0.000000 -1.000000
vn 0.000000 0.000000 -1.000000
vn 0.000000 0.000000 -1.000000
vn 0.000000 0.000027 -1.000000
vn 0.000000 0.000027 -1.000000
vn 0.000000 0.000027 -1.000000
vn 0.000000 0.000027 -1.000000
vn 1.000000 0.000000 0.000000
vn 1.000000 0.000000 0.000000
vn 1.000000 0.000000 0.000000
vn 1.000000 0.000000 0.000000
vn 0.000000 -0.000027 -1.000000
vn 0.000000 -0.000027 -1.000000
vn 0.000000 -0.000027 -1.000000
vn 0.000000 -0.000027 -1.000000
vn -1.000000 0.000000 0.000000
vn -1.000000 0.000000 0.000000
vn -1.000000 0.000000 0.000000
vn -1.000000 0.000000 0.000000
vn -0.099191 0.000000 -0.995068
vn -0.099191 0.000000 -0.995068
vn -0.099191 0.000000 -0.995068
vn -0.099191 0.000000 -0.995068
vn 0.099194 0.000000 -0.995068
vn 0.099194 0.000000 -0.995068
vn 0.099194 0.000000 -0.995068
vn 0.099194 0.000000 -0.995068
vn 0.000000 1.000000 0.000000
vn 0.000000 1.000000 0.000000
vn 0.000000 1.000000 0.000000
vn 0.000000 1.000000 0.000000
vn 0.611383 0.668059 -0.424156
vn 0.611383 0.668059 -0.424156
vn 0.611383 0.668059 -0.424156
vn 0.611383 0.668059 -0.424156
vn -0.611395 0.668051 -0.424150
vn -0.611395 0.668051 -0.424150
vn -0.611395 0.668051 -0.424150
vn -0.611395 0.668051 -0.424150
vn 0.000000 -1.000000 0.000000
vn 0.000000 -1.000000 0.000000
vn 0.000000 -1.000000 0.000000
vn 0.000000 -1.000000 0.000000
vn -0.611388 -0.668061 -0.424145
vn -0.611388 -0.668061 -0.424145
vn -0.611388 -0.668061 -0.424145
vn -0.611388 -0.668061 -0.424145
vn 0.611375 -0.668069 -0.424150
vn 0.611375 -0.668069 -0.424150
vn 0.611375 -0.668069 -0.424150
vn 0.611375 -0.668069 -0.424150
vn 1.000000 0.000000 0.000000
vn 1.000000 0.000000 0.000000
vn 1.000000 0.000000 0.000000
vn 1.000000 0.000000 0.000000
vn -1.000000 0.000000 0.000000
vn -1.000000 0.000000 0.000000
vn -1.000000 0.000000 0.000000
vn -1.000000 0.000000 0.000000
vn 0.000000 1.000000 0.000000
vn 0.000000 1.000000 0.000000
vn 0.000000 1.000000 0.000000
vn 0.000000 1.000000 0.000000
vn 1.000000 0.000000 0.000000
vn 1.000000 0.000000 0.000000
vn 1.000000 0.000000 0.000000
vn 1.000000 0.000000 0.000000
vn -1.000000 0.000000 0.000000
vn -1.000000 0.000000 0.000000
vn -1.000000 0.000000 0.000000
vn -1.000000 0.000000 0.000000
vn 0.000000 -1.000000 0.000000
vn 0.000000 -1.000000 0.000000
vn 0.000000 -1.000000 0.000000
vn 0.000000 -1.000000 0.000000
vn -1.000000 0.000000 0.000000
vn -1.000000 0.000000 0.000000
vn -1.000000 0.000000 0.000000
vn -1.000000 0.000000 0.000000
vn 1.000000 0.000000 0.000000
vn 1.000000 0.000000 0.000000
vn 1.000000 0.000000 0.000000
vn 1.000000 0.000000 0.000000
vn 0.000000 0.000000 1.000000
vn 0.000000 0.000000 1.000000
vn 0.000000 0.000000 1.000000
vn 0.000000 0.000000 1.000000
vn 1.000000 0.000000 0.000000
vn 1.000000 0.000000 0.000000
vn 1.000000 0.000000 0.000000
vn 1.000000 0.000000 0.000000
vn 0.000000 0.000000 -1.000000
vn 0.000000 0.000000 -1.000000
vn 0.000000 0.000000 -1.000000
vn 0.000000 0.000000 -1.000000
vn -1.000000 0.000000 0.000000
vn -1.000000 0.000000 0.000000
vn -1.000000 0.000000 0.000000
vn -1.000000 0.000000 0.000000
vn 0.000000 0.000000 1.000000
vn 0.000000 0.000000 1.000000
vn 0.000000 0.000000 1.000000
vn 0.000000 0.000000 1.000000
vn -1.000000 0.000000 0.000000
vn -1.000000 0.000000 0.000000
vn -1.000000 0.000000 0.000000
vn -1.000000 0.000000 0.000000
vn 0.000000 0.000000 -1.000000
vn 0.000000 0.000000 -1.000000
vn 0.000000 0.000000 -1.000000
vn 0.000000 0.000000 -1.000000
vn 1.000000 0.000000 0.000000
vn 1.000000 0.000000 0.000000
vn 1.000000 0.000000 0.000000
vn 1.000000 0.000000 0.000000
s off
g pCube128
usemtl initialShadingGroup
f 1/1/1 2/2/2 4/4/3 3/3/4
f 3/3/5 4/4/6 6/6/7 5/5/8
f 25/34/9 26/31/10 27/32/11 28/33/12
f 7/7/13 8/8/14 2/10/15 1/9/16
f 2/2/17 8/11/18 6/12/19 4/4/20
f 7/13/21 1/1/22 3/3/23 5/14/24
f 5/5/25 6/6/26 10/16/27 9/15/28
f 6/6/29 8/8/30 11/17/31 10/16/32
f 8/8/33 7/7/34 12/18/35 11/17/36
f 7/7/37 5/5/38 9/15/39 12/18/40
f 29/35/41 30/36/42 26/31/43 25/34/44
f 10/16/45 11/17/46 15/21/47 14/20/48
f 32/37/49 31/38/50 28/33/51 27/32/52
f 12/18/53 9/15/54 13/19/55 16/22/56
f 14/20/57 15/21/58 19/24/59 18/23/60
f 16/22/61 13/19/62 17/26/63 20/25/64
f 9/15/65 10/16/66 22/28/67 21/27/68
f 10/16/69 14/20/70 18/23/71 22/28/72
f 13/19/73 9/15/74 21/27/75 17/26/76
f 11/17/77 12/18/78 23/30/79 24/29/80
f 12/18/81 16/22/82 20/25/83 23/30/84
f 15/21/85 11/17/86 24/29/87 19/24/88
f 18/23/89 19/24/90 27/32/91 26/31/92
f 20/25/93 17/26/94 25/34/95 28/33/96
f 33/39/97 34/40/98 35/41/99 36/42/100
f 22/28/101 18/23/102 26/31/103 30/36/104
f 17/26/105 21/27/106 29/35/107 25/34/108
f 38/43/109 37/44/110 39/45/111 40/46/112
f 23/30/113 20/25/114 28/33/115 31/38/116
f 19/24/117 24/29/118 32/37/119 27/32/120
f 21/27/121 22/28/122 34/40/123 33/39/124
f 22/28/125 30/36/126 35/41/127 34/40/128
f 30/36/129 29/35/130 36/42/131 35/41/132
f 29/35/133 21/27/134 33/39/135 36/42/136
f 24/29/137 23/30/138 37/44/139 38/43/140
f 23/30/141 31/38/142 39/45/143 37/44/144
f 31/38/145 32/37/146 40/46/147 39/45/148
f 32/37/149 24/29/150 38/43/151 40/46/152
