# This file uses centimeters as units for non-parametric coordinates.

mtllib placa_saida.mtl
g default
v -1.216153 -1.015667 0.137189
v 1.216153 -1.015667 0.137189
v -1.216153 1.015667 0.137189
v 1.216153 1.015667 0.137189
v -1.216153 1.015667 -0.137189
v 1.216153 1.015667 -0.137189
v -1.216153 -1.015667 -0.137189
v 1.216153 -1.015667 -0.137189
v 1.498273 -1.015667 -0.137189
v 1.498273 -1.015667 0.137189
v 1.498273 1.015667 -0.137189
v 1.498273 1.015667 0.137189
v -1.498275 -1.015667 -0.137189
v -1.498275 -1.015667 0.137189
v -1.498275 1.015667 0.137189
v -1.498275 1.015667 -0.137189
v 1.760880 -1.015667 -0.137189
v 1.760880 -1.015667 0.137189
v 1.760880 1.015667 -0.137189
v 1.760880 1.015667 0.137189
v -1.760882 -1.015667 -0.137189
v -1.760882 -1.015667 0.137189
v -1.760882 1.015667 0.137189
v -1.760882 1.015667 -0.137189
v 1.216153 1.565044 0.137189
v 1.216153 1.565044 -0.137189
v 1.498273 1.565044 0.137189
v 1.498273 1.565044 -0.137189
v -1.216153 1.565044 0.137189
v -1.216153 1.565044 -0.137189
v -1.498275 1.565044 -0.137189
v -1.498275 1.565044 0.137189
v 1.112344 1.683932 0.232501
v 1.112344 1.683932 -0.232501
v 1.602081 1.683932 0.232501
v 1.602081 1.683932 -0.232501
v -1.112346 1.683932 0.232501
v -1.112346 1.683932 -0.232501
v -1.602084 1.683932 -0.232501
v -1.602084 1.683932 0.232501
vt 0.375000 0.000000
vt 0.625000 0.000000
vt 0.375000 0.250000
vt 0.625000 0.250000
vt 0.375000 0.500000
vt 0.625000 0.500000
vt 0.375000 0.750000
vt 0.625000 0.750000
vt 0.375000 1.000000
vt 0.625000 1.000000
vt 0.875000 0.000000
vt 0.875000 0.250000
vt 0.125000 0.000000
vt 0.125000 0.250000
vt 0.625000 0.000000
vt 0.875000 0.000000
vt 0.875000 0.250000
vt 0.625000 0.250000
vt 0.125000 0.000000
vt 0.375000 0.000000
vt 0.375000 0.250000
vt 0.125000 0.250000
vt 0.625000 0.000000
vt 0.875000 0.000000
vt 0.875000 0.250000
vt 0.625000 0.250000
vt 0.125000 0.000000
vt 0.375000 0.000000
vt 0.375000 0.250000
vt 0.125000 0.250000
vt 0.875000 0.250000
vt 0.625000 0.250000
vt 0.625000 0.250000
vt 0.875000 0.250000
vt 0.375000 0.250000
vt 0.125000 0.250000
vt 0.125000 0.250000
vt 0.375000 0.250000
vt 0.875000 0.250000
vt 0.625000 0.250000
vt 0.625000 0.250000
vt 0.875000 0.250000
vt 0.375000 0.250000
vt 0.125000 0.250000
vt 0.125000 0.250000
vt 0.375000 0.250000
vn 0.000000 0.000000 1.000000
vn 0.000000 0.000000 1.000000
vn 0.000000 0.000000 1.000000
vn 0.000000 0.000000 1.000000
vn 0.000000 1.000000 0.000000
vn 0.000000 1.000000 0.000000
vn 0.000000 1.000000 0.000000
vn 0.000000 1.000000 0.000000
vn 0.000000 0.000000 -1.000000
vn 0.000000 0.000000 -1.000000
vn 0.000000 0.000000 -1.000000
vn 0.000000 0.000000 -1.000000
vn 0.000000 -1.000000 0.000000
vn 0.000000 -1.000000 0.000000
vn 0.000000 -1.000000 0.000000
vn 0.000000 -1.000000 0.000000
vn 1.000000 0.000000 0.000000
vn 1.000000 0.000000 0.000000
vn 1.000000 0.000000 0.000000
vn 1.000000 0.000000 0.000000
vn -1.000000 0.000000 0.000000
vn -1.000000 0.000000 0.000000
vn -1.000000 0.000000 0.000000
vn -1.000000 0.000000 0.000000
vn 0.000000 -1.000000 0.000000
vn 0.000000 -1.000000 0.000000
vn 0.000000 -1.000000 0.000000
vn 0.000000 -1.000000 0.000000
vn 0.000000 0.000000 -1.000000
vn 0.000000 0.000000 -1.000000
vn 0.000000 0.000000 -1.000000
vn 0.000000 0.000000 -1.000000
vn 0.000000 1.000000 0.000000
vn 0.000000 1.000000 0.000000
vn 0.000000 1.000000 0.000000
vn 0.000000 1.000000 0.000000
vn 0.000000 0.000000 1.000000
vn 0.000000 0.000000 1.000000
vn 0.000000 0.000000 1.000000
vn 0.000000 0.000000 1.000000
vn 0.000000 -1.000000 0.000000
vn 0.000000 -1.000000 0.000000
vn 0.000000 -1.000000 0.000000
vn 0.000000 -1.000000 0.000000
vn 0.000000 0.000000 1.000000
vn 0.000000 0.000000 1.000000
vn 0.000000 0.000000 1.000000
vn 0.000000 0.000000 1.000000
vn 0.000000 1.000000 0.000000
vn 0.000000 1.000000 0.000000
vn 0.000000 1.000000 0.000000
vn 0.000000 1.000000 0.000000
vn 0.000000 0.000000 -1.000000
vn 0.000000 0.000000 -1.000000
vn 0.000000 0.000000 -1.000000
vn 0.000000 0.000000 -1.000000
vn 0.000000 -1.000000 0.000000
vn 0.000000 -1.000000 0.000000
vn 0.000000 -1.000000 0.000000
vn 0.000000 -1.000000 0.000000
vn 0.000000 0.000000 -1.000000
vn 0.000000 0.000000 -1.000000
vn 0.000000 0.000000 -1.000000
vn 0.000000 0.000000 -1.000000
vn 0.000000 1.000000 0.000000
vn 0.000000 1.000000 0.000000
vn 0.000000 1.000000 0.000000
vn 0.000000 1.000000 0.000000
vn 0.000000 0.000000 1.000000
vn 0.000000 0.000000 1.000000
vn 0.000000 0.000000 1.000000
vn 0.000000 0.000000 1.000000
vn 0.000000 -1.000000 0.000000
vn 0.000000 -1.000000 0.000000
vn 0.000000 -1.000000 0.000000
vn 0.000000 -1.000000 0.000000
vn 0.000000 0.000000 1.000000
vn 0.000000 0.000000 1.000000
vn 0.000000 0.000000 1.000000
vn 0.000000 0.000000 1.000000
vn 0.000000 1.000000 0.000000
vn 0.000000 1.000000 0.000000
vn 0.000000 1.000000 0.000000
vn 0.000000 1.000000 0.000000
vn 0.000000 0.000000 -1.000000
vn 0.000000 0.000000 -1.000000
vn 0.000000 0.000000 -1.000000
vn 0.000000 0.000000 -1.000000
vn -1.000000 0.000000 0.000000
vn -1.000000 0.000000 0.000000
vn -1.000000 0.000000 0.000000
vn -1.000000 0.000000 0.000000
vn 0.000000 0.000000 1.000000
vn 0.000000 0.000000 1.000000
vn 0.000000 0.000000 1.000000
vn 0.000000 0.000000 1.000000
vn 1.000000 0.000000 0.000000
vn 1.000000 0.000000 0.000000
vn 1.000000 0.000000 0.000000
vn 1.000000 0.000000 0.000000
vn 0.000000 0.000000 -1.000000
vn 0.000000 0.000000 -1.000000
vn 0.000000 0.000000 -1.000000
vn 0.000000 0.000000 -1.000000
vn 1.000000 0.000000 0.000000
vn 1.000000 0.000000 0.000000
vn 1.000000 0.000000 0.000000
vn 1.000000 0.000000 0.000000
vn 0.000000 0.000000 -1.000000
vn 0.000000 0.000000 -1.000000
vn 0.000000 0.000000 -1.000000
vn 0.000000 0.000000 -1.000000
vn -1.000000 0.000000 0.000000
vn -1.000000 0.000000 0.000000
vn -1.000000 0.000000 0.000000
vn -1.000000 0.000000 0.000000
vn 0.000000 0.000000 1.000000
vn 0.000000 0.000000 1.000000
vn 0.000000 0.000000 1.000000
vn 0.000000 0.000000 1.000000
vn -0.753262 -0.657721 0.000000
vn -0.753262 -0.657721 0.000000
vn -0.753262 -0.657721 0.000000
vn -0.753262 -0.657721 0.000000
vn 0.000000 -0.625504 0.780221
vn 0.000000 -0.625504 0.780221
vn 0.000000 -0.625504 0.780221
vn 0.000000 -0.625503 0.780221
vn 0.753265 -0.657717 0.000000
vn 0.753265 -0.657717 0.000000
vn 0.753265 -0.657717 0.000000
vn 0.753265 -0.657717 0.000000
vn 0.000000 -0.625504 -0.780221
vn 0.000000 -0.625504 -0.780221
vn 0.000000 -0.625503 -0.780221
vn 0.000000 -0.625504 -0.780221
vn 0.753265 -0.657717 0.000000
vn 0.753265 -0.657717 0.000000
vn 0.753265 -0.657717 0.000000
vn 0.753265 -0.657717 0.000000
vn 0.000000 -0.625504 -0.780221
vn 0.000000 -0.625504 -0.780221
vn 0.000000 -0.625504 -0.780221
vn 0.000000 -0.625504 -0.780221
vn -0.753260 -0.657723 0.000000
vn -0.753260 -0.657723 0.000000
vn -0.753260 -0.657723 0.000000
vn -0.753260 -0.657723 0.000000
vn 0.000000 -0.625503 0.780221
vn 0.000000 -0.625503 0.780221
vn 0.000000 -0.625503 0.780221
vn 0.000000 -0.625503 0.780221
s off
g pCube188
usemtl initialShadingGroup
f 1/1/1 2/2/2 4/4/3 3/3/4
f 3/3/5 4/4/6 6/6/7 5/5/8
f 5/5/9 6/6/10 8/8/11 7/7/12
f 7/7/13 8/8/14 2/10/15 1/9/16
f 18/23/17 17/24/18 19/25/19 20/26/20
f 21/27/21 22/28/22 23/29/23 24/30/24
f 2/2/25 8/11/26 9/16/27 10/15/28
f 8/11/29 6/12/30 11/17/31 9/16/32
f 34/31/33 33/32/34 35/33/35 36/34/36
f 4/4/37 2/2/38 10/15/39 12/18/40
f 7/13/41 1/1/42 14/20/43 13/19/44
f 1/1/45 3/3/46 15/21/47 14/20/48
f 37/43/49 38/44/50 39/45/51 40/46/52
f 5/14/53 7/13/54 13/19/55 16/22/56
f 10/15/57 9/16/58 17/24/59 18/23/60
f 9/16/61 11/17/62 19/25/63 17/24/64
f 11/17/65 12/18/66 20/26/67 19/25/68
f 12/18/69 10/15/70 18/23/71 20/26/72
f 13/19/73 14/20/74 22/28/75 21/27/76
f 14/20/77 15/21/78 23/29/79 22/28/80
f 15/21/81 16/22/82 24/30/83 23/29/84
f 16/22/85 13/19/86 21/27/87 24/30/88
f 6/12/89 4/4/90 25/32/91 26/31/92
f 4/4/93 12/18/94 27/33/95 25/32/96
f 12/18/97 11/17/98 28/34/99 27/33/100
f 11/17/101 6/12/102 26/31/103 28/34/104
f 3/3/105 5/14/106 30/36/107 29/35/108
f 5/14/109 16/22/110 31/37/111 30/36/112
f 16/22/113 15/21/114 32/38/115 31/37/116
f 15/21/117 3/3/118 29/35/119 32/38/120
f 26/31/121 25/32/122 33/40/123 34/39/124
f 25/32/125 27/33/126 35/41/127 33/40/128
f 27/33/129 28/34/130 36/42/131 35/41/132
f 28/34/133 26/31/134 34/39/135 36/42/136
f 29/35/137 30/36/138 38/44/139 37/43/140
f 30/36/141 31/37/142 39/45/143 38/44/144
f 31/37/145 32/38/146 40/46/147 39/45/148
f 32/38/149 29/35/150 37/43/151 40/46/152
