# This file uses centimeters as units for non-parametric coordinates.

mtllib Tv de metro.mtl
g default
v -3.583248 -2.277700 0.205060
v -3.583248 -2.141016 0.341744
v -3.719932 -2.141016 0.205060
v 3.719932 -2.141016 0.205060
v 3.583248 -2.141016 0.341744
v 3.583248 -2.277700 0.205060
v -3.719932 2.141016 0.205060
v -3.583248 2.141016 0.341744
v -3.583248 2.277700 0.205060
v 3.583248 2.277700 0.205060
v 3.583248 2.141016 0.341744
v 3.719932 2.141016 0.205060
v -3.719932 2.141016 -0.205060
v -3.583248 2.277700 -0.205060
v -3.583248 2.141016 -0.341744
v 3.583248 2.141016 -0.341744
v 3.583248 2.277700 -0.205060
v 3.719932 2.141016 -0.205060
v -3.719932 -2.141016 -0.205060
v -3.583248 -2.141016 -0.341744
v -3.583248 -2.277700 -0.205060
v 3.583248 -2.277700 -0.205060
v 3.583248 -2.141016 -0.341744
v 3.719932 -2.141016 -0.205060
v 3.183248 -1.741017 0.341744
v -3.183248 -1.741017 0.341744
v 3.183248 1.741017 0.341744
v -3.183248 1.741017 0.341744
v 3.183248 -1.741017 0.066799
v -3.183248 -1.741017 0.066799
v 3.183248 1.741017 0.066799
v -3.183248 1.741017 0.066799
v 2.202714 0.760482 -0.679144
v 3.133203 1.690971 -0.510461
v -3.133203 1.690971 -0.510461
v -2.202714 0.760482 -0.679144
v 2.202714 -0.760482 -0.679144
v 3.133203 -1.690971 -0.510461
v -2.202714 -0.760482 -0.679144
v -3.133203 -1.690971 -0.510461
vt 0.379593 0.950005
vt 0.375000 0.950005
vt 0.375000 0.799995
vt 0.379593 0.799995
vt 0.379593 0.007501
vt 0.379593 0.000000
vt 0.620407 0.000000
vt 0.620407 0.007501
vt 0.325005 0.007501
vt 0.379593 0.242499
vt 0.325005 0.242499
vt 0.625000 0.950005
vt 0.620407 0.950005
vt 0.620407 0.799995
vt 0.625000 0.799995
vt 0.674995 0.007501
vt 0.674995 0.242499
vt 0.620407 0.242499
vt 0.375000 0.299995
vt 0.379593 0.299995
vt 0.379593 0.450005
vt 0.375000 0.450005
vt 0.620407 0.299995
vt 0.625000 0.299995
vt 0.625000 0.450005
vt 0.620407 0.450005
vt 0.375000 0.507501
vt 0.379593 0.507501
vt 0.379593 0.742499
vt 0.375000 0.742499
vt 0.620407 0.507501
vt 0.625000 0.507501
vt 0.625000 0.742499
vt 0.620407 0.742499
vt 0.379593 0.007501
vt 0.620407 0.007501
vt 0.620407 0.242499
vt 0.379593 0.242499
vt 0.825005 0.007501
vt 0.825005 0.242499
vt 0.174995 0.007501
vt 0.174995 0.242499
vt 0.620407 0.007501
vt 0.379593 0.007501
vt 0.620407 0.242499
vt 0.379593 0.242499
vt 0.598844 0.552998
vt 0.620407 0.507501
vt 0.620407 0.742499
vt 0.598844 0.697002
vt 0.401156 0.552998
vt 0.379593 0.507501
vt 0.401156 0.697002
vt 0.379593 0.742499
vn -0.707106 -0.707107 0.000000
vn -0.707106 -0.707107 0.000000
vn -0.707106 -0.707107 0.000000
vn -0.707106 -0.707107 0.000000
vn 0.000000 -0.707107 0.707107
vn 0.000000 -0.707107 0.707107
vn 0.000000 -0.707107 0.707107
vn 0.000000 -0.707107 0.707107
vn -0.707107 0.000000 0.707107
vn -0.707107 0.000000 0.707107
vn -0.707107 0.000000 0.707107
vn -0.707107 0.000000 0.707107
vn 0.707106 -0.707107 0.000000
vn 0.707106 -0.707107 0.000000
vn 0.707106 -0.707107 0.000000
vn 0.707106 -0.707107 0.000000
vn 0.707107 0.000000 0.707107
vn 0.707107 0.000000 0.707107
vn 0.707107 0.000000 0.707107
vn 0.707107 0.000000 0.707107
vn -0.707106 0.707107 0.000000
vn -0.707106 0.707107 0.000000
vn -0.707106 0.707107 0.000000
vn -0.707106 0.707107 0.000000
vn 0.000000 0.707107 0.707107
vn 0.000000 0.707107 0.707107
vn 0.000000 0.707107 0.707107
vn 0.000000 0.707107 0.707107
vn 0.707106 0.707107 0.000000
vn 0.707106 0.707107 0.000000
vn 0.707106 0.707107 0.000000
vn 0.707106 0.707107 0.000000
vn -0.707107 0.000000 -0.707107
vn -0.182567 0.330104 -0.926121
vn -0.182567 -0.330104 -0.926121
vn -0.707107 0.000000 -0.707107
vn -0.182567 0.330104 -0.926121
vn 0.000000 0.707107 -0.707107
vn 0.000000 0.707107 -0.707107
vn 0.182567 0.330104 -0.926121
vn 0.182567 0.330104 -0.926121
vn 0.707107 0.000000 -0.707107
vn 0.707107 0.000000 -0.707107
vn 0.182567 -0.330104 -0.926121
vn 0.000000 -0.707107 -0.707107
vn -0.182567 -0.330104 -0.926121
vn 0.182567 -0.330104 -0.926121
vn 0.000000 -0.707107 -0.707107
vn 0.000000 0.000000 1.000000
vn 0.000000 0.000000 1.000000
vn 0.000000 0.000000 1.000000
vn 0.000000 0.000000 1.000000
vn 0.000000 1.000000 0.000000
vn 0.000000 1.000000 0.000000
vn 0.000000 1.000000 0.000000
vn 0.000000 1.000000 0.000000
vn 0.000000 -1.000000 0.000000
vn 0.000000 -1.000000 0.000000
vn 0.000000 -1.000000 0.000000
vn 0.000000 -1.000000 0.000000
vn 1.000000 0.000000 0.000000
vn 1.000000 0.000000 0.000000
vn 1.000000 0.000000 0.000000
vn 1.000000 0.000000 0.000000
vn -1.000000 0.000000 0.000000
vn -1.000000 0.000000 0.000000
vn -1.000000 0.000000 0.000000
vn -1.000000 0.000000 0.000000
vn -0.577351 -0.577351 0.577350
vn -0.577351 -0.577351 0.577350
vn -0.577351 -0.577351 0.577350
vn 0.577351 -0.577351 0.577350
vn 0.577351 -0.577351 0.577350
vn 0.577351 -0.577351 0.577350
vn -0.577351 0.577351 0.577350
vn -0.577351 0.577351 0.577350
vn -0.577351 0.577351 0.577350
vn 0.577351 0.577351 0.577350
vn 0.577351 0.577351 0.577350
vn 0.577351 0.577351 0.577350
vn -0.577351 0.577351 -0.577350
vn -0.577351 0.577351 -0.577350
vn -0.577351 0.577351 -0.577350
vn 0.577351 0.577351 -0.577350
vn 0.577351 0.577351 -0.577350
vn 0.577351 0.577351 -0.577350
vn -0.577351 -0.577351 -0.577350
vn -0.577351 -0.577351 -0.577350
vn -0.577351 -0.577351 -0.577350
vn 0.577351 -0.577351 -0.577350
vn 0.577351 -0.577351 -0.577350
vn 0.577351 -0.577351 -0.577350
vn 0.000000 0.000000 1.000000
vn 0.000000 0.000000 1.000000
vn 0.000000 0.000000 1.000000
vn 0.000000 0.000000 1.000000
vn 0.000000 0.000000 1.000000
vn 0.000000 0.000000 1.000000
vn 0.000000 0.000000 1.000000
vn 0.000000 0.000000 1.000000
vn 0.000000 0.000000 1.000000
vn 0.000000 0.000000 1.000000
vn 0.000000 0.000000 1.000000
vn 0.000000 0.000000 1.000000
vn 0.000000 0.000000 1.000000
vn 0.000000 0.000000 1.000000
vn 0.000000 0.000000 1.000000
vn 0.000000 0.000000 1.000000
vn 0.000000 1.000000 0.000000
vn 0.000000 1.000000 0.000000
vn 0.000000 1.000000 0.000000
vn 0.000000 1.000000 0.000000
vn -1.000000 0.000000 0.000000
vn -1.000000 0.000000 0.000000
vn -1.000000 0.000000 0.000000
vn -1.000000 0.000000 0.000000
vn 0.000000 -1.000000 0.000000
vn 0.000000 -1.000000 0.000000
vn 0.000000 -1.000000 0.000000
vn 0.000000 -1.000000 0.000000
vn 1.000000 0.000000 0.000000
vn 1.000000 0.000000 0.000000
vn 1.000000 0.000000 0.000000
vn 1.000000 0.000000 0.000000
vn 0.036093 0.069171 -0.996952
vn 0.095347 0.180745 -0.978897
vn 0.095347 -0.180745 -0.978897
vn 0.036093 -0.069171 -0.996952
vn 0.095347 0.180745 -0.978897
vn 0.036093 0.069171 -0.996952
vn -0.036093 0.069171 -0.996952
vn -0.095347 0.180745 -0.978897
vn -0.095347 0.180745 -0.978897
vn -0.036093 0.069171 -0.996952
vn -0.036093 -0.069171 -0.996952
vn -0.095347 -0.180745 -0.978897
vn 0.036093 -0.069171 -0.996952
vn 0.095347 -0.180745 -0.978897
vn -0.095347 -0.180745 -0.978897
vn -0.036093 -0.069171 -0.996952
vn -0.036093 0.069171 -0.996952
vn 0.036093 0.069171 -0.996952
vn 0.036093 -0.069171 -0.996952
vn -0.036093 -0.069171 -0.996952
vn -0.182567 0.330104 -0.926121
vn 0.182567 0.330104 -0.926121
vn 0.095347 0.180745 -0.978897
vn -0.095347 0.180745 -0.978897
vn 0.182567 0.330104 -0.926121
vn 0.182567 -0.330104 -0.926121
vn 0.095347 -0.180745 -0.978897
vn 0.095347 0.180745 -0.978897
vn 0.182567 -0.330104 -0.926121
vn -0.182567 -0.330104 -0.926121
vn -0.095347 -0.180745 -0.978897
vn 0.095347 -0.180745 -0.978897
vn -0.182567 -0.330104 -0.926121
vn -0.182567 0.330104 -0.926121
vn -0.095347 0.180745 -0.978897
vn -0.095347 -0.180745 -0.978897
s off
g pCube1
usemtl initialShadingGroup
f 1/1/1 3/2/2 19/3/3 21/4/4
f 2/5/5 1/6/6 6/7/7 5/8/8
f 3/9/9 2/5/10 8/10/11 7/11/12
f 4/12/13 6/13/14 22/14/15 24/15/16
f 5/8/17 4/16/18 12/17/19 11/18/20
f 7/19/21 9/20/22 14/21/23 13/22/24
f 9/20/25 8/10/26 11/18/27 10/23/28
f 10/23/29 12/24/30 18/25/31 17/26/32
f 13/27/33 15/28/34 20/29/35 19/30/36
f 15/28/37 14/21/38 17/26/39 16/31/40
f 16/31/41 18/32/42 24/33/43 23/34/44
f 21/4/45 20/29/46 23/34/47 22/14/48
f 30/35/49 29/36/50 31/37/51 32/38/52
f 9/20/53 10/23/54 17/26/55 14/21/56
f 21/4/57 22/14/58 6/13/59 1/1/60
f 4/16/61 24/39/62 18/40/63 12/17/64
f 19/41/65 3/9/66 7/11/67 13/42/68
f 1/6/69 2/5/70 3/9/71
f 4/16/72 5/8/73 6/7/74
f 7/11/75 8/10/76 9/20/77
f 10/23/78 11/18/79 12/17/80
f 13/22/81 14/21/82 15/28/83
f 16/31/84 17/26/85 18/25/86
f 19/30/87 20/29/88 21/4/89
f 22/14/90 23/34/91 24/33/92
f 2/5/93 5/8/94 25/43/95 26/44/96
f 5/8/97 11/18/98 27/45/99 25/43/100
f 11/18/101 8/10/102 28/46/103 27/45/104
f 8/10/105 2/5/106 26/44/107 28/46/108
f 26/44/109 25/43/110 29/36/111 30/35/112
f 25/43/113 27/45/114 31/37/115 29/36/116
f 27/45/117 28/46/118 32/38/119 31/37/120
f 28/46/121 26/44/122 30/35/123 32/38/124
f 33/47/125 34/48/126 38/49/127 37/50/128
f 34/48/129 33/47/130 36/51/131 35/52/132
f 35/52/133 36/51/134 39/53/135 40/54/136
f 37/50/137 38/49/138 40/54/139 39/53/140
f 36/51/141 33/47/142 37/50/143 39/53/144
f 15/28/145 16/31/146 34/48/147 35/52/148
f 16/31/149 23/34/150 38/49/151 34/48/152
f 23/34/153 20/29/154 40/54/155 38/49/156
f 20/29/157 15/28/158 35/52/159 40/54/160
