# Blender v2.92.0 OBJ File: 'assets2.2.blend'
# www.blender.org
mtllib Cadeira.mtl
o Cube.039_Cube.048
v 3.256222 3.315987 34.455391
v 3.256222 3.379128 34.518532
v 3.193081 3.379128 34.455391
v 3.256222 8.570244 34.518532
v 3.256222 8.633385 34.455391
v 3.193081 8.570244 34.455391
v 3.256222 3.315987 33.858704
v 3.193081 3.379128 33.858704
v 3.256222 3.379128 33.795563
v 3.256222 8.633385 33.858704
v 3.256222 8.570244 33.795563
v 3.193081 8.570244 33.858704
v 3.852909 3.315987 34.455391
v 3.916050 3.379128 34.455391
v 3.852909 3.379128 34.518532
v 3.852909 8.633385 34.455391
v 3.852909 8.570244 34.518532
v 3.916050 8.570244 34.455391
v 3.852909 3.315987 33.858704
v 3.852909 3.379128 33.795563
v 3.916050 3.379128 33.858704
v 3.852909 8.633385 33.858704
v 3.916050 8.570244 33.858704
v 3.852909 8.570244 33.795563
v 3.256222 3.315987 39.179203
v 3.256222 3.379128 39.242344
v 3.193081 3.379128 39.179203
v 3.256222 8.570244 39.242344
v 3.256222 8.633385 39.179203
v 3.193081 8.570244 39.179203
v 3.256222 3.315987 38.582516
v 3.193081 3.379128 38.582516
v 3.256222 3.379128 38.519375
v 3.256222 8.633385 38.582516
v 3.256222 8.570244 38.519375
v 3.193081 8.570244 38.582516
v 3.852909 3.315987 39.179203
v 3.916050 3.379128 39.179203
v 3.852909 3.379128 39.242344
v 3.852909 8.633385 39.179203
v 3.852909 8.570244 39.242344
v 3.916050 8.570244 39.179203
v 3.852909 3.315987 38.582516
v 3.852909 3.379128 38.519375
v 3.916050 3.379128 38.582516
v 3.852909 8.633385 38.582516
v 3.916050 8.570244 38.582516
v 3.852909 8.570244 38.519375
v 7.979720 3.315987 39.179203
v 7.979720 3.379128 39.242344
v 7.916579 3.379128 39.179203
v 7.979720 8.570244 39.242344
v 7.979720 8.633385 39.179203
v 7.916579 8.570244 39.179203
v 7.979720 3.315987 38.582516
v 7.916579 3.379128 38.582516
v 7.979720 3.379128 38.519375
v 7.979720 8.633385 38.582516
v 7.979720 8.570244 38.519375
v 7.916579 8.570244 38.582516
v 8.576406 3.315987 39.179203
v 8.639548 3.379128 39.179203
v 8.576406 3.379128 39.242344
v 8.576406 8.633385 39.179203
v 8.576406 8.570244 39.242344
v 8.639548 8.570244 39.179203
v 8.576406 3.315987 38.582516
v 8.576406 3.379128 38.519375
v 8.639548 3.379128 38.582516
v 8.576406 8.633385 38.582516
v 8.639548 8.570244 38.582516
v 8.576406 8.570244 38.519375
v 7.979720 3.315987 34.455391
v 7.979720 3.379128 34.518532
v 7.916579 3.379128 34.455391
v 7.979720 8.570244 34.518532
v 7.979720 8.633385 34.455391
v 7.916579 8.570244 34.455391
v 7.979720 3.315987 33.858704
v 7.916579 3.379128 33.858704
v 7.979720 3.379128 33.795563
v 7.979720 8.633385 33.858704
v 7.979720 8.570244 33.795563
v 7.916579 8.570244 33.858704
v 8.576406 3.315987 34.455391
v 8.639548 3.379128 34.455391
v 8.576406 3.379128 34.518532
v 8.576406 8.633385 34.455391
v 8.576406 8.570244 34.518532
v 8.639548 8.570244 34.455391
v 8.576406 3.315987 33.858704
v 8.576406 3.379128 33.795563
v 8.639548 3.379128 33.858704
v 8.576406 8.633385 33.858704
v 8.639548 8.570244 33.858704
v 8.576406 8.570244 33.795563
v 2.773276 8.463441 39.983109
v 8.989681 8.463441 39.983109
v 2.773276 8.463441 34.339596
v 8.989681 8.463441 34.339596
v 2.773276 9.100210 39.983109
v 8.989681 9.100210 39.983109
v 8.989681 9.100210 34.339596
v 2.773276 9.100210 34.339596
v 2.773276 9.326843 39.983109
v 8.989681 9.326843 39.983109
v 8.989681 9.614612 39.759510
v 2.773276 8.463441 33.473595
v 2.961498 8.463441 33.285370
v 2.961498 9.736979 33.285370
v 2.773276 9.736979 33.473595
v 8.801459 8.463441 33.285370
v 8.989681 8.463441 33.473595
v 8.989681 9.736979 33.473595
v 8.801459 9.736979 33.285370
v 2.773276 9.548757 34.151375
v 2.961498 9.736979 34.339596
v 8.801459 9.736979 34.339596
v 8.989681 9.548757 34.151375
v 2.810920 15.448884 34.139454
v 2.978311 15.448884 34.321053
v 2.961498 15.669872 34.151375
v 2.810920 15.448884 33.485516
v 2.961498 15.669872 33.473595
v 2.966843 15.448884 33.303913
v 8.796115 15.448884 33.303913
v 8.801459 15.669872 33.473595
v 8.952038 14.509481 33.485516
v 8.952038 15.448884 34.139454
v 8.801459 15.669872 34.151375
v 8.784646 15.448884 34.321053
v 2.773276 9.100210 33.473595
v 2.961498 9.100210 33.285370
v 8.801459 9.100210 33.285370
v 8.989681 9.100210 33.473595
v 2.961498 9.736979 39.491665
v 2.773276 9.614612 39.759510
v 8.801459 9.736979 39.491665
v 8.801459 15.275757 33.285370
v 8.989681 14.336351 33.473595
v 8.801459 15.275757 34.339596
v 8.989681 15.267691 34.151375
v 2.961498 15.275757 34.339596
v 2.773276 15.267691 34.151375
v 2.961498 15.275757 33.285370
v 2.773276 15.275757 33.473595
vt 0.377969 0.771834
vt 0.622031 0.771834
vt 0.622031 0.978166
vt 0.377969 0.978166
vt 0.377969 0.521834
vt 0.622031 0.521834
vt 0.622031 0.728166
vt 0.377969 0.728166
vt 0.146834 0.521834
vt 0.353166 0.521834
vt 0.353166 0.728166
vt 0.146834 0.728166
vt 0.646834 0.521834
vt 0.853166 0.521834
vt 0.853166 0.728166
vt 0.646834 0.728166
vt 0.377969 0.021834
vt 0.622031 0.021834
vt 0.622031 0.228166
vt 0.377969 0.228166
vt 0.377969 0.271834
vt 0.622031 0.271834
vt 0.622031 0.478166
vt 0.377969 0.478166
vt 0.377969 0.771834
vt 0.622031 0.771834
vt 0.622031 0.978166
vt 0.377969 0.978166
vt 0.377969 0.521834
vt 0.622031 0.521834
vt 0.622031 0.728166
vt 0.377969 0.728166
vt 0.146834 0.521834
vt 0.353166 0.521834
vt 0.353166 0.728166
vt 0.146834 0.728166
vt 0.646834 0.521834
vt 0.853166 0.521834
vt 0.853166 0.728166
vt 0.646834 0.728166
vt 0.377969 0.021834
vt 0.622031 0.021834
vt 0.622031 0.228166
vt 0.377969 0.228166
vt 0.377969 0.271834
vt 0.622031 0.271834
vt 0.622031 0.478166
vt 0.377969 0.478166
vt 0.377969 0.771834
vt 0.622031 0.771834
vt 0.622031 0.978166
vt 0.377969 0.978166
vt 0.377969 0.521834
vt 0.622031 0.521834
vt 0.622031 0.728166
vt 0.377969 0.728166
vt 0.146834 0.521834
vt 0.353166 0.521834
vt 0.353166 0.728166
vt 0.146834 0.728166
vt 0.646834 0.521834
vt 0.853166 0.521834
vt 0.853166 0.728166
vt 0.646834 0.728166
vt 0.377969 0.021834
vt 0.622031 0.021834
vt 0.622031 0.228166
vt 0.377969 0.228166
vt 0.377969 0.271834
vt 0.622031 0.271834
vt 0.622031 0.478166
vt 0.377969 0.478166
vt 0.377969 0.771834
vt 0.622031 0.771834
vt 0.622031 0.978166
vt 0.377969 0.978166
vt 0.377969 0.521834
vt 0.622031 0.521834
vt 0.622031 0.728166
vt 0.377969 0.728166
vt 0.646834 0.521834
vt 0.853166 0.521834
vt 0.853166 0.728166
vt 0.646834 0.728166
vt 0.377969 0.021834
vt 0.622031 0.021834
vt 0.622031 0.228166
vt 0.377969 0.228166
vt 0.377969 0.271834
vt 0.622031 0.271834
vt 0.622031 0.478166
vt 0.377969 0.478166
vt 0.146834 0.728166
vt 0.146834 0.750000
vt 0.125000 0.728166
vt 0.625000 0.978166
vt 0.622031 1.000000
vt 0.146834 0.521834
vt 0.125000 0.521834
vt 0.146834 0.500000
vt 0.625000 0.271834
vt 0.625000 0.271834
vt 0.622031 0.250000
vt 0.353166 0.728166
vt 0.375000 0.728166
vt 0.353166 0.750000
vt 0.625000 0.771834
vt 0.625000 0.771834
vt 0.622031 0.750000
vt 0.353166 0.521834
vt 0.353166 0.500000
vt 0.375000 0.521834
vt 0.625000 0.521834
vt 0.622031 0.500000
vt 0.622031 0.500000
vt 0.146834 0.750000
vt 0.125000 0.728166
vt 0.625000 0.978166
vt 0.622031 1.000000
vt 0.125000 0.521834
vt 0.146834 0.500000
vt 0.625000 0.271834
vt 0.625000 0.271834
vt 0.622031 0.250000
vt 0.375000 0.728166
vt 0.353166 0.750000
vt 0.625000 0.771834
vt 0.625000 0.771834
vt 0.622031 0.750000
vt 0.353166 0.500000
vt 0.375000 0.521834
vt 0.625000 0.521834
vt 0.622031 0.500000
vt 0.622031 0.500000
vt 0.146834 0.750000
vt 0.125000 0.728166
vt 0.625000 0.978166
vt 0.622031 1.000000
vt 0.125000 0.521834
vt 0.146834 0.500000
vt 0.625000 0.271834
vt 0.622031 0.250000
vt 0.622031 0.250000
vt 0.375000 0.728166
vt 0.353166 0.750000
vt 0.625000 0.771834
vt 0.622031 0.750000
vt 0.622031 0.750000
vt 0.353166 0.500000
vt 0.375000 0.521834
vt 0.625000 0.521834
vt 0.622031 0.500000
vt 0.622031 0.500000
vt 0.146834 0.750000
vt 0.125000 0.728166
vt 0.625000 0.978166
vt 0.622031 1.000000
vt 0.125000 0.521834
vt 0.146834 0.500000
vt 0.625000 0.271834
vt 0.622031 0.250000
vt 0.622031 0.250000
vt 0.375000 0.728166
vt 0.353166 0.750000
vt 0.625000 0.771834
vt 0.622031 0.750000
vt 0.622031 0.750000
vt 0.353166 0.500000
vt 0.375000 0.521834
vt 0.625000 0.521834
vt 0.622031 0.500000
vt 0.622031 0.500000
vt 0.377969 0.000000
vt 0.622031 0.000000
vt 0.625000 0.021834
vt 0.625000 0.228166
vt 0.625000 0.478166
vt 0.377969 0.000000
vt 0.622031 0.000000
vt 0.625000 0.021834
vt 0.625000 0.228166
vt 0.625000 0.478166
vt 0.377969 0.000000
vt 0.622031 0.000000
vt 0.625000 0.021834
vt 0.625000 0.228166
vt 0.625000 0.478166
vt 0.377969 0.000000
vt 0.622031 0.000000
vt 0.625000 0.021834
vt 0.625000 0.228166
vt 0.625000 0.478166
vt 0.375000 0.506857
vt 0.500000 0.506857
vt 0.500000 0.538403
vt 0.375000 0.538403
vt 0.625000 0.492430
vt 0.625000 0.257570
vt 0.625000 0.257570
vt 0.625000 0.492430
vt 0.632570 0.506857
vt 0.867430 0.506857
vt 0.867430 0.531546
vt 0.632570 0.531547
vt 0.125000 0.538403
vt 0.375000 0.750000
vt 0.125000 0.750000
vt 0.632570 0.538403
vt 0.867430 0.538403
vt 0.867430 0.734908
vt 0.632570 0.734908
vt 0.625000 0.243143
vt 0.625000 0.218453
vt 0.625000 0.218453
vt 0.625000 0.243143
vt 0.625000 0.531547
vt 0.625000 0.506857
vt 0.625000 0.506857
vt 0.625000 0.531547
vt 0.500000 0.750000
vt 0.579956 0.750000
vt 0.579956 1.000000
vt 0.500000 1.000000
vt 0.600979 0.750000
vt 0.625000 0.757570
vt 0.625000 0.992430
vt 0.600979 1.000000
vt 0.500000 0.257570
vt 0.625000 0.257570
vt 0.625000 0.492430
vt 0.500000 0.492430
vt 0.500000 0.211597
vt 0.588051 0.218453
vt 0.625000 0.243143
vt 0.500000 0.243143
vt 0.500000 0.000000
vt 0.579956 0.000000
vt 0.600979 0.004015
vt 0.588004 0.218654
vt 0.375000 0.000000
vt 0.375000 0.211597
vt 0.625000 0.506857
vt 0.588051 0.531547
vt 0.375000 1.000000
vt 0.125000 0.506857
vt 0.132570 0.500000
vt 0.367430 0.500000
vt 0.375000 0.257570
vt 0.375000 0.492430
vt 0.588004 0.531346
vt 0.600979 0.745985
vt 0.867430 0.538403
vt 0.632570 0.538403
vt 0.632570 0.538403
vt 0.867430 0.538403
vt 0.625000 0.211597
vt 0.625000 0.218453
vt 0.875000 0.506857
vt 0.867430 0.500000
vt 0.867430 0.500000
vt 0.632570 0.500000
vt 0.625000 0.506857
vt 0.375000 0.243143
vt 0.875000 0.531547
vt 0.625000 0.531546
vt 0.625000 0.211597
vt 0.625000 0.015092
vt 0.625000 0.211597
vt 0.625000 0.218453
vn 0.3416 -0.3416 0.8756
vn 0.3416 0.3416 0.8756
vn -0.3416 0.3416 0.8756
vn -0.3416 -0.3416 0.8756
vn 0.8756 -0.3416 -0.3416
vn 0.8756 0.3416 -0.3416
vn 0.8756 0.3416 0.3416
vn 0.8756 -0.3416 0.3416
vn -0.3416 -0.8756 -0.3416
vn 0.3416 -0.8756 -0.3416
vn 0.3416 -0.8756 0.3416
vn -0.3416 -0.8756 0.3416
vn 0.3416 0.8756 -0.3416
vn -0.3416 0.8756 -0.3416
vn -0.3416 0.8756 0.3416
vn 0.3416 0.8756 0.3416
vn -0.8756 -0.3416 0.3416
vn -0.8756 0.3416 0.3416
vn -0.8756 0.3416 -0.3416
vn -0.8756 -0.3416 -0.3416
vn -0.3416 -0.3416 -0.8756
vn -0.3416 0.3416 -0.8756
vn 0.3416 0.3416 -0.8756
vn 0.3416 -0.3416 -0.8756
vn 0.8755 0.3416 0.3416
vn -0.8755 0.3416 0.3416
vn 0.8755 -0.3416 0.3416
vn 0.7173 -0.6302 -0.2971
vn 0.9239 0.0000 -0.3827
vn 1.0000 0.0000 0.0000
vn 0.7071 -0.7071 0.0000
vn 0.5980 0.1131 -0.7935
vn -0.3879 0.0685 -0.9192
vn -0.3615 0.3488 -0.8646
vn 0.5687 0.3293 -0.7537
vn 0.5454 0.7363 -0.4006
vn -0.4119 0.8254 -0.3860
vn -0.4142 0.8225 0.3896
vn 0.5079 0.7758 0.3743
vn -0.7071 -0.7071 0.0000
vn 0.5773 -0.5773 0.5773
vn -0.5773 -0.5773 0.5773
vn 0.5467 0.6058 0.5780
vn -0.5467 0.6058 0.5780
vn -0.2737 0.9494 0.1542
vn 0.2737 0.9494 0.1542
vn -0.9236 0.0945 -0.3715
vn -0.9218 0.0980 0.3750
vn -0.8732 0.3597 0.3287
vn -0.8780 0.3563 -0.3197
vn 0.9530 0.1366 0.2703
vn 0.9218 0.0267 -0.3868
vn 0.9585 0.1704 -0.2283
vn 0.9317 0.2668 0.2465
vn 0.7071 0.0000 0.7071
vn 0.6409 0.2489 0.7261
vn -0.6409 0.2489 0.7261
vn -0.7071 0.0000 0.7071
vn 0.6734 0.6102 0.4173
vn -0.6734 0.6102 0.4173
vn -0.3827 0.0000 -0.9239
vn 0.3827 0.0000 -0.9239
vn -1.0000 0.0000 0.0000
vn -0.9866 0.1200 0.1103
vn -0.9239 0.0000 -0.3827
vn 0.9866 0.1200 0.1103
vn -0.7173 -0.6302 -0.2971
vn -0.2971 -0.6302 -0.7173
vn 0.2971 -0.6302 -0.7173
vn -0.3914 0.0747 0.9171
vn 0.3914 0.0747 0.9171
vn 0.3418 0.3508 0.8718
vn -0.3418 0.3508 0.8718
usemtl None
s 1
f 15/1/1 17/2/2 4/3/3 2/4/4
f 21/5/5 23/6/6 18/7/7 14/8/8
f 31/9/9 43/10/10 37/11/11 25/12/12
f 22/13/13 10/14/14 5/15/15 16/16/16
f 3/17/17 6/18/18 12/19/19 8/20/20
f 9/21/21 11/22/22 24/23/23 20/24/24
f 39/25/1 41/26/2 28/27/3 26/28/4
f 45/29/5 47/30/6 42/31/25 38/32/8
f 55/33/9 67/34/10 61/35/11 49/36/12
f 46/37/13 34/38/14 29/39/15 40/40/16
f 27/41/17 30/42/26 36/43/19 32/44/20
f 33/45/21 35/46/22 48/47/23 44/48/24
f 63/49/1 65/50/2 52/51/3 50/52/4
f 69/53/5 71/54/6 66/55/25 62/56/27
f 79/57/9 91/58/10 85/59/11 73/60/12
f 70/61/13 58/62/14 53/63/15 64/64/16
f 51/65/17 54/66/18 60/67/19 56/68/20
f 57/69/21 59/70/22 72/71/23 68/72/24
f 87/73/1 89/74/2 76/75/3 74/76/4
f 93/77/5 95/78/6 90/79/7 86/80/8
f 94/81/13 82/82/14 77/83/15 88/84/16
f 75/85/17 78/86/18 84/87/19 80/88/20
f 81/89/21 83/90/22 96/91/23 92/92/24
f 1/93/12 2/94/4 3/95/17
f 4/3/3 5/96/15 6/97/18
f 7/98/9 8/99/20 9/100/21
f 10/101/14 11/102/22 12/103/19
f 13/104/11 14/105/8 15/106/1
f 16/107/16 17/108/2 18/109/7
f 19/110/10 20/111/24 21/112/5
f 22/113/13 23/114/6 24/115/23
f 25/12/12 26/116/4 27/117/17
f 28/27/3 29/118/15 30/119/26
f 31/9/9 32/120/20 33/121/21
f 34/122/14 35/123/22 36/124/19
f 37/11/11 38/125/8 39/126/1
f 40/127/16 41/128/2 42/129/25
f 43/10/10 44/130/24 45/131/5
f 46/132/13 47/133/6 48/134/23
f 49/36/12 50/135/4 51/136/17
f 52/51/3 53/137/15 54/138/18
f 55/33/9 56/139/20 57/140/21
f 58/141/14 59/142/22 60/143/19
f 61/35/11 62/144/27 63/145/1
f 64/146/16 65/147/2 66/148/25
f 67/34/10 68/149/24 69/150/5
f 70/151/13 71/152/6 72/153/23
f 73/60/12 74/154/4 75/155/17
f 76/75/3 77/156/15 78/157/18
f 79/57/9 80/158/20 81/159/21
f 82/160/14 83/161/22 84/162/19
f 85/59/11 86/163/8 87/164/1
f 88/165/16 89/166/2 90/167/7
f 91/58/10 92/168/24 93/169/5
f 94/170/13 95/171/6 96/172/23
f 7/98/9 1/93/12 3/95/17 8/99/20
f 2/173/4 4/174/3 6/18/18 3/17/17
f 5/175/15 10/176/14 12/19/19 6/18/18
f 11/22/22 9/21/21 8/20/20 12/19/19
f 19/110/10 7/98/9 9/100/21 20/111/24
f 10/101/14 22/177/13 24/23/23 11/22/22
f 23/6/6 21/5/5 20/24/24 24/23/23
f 13/104/11 19/110/10 21/5/5 14/8/8
f 22/13/13 16/16/16 18/7/7 23/6/6
f 17/2/2 15/1/1 14/8/8 18/7/7
f 1/93/12 13/104/11 15/106/1 2/94/4
f 16/107/16 5/96/15 4/3/3 17/2/2
f 31/9/9 25/12/12 27/117/17 32/120/20
f 26/178/4 28/179/3 30/42/26 27/41/17
f 29/180/15 34/181/14 36/43/19 30/42/26
f 35/46/22 33/45/21 32/44/20 36/43/19
f 43/10/10 31/9/9 33/121/21 44/130/24
f 34/122/14 46/182/13 48/47/23 35/46/22
f 47/30/6 45/29/5 44/48/24 48/47/23
f 37/11/11 43/10/10 45/29/5 38/32/8
f 46/37/13 40/40/16 42/31/25 47/30/6
f 41/26/2 39/25/1 38/32/8 42/31/25
f 25/12/12 37/11/11 39/126/1 26/116/4
f 40/127/16 29/118/15 28/27/3 41/26/2
f 55/33/9 49/36/12 51/136/17 56/139/20
f 50/183/4 52/184/3 54/66/18 51/65/17
f 53/185/15 58/186/14 60/67/19 54/66/18
f 59/70/22 57/69/21 56/68/20 60/67/19
f 67/34/10 55/33/9 57/140/21 68/149/24
f 58/141/14 70/187/13 72/71/23 59/70/22
f 71/54/6 69/53/5 68/72/24 72/71/23
f 61/35/11 67/34/10 69/53/5 62/56/27
f 70/61/13 64/64/16 66/55/25 71/54/6
f 65/50/2 63/49/1 62/56/27 66/55/25
f 49/36/12 61/35/11 63/145/1 50/135/4
f 64/146/16 53/137/15 52/51/3 65/50/2
f 79/57/9 73/60/12 75/155/17 80/158/20
f 74/188/4 76/189/3 78/86/18 75/85/17
f 77/190/15 82/191/14 84/87/19 78/86/18
f 83/90/22 81/89/21 80/88/20 84/87/19
f 91/58/10 79/57/9 81/159/21 92/168/24
f 82/160/14 94/192/13 96/91/23 83/90/22
f 95/78/6 93/77/5 92/92/24 96/91/23
f 85/59/11 91/58/10 93/77/5 86/80/8
f 94/81/13 88/84/16 90/79/7 95/78/6
f 89/74/2 87/73/1 86/80/8 90/79/7
f 73/60/12 85/59/11 87/164/1 74/154/4
f 88/165/16 77/156/15 76/75/3 89/74/2
f 7/98/9 19/110/10 13/104/11 1/93/12
f 113/193/28 135/194/29 103/195/30 100/196/31
f 139/197/32 145/198/33 125/199/34 126/200/35
f 127/201/36 124/202/37 122/203/38 130/204/39
f 99/205/40 100/196/31 98/206/41 97/207/42
f 118/208/43 117/209/44 136/210/45 138/211/46
f 146/212/47 144/213/48 120/214/49 123/215/50
f 142/216/51 140/217/52 128/218/53 129/219/54
f 102/220/55 106/221/56 105/222/57 101/223/58
f 107/224/59 138/225/46 136/226/45 137/227/60
f 133/228/61 110/229/61 115/230/62 134/231/62
f 104/232/63 116/233/64 111/234/65 132/235/65
f 101/236/58 105/237/57 137/238/60 116/239/64 104/232/63
f 97/240/42 101/236/58 104/232/63 99/241/40
f 135/194/29 114/242/29 119/243/66 103/195/30
f 98/206/41 102/220/55 101/223/58 97/244/42
f 100/196/31 103/195/30 102/220/55 98/206/41
f 108/245/67 109/246/68 112/247/69 113/193/28 100/196/31 99/205/40
f 109/248/68 133/228/61 134/231/62 112/249/69
f 103/195/30 119/250/66 107/251/59 106/221/56 102/220/55
f 143/252/70 141/253/71 131/254/72 121/255/73
f 107/224/59 137/227/60 105/222/57 106/221/56
f 120/214/49 121/256/73 122/257/38
f 123/258/50 124/259/37 125/260/34
f 126/261/35 127/262/36 128/218/53
f 129/219/54 130/204/39 131/254/72
f 133/228/61 109/248/68 108/263/67 132/235/65
f 135/194/29 113/193/28 112/249/69 134/231/62
f 122/203/38 124/202/37 123/258/50 120/264/49
f 124/202/37 127/201/36 126/261/35 125/260/34
f 127/201/36 130/204/39 129/219/54 128/218/53
f 121/255/73 131/254/72 130/204/39 122/203/38
f 139/197/32 126/200/35 128/218/53 140/217/52
f 141/253/71 118/208/43 119/265/66 142/216/51
f 143/266/70 121/256/73 120/214/49 144/213/48
f 145/198/33 110/229/61 111/234/65 146/212/47
f 110/229/61 133/228/61 132/235/65 111/234/65
f 114/242/29 135/194/29 134/231/62 115/230/62
f 136/267/45 117/268/44 116/239/64 137/238/60
f 107/251/59 119/250/66 118/208/43 138/211/46
f 99/241/40 104/232/63 132/235/65 108/263/67
f 125/199/34 145/198/33 146/212/47 123/215/50
f 117/268/44 143/266/70 144/213/48 116/269/64
f 131/254/72 141/253/71 142/216/51 129/219/54
f 115/230/62 139/197/32 140/217/52 114/242/29
f 117/209/44 118/208/43 141/253/71 143/252/70
f 119/265/66 114/242/29 140/217/52 142/216/51
f 111/234/65 116/269/64 144/213/48 146/212/47
f 115/230/62 110/229/61 145/198/33 139/197/32
