# Blender v2.92.0 OBJ File: 'assets2.2.blend'
# www.blender.org
mtllib copo.mtl
o Cylinder.006_Cylinder.008
v 0.000000 6.379705 2.800967
v 0.000000 7.736542 2.623770
v 0.154292 6.379705 2.831658
v 0.222102 7.736542 2.667949
v 0.285094 6.379705 2.919057
v 0.410391 7.736542 2.793760
v 0.372493 6.379705 3.049859
v 0.536202 7.736542 2.982049
v 0.403184 6.379705 3.204150
v 0.580381 7.736542 3.204150
v 0.372493 6.379705 3.358442
v 0.536202 7.736542 3.426253
v 0.285094 6.379705 3.489244
v 0.410391 7.736542 3.614541
v 0.154292 6.379705 3.576643
v 0.222102 7.736542 3.740352
v 0.000000 6.379705 3.607334
v 0.000000 7.736542 3.784531
v -0.154291 6.379705 3.576643
v -0.222102 7.736542 3.740352
v -0.285094 6.379705 3.489244
v -0.410391 7.736542 3.614542
v -0.372493 6.379705 3.358442
v -0.536202 7.736542 3.426253
v -0.403183 6.379705 3.204150
v -0.580380 7.736542 3.204150
v -0.372493 6.379705 3.049859
v -0.536201 7.736542 2.982049
v -0.285094 6.379705 2.919057
v -0.410391 7.736542 2.793759
v -0.154291 6.379705 2.831657
v -0.222102 7.736542 2.667949
v 0.188326 7.736542 2.749491
v 0.000000 7.736542 2.712031
v 0.347981 7.736542 2.856169
v 0.454659 7.736542 3.015825
v 0.492120 7.736542 3.204150
v 0.454659 7.736542 3.392477
v 0.347981 7.736542 3.552131
v 0.188326 7.736542 3.658810
v 0.000000 7.736542 3.696270
v -0.188326 7.736542 3.658810
v -0.347981 7.736542 3.552132
v -0.454659 7.736542 3.392477
v -0.492119 7.736542 3.204150
v -0.454659 7.736542 3.015825
v -0.347981 7.736542 2.856169
v -0.188326 7.736542 2.749491
v 0.163783 6.694726 2.808743
v 0.000000 6.694726 2.776165
v 0.302632 6.694726 2.901519
v 0.395407 6.694726 3.040367
v 0.427986 6.694726 3.204150
v 0.395407 6.694726 3.367934
v 0.302632 6.694726 3.506782
v 0.163783 6.694726 3.599558
v 0.000000 6.694726 3.632136
v -0.163783 6.694726 3.599558
v -0.302632 6.694726 3.506782
v -0.395407 6.694726 3.367934
v -0.427986 6.694726 3.204150
v -0.395407 6.694726 3.040367
v -0.302632 6.694726 2.901519
v -0.163783 6.694726 2.808743
v 0.000000 6.694726 3.204150
v 0.000000 6.379705 3.204150
vt 1.000000 0.500000
vt 1.000000 1.000000
vt 0.937500 1.000000
vt 0.937500 0.500000
vt 0.875000 1.000000
vt 0.875000 0.500000
vt 0.812500 1.000000
vt 0.812500 0.500000
vt 0.750000 1.000000
vt 0.750000 0.500000
vt 0.687500 1.000000
vt 0.687500 0.500000
vt 0.625000 1.000000
vt 0.625000 0.500000
vt 0.562500 1.000000
vt 0.562500 0.500000
vt 0.500000 1.000000
vt 0.500000 0.500000
vt 0.437500 1.000000
vt 0.437500 0.500000
vt 0.375000 1.000000
vt 0.375000 0.500000
vt 0.312500 1.000000
vt 0.312500 0.500000
vt 0.250000 1.000000
vt 0.250000 0.500000
vt 0.187500 1.000000
vt 0.187500 0.500000
vt 0.125000 1.000000
vt 0.125000 0.500000
vt 0.687500 1.000000
vt 0.625000 1.000000
vt 0.062500 1.000000
vt 0.062500 0.500000
vt 0.000000 1.000000
vt 0.000000 0.500000
vt 0.750000 0.500000
vt 0.562500 1.000000
vt 0.625000 1.000000
vt 0.562500 1.000000
vt 0.375000 1.000000
vt 0.312500 1.000000
vt 0.062500 1.000000
vt 0.000000 1.000000
vt 0.812500 1.000000
vt 0.750000 1.000000
vt 0.500000 1.000000
vt 0.437500 1.000000
vt 0.187500 1.000000
vt 0.125000 1.000000
vt 0.937500 1.000000
vt 0.875000 1.000000
vt 0.250000 1.000000
vt 1.000000 1.000000
vt 0.062500 1.000000
vt 0.125000 1.000000
vt 0.062500 1.000000
vt 0.500000 1.000000
vt 1.000000 1.000000
vt 0.937500 1.000000
vt 0.000000 1.000000
vt 0.437500 1.000000
vt 0.875000 1.000000
vt 0.375000 1.000000
vt 0.812500 1.000000
vt 0.312500 1.000000
vt 0.750000 1.000000
vt 0.250000 1.000000
vt 0.687500 1.000000
vt 0.187500 1.000000
vt 0.500000 1.000000
vt 0.937500 1.000000
vt 0.000000 1.000000
vt 0.437500 1.000000
vt 0.875000 1.000000
vt 0.375000 1.000000
vt 0.812500 1.000000
vt 0.312500 1.000000
vt 0.750000 1.000000
vt 0.250000 1.000000
vt 0.687500 1.000000
vt 0.187500 1.000000
vt 0.625000 1.000000
vt 0.125000 1.000000
vt 0.562500 1.000000
vt 0.437500 0.500000
vt 0.125000 0.500000
vt 0.875000 0.500000
vt 0.562500 0.500000
vt 1.000000 0.500000
vt 0.250000 0.500000
vt 0.687500 0.500000
vt 0.375000 0.500000
vt 0.062500 0.500000
vt 0.812500 0.500000
vt 0.500000 0.500000
vt 0.187500 0.500000
vt 0.937500 0.500000
vt 0.625000 0.500000
vt 0.312500 0.500000
vn 0.0000 -0.7126 -0.7015
vn 0.0000 0.6167 -0.7871
vn 0.3012 0.6167 -0.7272
vn 0.2684 -0.7126 -0.6481
vn 0.5566 0.6167 -0.5566
vn 0.4960 -0.7126 -0.4960
vn 0.7272 0.6167 -0.3012
vn 0.6481 -0.7126 -0.2684
vn 0.7871 0.6167 0.0000
vn 0.7015 -0.7126 0.0000
vn 0.7272 0.6167 0.3012
vn 0.6481 -0.7126 0.2684
vn 0.5566 0.6167 0.5566
vn 0.4960 -0.7126 0.4960
vn 0.3012 0.6167 0.7272
vn 0.2684 -0.7126 0.6481
vn 0.0000 0.6167 0.7871
vn 0.0000 -0.7126 0.7015
vn -0.3012 0.6167 0.7272
vn -0.2684 -0.7126 0.6481
vn -0.5566 0.6167 0.5566
vn -0.4960 -0.7126 0.4960
vn -0.7272 0.6167 0.3012
vn -0.6481 -0.7126 0.2684
vn -0.7871 0.6167 0.0000
vn -0.7015 -0.7126 0.0000
vn -0.7272 0.6167 -0.3012
vn -0.6481 -0.7126 -0.2684
vn -0.5566 0.6167 -0.5566
vn -0.4960 -0.7126 -0.4960
vn -0.5858 0.7732 -0.2426
vn -0.4483 0.7732 -0.4483
vn -0.3012 0.6167 -0.7272
vn -0.2684 -0.7126 -0.6481
vn 0.0000 -1.0000 0.0000
vn -0.2426 0.7732 -0.5858
vn -0.5130 0.6882 -0.5130
vn -0.2776 0.6882 -0.6703
vn 0.4483 0.7732 -0.4483
vn 0.5858 0.7732 -0.2426
vn 0.2426 0.7732 0.5858
vn 0.0000 0.7732 0.6341
vn -0.5858 0.7732 0.2426
vn -0.6341 0.7732 0.0000
vn 0.0000 0.7732 -0.6341
vn 0.2426 0.7732 -0.5858
vn 0.5858 0.7732 0.2426
vn 0.4483 0.7732 0.4483
vn -0.2426 0.7732 0.5858
vn -0.4483 0.7732 0.4483
vn 0.6341 0.7732 0.0000
vn 0.2776 0.6882 0.6703
vn 0.5130 0.6882 0.5130
vn 0.0000 1.0000 0.0000
vn 0.0000 0.6882 -0.7255
vn 0.0000 0.6882 0.7255
vn -0.2776 0.6882 0.6703
vn 0.2776 0.6882 -0.6703
vn -0.5130 0.6882 0.5130
vn 0.5130 0.6882 -0.5130
vn -0.6703 0.6882 0.2776
vn 0.6703 0.6882 -0.2776
vn -0.7255 0.6882 0.0000
vn 0.7255 0.6882 0.0000
vn -0.6703 0.6882 -0.2776
vn 0.6703 0.6882 0.2776
usemtl None
s 1
f 1/1/1 2/2/2 4/3/3 3/4/4
f 3/4/4 4/3/3 6/5/5 5/6/6
f 5/6/6 6/5/5 8/7/7 7/8/8
f 7/8/8 8/7/7 10/9/9 9/10/10
f 9/10/10 10/9/9 12/11/11 11/12/12
f 11/12/12 12/11/11 14/13/13 13/14/14
f 13/14/14 14/13/13 16/15/15 15/16/16
f 15/16/16 16/15/15 18/17/17 17/18/18
f 17/18/18 18/17/17 20/19/19 19/20/20
f 19/20/20 20/19/19 22/21/21 21/22/22
f 21/22/22 22/21/21 24/23/23 23/24/24
f 23/24/24 24/23/23 26/25/25 25/26/26
f 25/26/26 26/25/25 28/27/27 27/28/28
f 27/28/28 28/27/27 30/29/29 29/30/30
f 14/13/13 12/11/11 38/31/31 39/32/32
f 29/30/30 30/29/29 32/33/33 31/34/34
f 31/34/34 32/33/33 2/35/2 1/36/1
f 9/10/10 11/12/12 66/37/35
f 40/38/36 39/32/32 55/39/37 56/40/38
f 24/23/23 22/21/21 43/41/39 44/42/40
f 2/35/2 32/33/33 48/43/41 34/44/42
f 10/9/9 8/7/7 36/45/43 37/46/44
f 20/19/19 18/17/17 41/47/45 42/48/46
f 30/29/29 28/27/27 46/49/47 47/50/48
f 6/5/5 4/3/3 33/51/49 35/52/50
f 16/15/15 14/13/13 39/32/32 40/38/36
f 26/25/25 24/23/23 44/42/40 45/53/51
f 12/11/11 10/9/9 37/46/44 38/31/31
f 22/21/21 20/19/19 42/48/46 43/41/39
f 32/33/33 30/29/29 47/50/48 48/43/41
f 8/7/7 6/5/5 35/52/50 36/45/43
f 18/17/17 16/15/15 40/38/36 41/47/45
f 28/27/27 26/25/25 45/53/51 46/49/47
f 4/3/3 2/2/2 34/54/42 33/51/49
f 64/55/52 63/56/53 65/57/54
f 48/43/41 47/50/48 63/56/53 64/55/52
f 41/47/45 40/38/36 56/40/38 57/58/55
f 33/51/49 34/54/42 50/59/56 49/60/57
f 34/44/42 48/43/41 64/55/52 50/61/56
f 42/48/46 41/47/45 57/58/55 58/62/58
f 35/52/50 33/51/49 49/60/57 51/63/59
f 43/41/39 42/48/46 58/62/58 59/64/60
f 36/45/43 35/52/50 51/63/59 52/65/61
f 44/42/40 43/41/39 59/64/60 60/66/62
f 37/46/44 36/45/43 52/65/61 53/67/63
f 45/53/51 44/42/40 60/66/62 61/68/64
f 38/31/31 37/46/44 53/67/63 54/69/65
f 46/49/47 45/53/51 61/68/64 62/70/66
f 39/32/32 38/31/31 54/69/65 55/39/37
f 47/50/48 46/49/47 62/70/66 63/56/53
f 57/58/55 56/40/38 65/71/54
f 49/60/57 50/59/56 65/72/54
f 50/61/56 64/55/52 65/73/54
f 58/62/58 57/58/55 65/74/54
f 51/63/59 49/60/57 65/75/54
f 59/64/60 58/62/58 65/76/54
f 52/65/61 51/63/59 65/77/54
f 60/66/62 59/64/60 65/78/54
f 53/67/63 52/65/61 65/79/54
f 61/68/64 60/66/62 65/80/54
f 54/69/65 53/67/63 65/81/54
f 62/70/66 61/68/64 65/82/54
f 55/39/37 54/69/65 65/83/54
f 63/56/53 62/70/66 65/84/54
f 56/40/38 55/39/37 65/85/54
f 19/20/20 21/22/22 66/86/35
f 29/30/30 31/34/34 66/87/35
f 5/6/6 7/8/8 66/88/35
f 15/16/16 17/18/18 66/89/35
f 1/1/1 3/4/4 66/90/35
f 25/26/26 27/28/28 66/91/35
f 11/12/12 13/14/14 66/92/35
f 21/22/22 23/24/24 66/93/35
f 31/34/34 1/36/1 66/94/35
f 7/8/8 9/10/10 66/95/35
f 17/18/18 19/20/20 66/96/35
f 27/28/28 29/30/30 66/97/35
f 3/4/4 5/6/6 66/98/35
f 13/14/14 15/16/16 66/99/35
f 23/24/24 25/26/26 66/100/35
