# This file uses centimeters as units for non-parametric coordinates.

mtllib Janela semicircular.mtl
g default
v -8.659802 0.434733 -1.902209
v -13.782313 0.434733 -2.629648
v -13.287098 0.934914 -2.559323
v -9.155018 0.934914 -1.972529
v -14.226109 0.434733 -2.207970
v -12.887673 0.434733 0.172999
v -13.375110 0.934914 -1.939567
v -9.243030 0.934914 -1.352774
v -11.323635 0.434733 2.955300
v -5.328878 0.434733 4.023243
v -8.414704 0.934914 -1.466195
v -5.573977 0.934914 3.587229
v -8.960372 0.934914 -1.159454
v -6.119646 0.934914 3.893971
v -10.863263 0.434733 3.774267
v -8.659802 12.534597 -1.902209
v -9.155018 12.034415 -1.972529
v -8.414704 12.034415 -1.466195
v -9.243030 12.034415 -1.352774
v -8.960372 12.034415 -1.159454
v -13.782313 12.534597 -2.629648
v -13.287098 12.034415 -2.559323
v -13.375110 12.034415 -1.939567
v -14.226109 12.534597 -2.207970
v -9.299220 0.434733 6.556567
v -7.369874 0.434733 8.777565
v -7.960784 0.434733 8.937537
v -6.119646 12.034415 3.893971
v -12.888023 14.483499 0.172379
v -12.936466 14.428840 0.016468
v -12.962015 14.428840 0.040746
v -5.526190 0.934914 4.482859
v -7.172563 0.934914 8.317947
v -6.101399 0.934914 4.235930
v -7.747772 0.934914 8.071012
v -5.328878 12.534597 4.023243
v -5.573977 12.034415 3.587229
v -5.526190 12.034415 4.482859
v -6.101399 12.034415 4.235930
v -13.443975 13.311513 -1.571204
v -9.289692 13.311513 -0.981254
v -13.720470 13.311513 -1.308483
v -9.224878 14.428840 6.688821
v -9.190856 14.428840 6.679607
v -9.298870 14.483499 6.557192
v -7.747772 12.034415 8.071012
v -10.234515 14.428840 0.400172
v -6.443048 13.311513 4.082694
v -8.114299 14.428840 4.171866
v -7.172563 12.034415 8.317947
v -7.369874 12.534597 8.777565
v -7.960784 12.534597 8.937537
v -11.270166 15.088659 2.052057
v -10.063818 15.088659 4.198056
v -10.306826 15.088659 4.764122
v -11.880072 15.088659 1.965446
v -8.098264 13.311513 7.938384
v -8.466422 13.311513 8.038051
vt 0.482143 0.312500
vt 0.517857 0.312500
vt 0.517857 0.312500
vt 0.482143 0.312500
vt 0.480543 0.305088
vt 0.465231 0.308582
vt 0.480543 0.238744
vt 0.517857 0.312500
vt 0.482143 0.312500
vt 0.359224 0.224044
vt 0.480543 0.160234
vt 0.446429 0.312500
vt 0.482143 0.312500
vt 0.446429 0.312500
vt 0.482143 0.312500
vt 0.446429 0.312500
vt 0.359224 0.088456
vt 0.480543 0.141494
vt 0.482143 0.688440
vt 0.482143 0.688440
vt 0.482143 0.688440
vt 0.482143 0.688440
vt 0.482143 0.688440
vt 0.517857 0.688440
vt 0.517857 0.688440
vt 0.517857 0.688440
vt 0.521994 0.688440
vt 0.521994 0.312500
vt 0.480543 0.068251
vt 0.465231 0.003918
vt 0.480543 0.007412
vt 0.446429 0.688440
vt 0.465231 0.691418
vt 0.465231 0.691418
vt 0.466868 0.691791
vt 0.410714 0.312500
vt 0.446429 0.312500
vt 0.410714 0.312500
vt 0.446429 0.312500
vt 0.410714 0.312500
vt 0.446429 0.688440
vt 0.446429 0.688440
vt 0.446429 0.688440
vt 0.446429 0.688440
vt 0.359224 0.775956
vt 0.465231 0.691418
vt 0.465231 0.691418
vt 0.359224 0.775956
vt 0.476929 0.694088
vt 0.480543 0.694912
vt 0.466868 0.995709
vt 0.465231 0.996082
vt 0.465231 0.996082
vt 0.410714 0.688440
vt 0.359224 0.775956
vt 0.359224 0.911544
vt 0.359224 0.911544
vt 0.359224 0.911544
vt 0.410714 0.688440
vt 0.410714 0.688440
vt 0.406577 0.312500
vt 0.406577 0.688440
vt 0.359224 0.775956
vt 0.359224 0.911544
vt 0.419002 0.959216
vt 0.419002 0.728284
vt 0.465231 0.996082
vt 0.465231 0.996082
vt 0.476929 0.993412
vt 0.480543 0.992588
vt 0.337915 0.187290
vt 0.354836 0.180201
vt 0.354836 0.069799
vt 0.310045 0.069799
vt 0.257703 0.069799
vt 0.242297 0.069799
vt 0.189955 0.069799
vt 0.145164 0.069799
vt 0.145164 0.180201
vt 0.162085 0.187290
vt 0.187467 0.197485
vt 0.189943 0.197984
vt 0.223675 0.203505
vt 0.276325 0.203505
vt 0.310056 0.197984
vt 0.312533 0.197485
vn 0.140598 0.000000 -0.990067
vn 0.140600 0.000000 -0.990066
vn 0.140600 0.000000 -0.990066
vn 0.140598 0.000000 -0.990067
vn 0.000000 -1.000000 0.000000
vn 0.000000 -1.000000 0.000000
vn 0.000000 -1.000000 0.000000
vn 0.000000 1.000000 0.000000
vn 0.000000 1.000000 0.000000
vn 0.000000 1.000000 0.000000
vn 0.000000 1.000000 0.000000
vn 0.000000 -1.000000 0.000000
vn 0.000000 -1.000000 0.000000
vn 0.000000 -1.000000 0.000000
vn 0.000000 -1.000000 0.000000
vn 0.871710 0.000000 -0.490022
vn 0.871710 0.000000 -0.490022
vn 0.871710 0.000000 -0.490022
vn 0.871710 0.000000 -0.490022
vn 0.000000 1.000000 0.000000
vn 0.000000 1.000000 0.000000
vn 0.000000 1.000000 0.000000
vn 0.000000 1.000000 0.000000
vn 0.000000 -1.000000 0.000000
vn 0.000000 -1.000000 0.000000
vn 0.000000 -1.000000 0.000000
vn 0.000000 -1.000000 0.000000
vn 0.140598 -0.000001 -0.990067
vn 0.140598 0.000000 -0.990067
vn 0.140598 0.000000 -0.990067
vn 0.140598 -0.000001 -0.990067
vn 0.871710 0.000000 -0.490022
vn 0.871710 0.000000 -0.490022
vn 0.871710 0.000000 -0.490022
vn 0.871710 0.000000 -0.490022
vn -0.990067 0.000000 -0.140599
vn -0.990067 0.000000 -0.140599
vn -0.990067 0.000000 -0.140599
vn -0.990067 0.000000 -0.140599
vn 0.490022 0.000000 0.871710
vn 0.490022 0.000000 0.871710
vn 0.490022 0.000000 0.871710
vn 0.490022 0.000000 0.871710
vn 0.140600 0.000000 -0.990066
vn 0.140600 -0.000001 -0.990066
vn 0.140600 -0.000001 -0.990066
vn 0.140600 0.000000 -0.990066
vn 0.990067 0.000000 0.140597
vn 0.990067 0.000000 0.140597
vn 0.990067 0.000000 0.140597
vn 0.990067 0.000000 0.140597
vn -0.688811 0.000000 -0.724941
vn -0.688811 0.000000 -0.724941
vn -0.688811 0.000000 -0.724941
vn -0.688811 0.000000 -0.724941
vn 0.140598 0.000000 -0.990067
vn 0.140598 0.000000 -0.990067
vn 0.140598 0.000000 -0.990067
vn 0.140598 0.000000 -0.990067
vn 0.000000 -1.000000 0.000000
vn 0.000000 -1.000000 0.000000
vn 0.000002 -1.000000 -0.000001
vn 0.871710 0.000000 -0.490022
vn 0.871710 0.000000 -0.490022
vn 0.871710 0.000000 -0.490022
vn 0.871710 0.000000 -0.490022
vn 0.000000 -1.000000 0.000000
vn 0.000000 -1.000000 0.000000
vn 0.000000 -1.000000 0.000000
vn 0.000000 -1.000000 0.000000
vn 0.048826 0.937724 -0.343934
vn 0.054945 0.841833 -0.536934
vn -0.409958 0.803603 -0.431460
vn 0.918905 0.000000 0.394479
vn 0.918905 0.000000 0.394479
vn 0.918905 0.000000 0.394479
vn 0.918905 0.000000 0.394479
vn 0.000000 1.000000 0.000000
vn 0.000000 1.000000 0.000000
vn 0.000000 1.000000 0.000000
vn 0.000000 1.000000 0.000000
vn 0.140600 -0.000001 -0.990066
vn 0.140598 -0.000001 -0.990067
vn 0.140598 -0.000001 -0.990067
vn 0.140600 -0.000001 -0.990066
vn 0.000000 -1.000000 0.000000
vn 0.000000 -1.000000 0.000000
vn 0.000000 -1.000000 0.000000
vn 0.000000 -1.000000 0.000000
vn 0.871710 0.000000 -0.490022
vn 0.871710 0.000000 -0.490022
vn 0.871710 0.000000 -0.490022
vn 0.871710 0.000000 -0.490022
vn -0.490022 0.000000 -0.871710
vn -0.490022 0.000000 -0.871710
vn -0.490022 0.000000 -0.871710
vn -0.490022 0.000000 -0.871710
vn 0.918905 0.000000 0.394479
vn 0.918905 -0.000001 0.394479
vn 0.918905 -0.000001 0.394479
vn 0.918905 0.000000 0.394479
vn -0.394479 0.000000 0.918905
vn -0.394479 0.000000 0.918905
vn -0.394479 0.000000 0.918905
vn -0.394479 0.000000 0.918905
vn 0.356603 0.819941 -0.447807
vn 0.037936 0.799739 -0.599149
vn 0.045177 0.803031 -0.594223
vn 0.356203 0.824395 -0.439878
vn -0.417585 0.795282 -0.439488
vn 0.045177 0.803031 -0.594223
vn 0.037936 0.799739 -0.599149
vn -0.422502 0.789789 -0.444664
vn 0.155522 0.803603 0.574487
vn 0.487268 0.841833 0.232134
vn 0.319206 0.937723 0.137049
vn 0.871710 0.000000 -0.490022
vn 0.871710 0.000000 -0.490022
vn 0.871710 0.000000 -0.490022
vn 0.871710 0.000000 -0.490022
vn 0.000000 -1.000000 0.000000
vn 0.000000 -1.000000 0.000000
vn 0.000000 -1.000000 0.000000
vn 0.000000 -1.000000 0.000000
vn 0.918905 0.000000 0.394479
vn 0.918905 0.000000 0.394479
vn 0.918905 0.000000 0.394479
vn 0.918905 0.000000 0.394479
vn 0.356203 0.824395 -0.439878
vn 0.045177 0.803031 -0.594223
vn 0.054945 0.841833 -0.536934
vn 0.323020 0.865979 -0.381757
vn 0.567915 0.819941 -0.071900
vn 0.356603 0.819941 -0.447807
vn 0.356203 0.824395 -0.439878
vn 0.560933 0.824395 -0.075680
vn -0.409958 0.803603 -0.431460
vn 0.054945 0.841833 -0.536934
vn 0.045177 0.803031 -0.594223
vn -0.417585 0.795282 -0.439488
vn 0.560933 0.824395 -0.075680
vn 0.356203 0.824395 -0.439878
vn 0.323020 0.865979 -0.381757
vn 0.494032 0.865979 -0.077540
vn 0.394480 0.000000 -0.918905
vn 0.394480 0.000000 -0.918905
vn 0.394480 0.000000 -0.918905
vn 0.394480 0.000000 -0.918905
vn 0.918905 -0.000001 0.394479
vn 0.918905 0.000000 0.394479
vn 0.918905 0.000000 0.394479
vn 0.918905 -0.000001 0.394479
vn 0.261313 0.000000 0.965254
vn 0.261313 0.000000 0.965254
vn 0.261313 0.000000 0.965254
vn 0.261313 0.000000 0.965254
vn 0.494032 0.865979 -0.077540
vn 0.323020 0.865979 -0.381757
vn 0.197270 0.959143 -0.202803
vn 0.275790 0.959143 -0.063122
vn 0.000000 -1.000000 0.000000
vn 0.000000 -1.000000 0.000000
vn 0.000000 -1.000000 0.000000
vn 0.000000 -1.000000 0.000000
vn 0.918905 -0.000001 0.394479
vn 0.918905 -0.000001 0.394479
vn 0.918905 -0.000001 0.394479
vn 0.918905 -0.000001 0.394479
vn 0.272593 0.954986 0.117022
vn 0.275790 0.959143 -0.063122
vn 0.197270 0.959143 -0.202803
vn 0.041709 0.954986 -0.293703
vn 0.531580 0.799738 0.279002
vn 0.567915 0.819941 -0.071900
vn 0.560933 0.824395 -0.075680
vn 0.531134 0.803031 0.270256
vn 0.531134 0.803031 0.270256
vn 0.560933 0.824395 -0.075680
vn 0.494032 0.865979 -0.077540
vn 0.487268 0.841833 0.232134
vn 0.158418 0.795282 0.585175
vn 0.531134 0.803031 0.270256
vn 0.487268 0.841833 0.232134
vn 0.155522 0.803603 0.574487
vn 0.160285 0.789788 0.592067
vn 0.531580 0.799738 0.279002
vn 0.531134 0.803031 0.270256
vn 0.158418 0.795282 0.585175
vn 0.041709 0.954986 -0.293703
vn 0.197270 0.959143 -0.202803
vn 0.323020 0.865979 -0.381757
vn 0.054945 0.841833 -0.536934
vn 0.048826 0.937724 -0.343934
vn 0.319206 0.937723 0.137049
vn 0.487268 0.841833 0.232134
vn 0.494032 0.865979 -0.077540
vn 0.275790 0.959143 -0.063122
vn 0.272593 0.954986 0.117022
vn -0.871710 0.000000 0.490022
vn -0.871710 0.000000 0.490022
vn -0.871710 0.000000 0.490022
vn -0.871710 0.000000 0.490022
vn -0.871710 0.000000 0.490022
vn -0.871710 0.000000 0.490022
vn -0.871710 0.000000 0.490022
vn -0.871710 0.000000 0.490022
vn -0.871710 0.000000 0.490022
vn -0.871710 0.000000 0.490022
vn -0.871710 0.000000 0.490022
vn -0.871710 0.000000 0.490022
vn -0.871710 0.000000 0.490022
vn -0.871710 0.000000 0.490022
vn -0.871710 0.000000 0.490022
vn -0.871710 0.000000 0.490022
s off
g pasted__pCylinder14group3
usemtl initialShadingGroup
f 1/1/1 2/2/2 3/3/3 4/4/4
f 5/5/5 2/6/6 6/7/7
f 4/4/8 3/3/9 7/8/10 8/9/11
f 6/7/12 2/6/13 1/10/14 9/11/15
f 10/12/16 1/1/17 11/13/18 12/14/19
f 12/14/20 11/13/21 13/15/22 14/16/23
f 9/11/24 1/10/25 10/17/26 15/18/27
f 16/19/28 1/1/29 4/4/30 17/20/31
f 1/1/32 16/19/33 18/21/34 11/13/35
f 17/20/36 4/4/37 8/9/38 19/22/39
f 11/13/40 18/21/41 20/23/42 13/15/43
f 2/2/44 21/24/45 22/25/46 3/3/47
f 3/3/48 22/25/49 23/26/50 7/8/51
f 24/27/52 21/24/53 2/2/54 5/28/55
f 8/9/56 7/8/57 23/26/58 19/22/59
f 25/29/60 26/30/61 27/31/62
f 14/16/63 13/15/64 20/23/65 28/32/66
f 15/18/67 10/17/68 26/30/69 25/29/70
f 29/33/71 30/34/72 31/35/73
f 26/36/74 10/12/75 32/37/76 33/38/77
f 33/38/78 32/37/79 34/39/80 35/40/81
f 21/24/82 16/19/83 17/20/84 22/25/85
f 22/25/86 17/20/87 19/22/88 23/26/89
f 36/41/90 10/12/91 12/14/92 37/42/93
f 37/42/94 12/14/95 14/16/96 28/32/97
f 10/12/98 36/41/99 38/43/100 32/37/101
f 32/37/102 38/43/103 39/44/104 34/39/105
f 16/45/106 21/46/107 40/47/108 41/48/109
f 42/49/110 40/47/111 21/46/112 24/50/113
f 43/51/114 44/52/115 45/53/116
f 16/19/117 36/41/118 37/42/119 18/21/120
f 18/21/121 37/42/122 28/32/123 20/23/124
f 35/40/125 34/39/126 39/44/127 46/54/128
f 41/48/129 40/47/130 30/34/131 47/55/132
f 36/56/133 16/45/134 41/48/135 48/57/136
f 31/35/137 30/34/138 40/47/139 42/49/140
f 48/57/141 41/48/142 47/55/143 49/58/144
f 50/59/145 33/38/146 35/40/147 46/54/148
f 51/60/149 26/36/150 33/38/151 50/59/152
f 27/61/153 26/36/154 51/60/155 52/62/156
f 49/58/157 47/55/158 53/63/159 54/64/160
f 38/43/161 50/59/162 46/54/163 39/44/164
f 36/41/165 51/60/166 50/59/167 38/43/168
f 55/65/169 54/64/170 53/63/171 56/66/172
f 51/67/173 36/56/174 48/57/175 57/68/176
f 57/68/177 48/57/178 49/58/179 44/52/180
f 58/69/181 57/68/182 44/52/183 43/51/184
f 52/70/185 51/67/186 57/68/187 58/69/188
f 56/66/189 53/63/190 47/55/191 30/34/192 29/33/193
f 45/53/194 44/52/195 49/58/196 54/64/197 55/65/198
f 42/71/199 24/72/200 5/73/201 6/74/202 9/75/203 15/76/204 25/77/205 27/78/206 52/79/207 58/80/208 43/81/209 45/82/210 55/83/211 56/84/212 29/85/213 31/86/214
