# Blender v2.92.0 OBJ File: 'assets2.2.blend'
# www.blender.org
mtllib mesa.mtl
o Cube.038_Cube.043
v -1.207731 0.423710 38.668987
v -1.207731 0.526798 38.772076
v -1.320188 0.526798 38.668987
v -1.207731 8.911301 38.772076
v -1.207731 9.014389 38.668987
v -1.320188 8.911301 38.668987
v -1.207731 0.423710 38.253708
v -1.320188 0.526798 38.253708
v -1.207731 0.526798 38.150620
v -1.207731 9.014389 38.253708
v -1.207731 8.911301 38.150620
v -1.320188 8.911301 38.253708
v -0.754712 0.423710 38.668987
v -0.642256 0.526798 38.668987
v -0.754712 0.526798 38.772076
v -0.754712 9.014389 38.668987
v -0.754712 8.911301 38.772076
v -0.642256 8.911301 38.668987
v -0.754712 0.423710 38.253708
v -0.754712 0.526798 38.150620
v -0.642256 0.526798 38.253708
v -0.754712 9.014389 38.253708
v -0.642256 8.911301 38.253708
v -0.754712 8.911301 38.150620
v -9.445249 0.423710 19.506083
v -9.445249 0.526798 19.609169
v -9.557706 0.526798 19.506083
v -9.445249 8.911301 19.609169
v -9.445249 9.014389 19.506083
v -9.557706 8.911301 19.506083
v -9.445249 0.423710 19.090803
v -9.557706 0.526798 19.090803
v -9.445249 0.526798 18.987715
v -9.445249 9.014389 19.090803
v -9.445249 8.911301 18.987715
v -9.557706 8.911301 19.090803
v -8.992231 0.423710 19.506083
v -8.879774 0.526798 19.506083
v -8.992231 0.526798 19.609169
v -8.992231 9.014389 19.506083
v -8.992231 8.911301 19.609169
v -8.879774 8.911301 19.506083
v -8.992231 0.423710 19.090803
v -8.992231 0.526798 18.987715
v -8.879774 0.526798 19.090803
v -8.992231 9.014389 19.090803
v -8.879774 8.911301 19.090803
v -8.992231 8.911301 18.987715
v -1.207731 0.423710 19.506083
v -1.207731 0.526798 19.609169
v -1.320187 0.526798 19.506083
v -1.207731 8.911301 19.609169
v -1.207731 9.014389 19.506083
v -1.320187 8.911301 19.506083
v -1.207731 0.423710 19.090803
v -1.320187 0.526798 19.090803
v -1.207731 0.526798 18.987715
v -1.207731 9.014389 19.090803
v -1.207731 8.911301 18.987715
v -1.320187 8.911301 19.090803
v -0.754712 0.423710 19.506083
v -0.642256 0.526798 19.506083
v -0.754712 0.526798 19.609169
v -0.754712 9.014389 19.506083
v -0.754712 8.911301 19.609169
v -0.642256 8.911301 19.506083
v -0.754712 0.423710 19.090803
v -0.754712 0.526798 18.987715
v -0.642256 0.526798 19.090803
v -0.754712 9.014389 19.090803
v -0.642256 8.911301 19.090803
v -0.754712 8.911301 18.987715
v -9.445249 0.423710 38.668983
v -9.445249 0.526798 38.772068
v -9.557706 0.526798 38.668983
v -9.445249 8.911301 38.772068
v -9.445249 9.014389 38.668983
v -9.557706 8.911301 38.668983
v -9.445249 0.423710 38.253700
v -9.557706 0.526798 38.253700
v -9.445249 0.526798 38.150612
v -9.445249 9.014389 38.253700
v -9.445249 8.911301 38.150612
v -9.557706 8.911301 38.253700
v -8.992231 0.423710 38.668983
v -8.879774 0.526798 38.668983
v -8.992231 0.526798 38.772068
v -8.992231 9.014389 38.668983
v -8.992231 8.911301 38.772068
v -8.879774 8.911301 38.668983
v -8.992231 0.423710 38.253700
v -8.992231 0.526798 38.150612
v -8.879774 0.526798 38.253700
v -8.992231 9.014389 38.253700
v -8.879774 8.911301 38.253700
v -8.992231 8.911301 38.150612
v -9.811268 8.741045 39.632095
v -9.811268 9.606010 39.632095
v -9.811268 8.741045 18.281960
v -9.811268 9.606010 18.281960
v -0.338135 8.741045 39.632095
v -0.338135 9.606010 39.632095
v -0.338135 8.741045 18.281960
v -0.338135 9.606010 18.281960
v -10.622512 9.535826 41.460442
v -10.622512 9.535826 16.453609
v 0.473110 9.535826 16.453609
v 0.473110 9.535826 41.460442
v -10.622512 10.204619 41.460442
v -10.487860 10.328053 41.337006
v -10.487860 10.328053 16.577044
v -10.622512 10.204619 16.453609
v 0.338459 10.328053 16.577044
v 0.473110 10.204619 16.453609
v 0.338459 10.328053 41.337006
v 0.473110 10.204619 41.460442
vt 0.378000 0.791471
vt 0.622000 0.791471
vt 0.622000 0.958530
vt 0.378000 0.958530
vt 0.378000 0.541471
vt 0.622000 0.541470
vt 0.622000 0.708530
vt 0.378000 0.708530
vt 0.166471 0.541470
vt 0.333529 0.541470
vt 0.333529 0.708530
vt 0.166471 0.708530
vt 0.666471 0.541471
vt 0.833530 0.541470
vt 0.833530 0.708530
vt 0.666470 0.708530
vt 0.378000 0.041470
vt 0.622000 0.041470
vt 0.622000 0.208530
vt 0.378000 0.208530
vt 0.378000 0.291470
vt 0.622000 0.291470
vt 0.622000 0.458530
vt 0.378000 0.458530
vt 0.378000 0.791471
vt 0.622000 0.791471
vt 0.622000 0.958529
vt 0.378000 0.958529
vt 0.378000 0.541470
vt 0.622000 0.541470
vt 0.622000 0.708530
vt 0.378000 0.708530
vt 0.166470 0.541470
vt 0.333530 0.541470
vt 0.333530 0.708530
vt 0.166470 0.708530
vt 0.666471 0.541470
vt 0.833529 0.541470
vt 0.833529 0.708530
vt 0.666471 0.708530
vt 0.378000 0.041470
vt 0.622000 0.041470
vt 0.622000 0.208530
vt 0.378000 0.208530
vt 0.378000 0.291471
vt 0.622000 0.291471
vt 0.622000 0.458529
vt 0.378000 0.458529
vt 0.378000 0.791471
vt 0.622000 0.791471
vt 0.622000 0.958530
vt 0.378000 0.958530
vt 0.378000 0.541470
vt 0.622000 0.541470
vt 0.622000 0.708530
vt 0.378000 0.708530
vt 0.166471 0.541470
vt 0.333529 0.541470
vt 0.333529 0.708530
vt 0.166471 0.708530
vt 0.666471 0.541470
vt 0.833530 0.541470
vt 0.833530 0.708530
vt 0.666470 0.708530
vt 0.378000 0.041470
vt 0.622000 0.041470
vt 0.622000 0.208530
vt 0.378000 0.208530
vt 0.378000 0.291470
vt 0.622000 0.291470
vt 0.622000 0.458530
vt 0.378000 0.458530
vt 0.378000 0.791471
vt 0.622000 0.791471
vt 0.622000 0.958529
vt 0.378000 0.958529
vt 0.378000 0.541471
vt 0.622000 0.541470
vt 0.622000 0.708530
vt 0.378000 0.708530
vt 0.666471 0.541470
vt 0.833529 0.541470
vt 0.833529 0.708530
vt 0.666471 0.708530
vt 0.378000 0.041470
vt 0.622000 0.041470
vt 0.622000 0.208530
vt 0.378000 0.208530
vt 0.378000 0.291471
vt 0.622000 0.291471
vt 0.622000 0.458529
vt 0.378000 0.458529
vt 0.166470 0.708530
vt 0.166470 0.750000
vt 0.125000 0.708530
vt 0.625000 0.958530
vt 0.622000 1.000000
vt 0.166470 0.541471
vt 0.125000 0.541470
vt 0.166470 0.500000
vt 0.625000 0.291470
vt 0.625000 0.291470
vt 0.622000 0.250000
vt 0.333530 0.708530
vt 0.375000 0.708530
vt 0.333530 0.750000
vt 0.625000 0.791470
vt 0.625000 0.791470
vt 0.622000 0.750000
vt 0.333530 0.541470
vt 0.333530 0.500000
vt 0.375000 0.541470
vt 0.625000 0.541470
vt 0.625000 0.541470
vt 0.622000 0.500000
vt 0.166471 0.750000
vt 0.125000 0.708530
vt 0.625000 0.958529
vt 0.622000 1.000000
vt 0.125000 0.541470
vt 0.166471 0.500000
vt 0.625000 0.291471
vt 0.625000 0.291471
vt 0.622000 0.250000
vt 0.375000 0.708530
vt 0.333529 0.750000
vt 0.625000 0.791471
vt 0.625000 0.791471
vt 0.622000 0.750000
vt 0.333529 0.500000
vt 0.375000 0.541470
vt 0.625000 0.541470
vt 0.622000 0.500000
vt 0.622000 0.500000
vt 0.166470 0.750000
vt 0.125000 0.708530
vt 0.625000 0.958530
vt 0.622000 1.000000
vt 0.125000 0.541470
vt 0.166470 0.500000
vt 0.625000 0.291470
vt 0.625000 0.291470
vt 0.622000 0.250000
vt 0.375000 0.708530
vt 0.333530 0.750000
vt 0.625000 0.791470
vt 0.625000 0.791470
vt 0.622000 0.750000
vt 0.333530 0.500000
vt 0.375000 0.541470
vt 0.625000 0.541470
vt 0.622000 0.500000
vt 0.622000 0.500000
vt 0.166471 0.750000
vt 0.125000 0.708530
vt 0.625000 0.958529
vt 0.622000 1.000000
vt 0.125000 0.541470
vt 0.166471 0.500000
vt 0.625000 0.291471
vt 0.625000 0.291471
vt 0.622000 0.250000
vt 0.375000 0.708530
vt 0.333529 0.750000
vt 0.625000 0.791471
vt 0.625000 0.791471
vt 0.622000 0.750000
vt 0.333529 0.500000
vt 0.375000 0.541470
vt 0.625000 0.541470
vt 0.625000 0.541470
vt 0.622000 0.500000
vt 0.378000 0.000000
vt 0.622000 0.000000
vt 0.625000 0.041470
vt 0.625000 0.208530
vt 0.625000 0.458530
vt 0.378000 0.000000
vt 0.622000 0.000000
vt 0.625000 0.041470
vt 0.625000 0.208530
vt 0.625000 0.458529
vt 0.378000 0.000000
vt 0.622000 0.000000
vt 0.625000 0.041470
vt 0.625000 0.208530
vt 0.625000 0.458530
vt 0.378000 0.000000
vt 0.622000 0.000000
vt 0.625000 0.041470
vt 0.625000 0.208530
vt 0.625000 0.458529
vt 0.375000 0.000000
vt 0.625000 0.000000
vt 0.625000 0.250000
vt 0.375000 0.250000
vt 0.625000 0.500000
vt 0.375000 0.500000
vt 0.625000 0.750000
vt 0.375000 0.750000
vt 0.625000 1.000000
vt 0.375000 1.000000
vt 0.125000 0.500000
vt 0.125000 0.750000
vt 0.625000 0.000000
vt 0.625000 0.250000
vt 0.625000 0.500000
vt 0.625000 0.750000
vt 0.625000 0.250000
vt 0.625000 0.500000
vt 0.625000 0.000000
vt 0.625000 0.750000
vt 0.625000 1.000000
vt 0.625000 1.000000
vt 0.625000 0.993855
vt 0.625000 0.256145
vt 0.625000 0.498791
vt 0.625000 0.751209
vn 0.3239 -0.3440 0.8813
vn 0.3239 0.3440 0.8813
vn -0.3239 0.3440 0.8813
vn -0.3239 -0.3440 0.8813
vn 0.8635 -0.3566 -0.3566
vn 0.8635 0.3566 -0.3566
vn 0.8635 0.3566 0.3566
vn 0.8635 -0.3566 0.3566
vn -0.3239 -0.8813 -0.3440
vn 0.3239 -0.8813 -0.3440
vn 0.3239 -0.8813 0.3440
vn -0.3239 -0.8813 0.3440
vn 0.3239 0.8813 -0.3440
vn -0.3239 0.8813 -0.3440
vn -0.3239 0.8813 0.3440
vn 0.3239 0.8813 0.3440
vn -0.8635 -0.3566 0.3566
vn -0.8635 0.3566 0.3566
vn -0.8635 0.3566 -0.3566
vn -0.8635 -0.3566 -0.3566
vn -0.3239 -0.3440 -0.8813
vn -0.3239 0.3440 -0.8813
vn 0.3239 0.3440 -0.8813
vn 0.3239 -0.3440 -0.8813
vn -0.5773 -0.5773 0.5773
vn -0.2615 -0.9198 0.2925
vn -0.2615 -0.9198 -0.2925
vn -0.5773 -0.5773 -0.5773
vn 0.2615 -0.9198 -0.2925
vn 0.5773 -0.5773 -0.5773
vn 0.2615 -0.9198 0.2925
vn 0.5773 -0.5773 0.5773
vn -0.5739 -0.5871 0.5708
vn -0.5739 -0.5871 -0.5708
vn 0.5739 -0.5871 -0.5708
vn 0.5739 -0.5871 0.5708
vn -0.6506 0.3984 -0.6465
vn 0.6506 0.3984 -0.6465
vn -0.6506 0.3984 0.6465
vn 0.6506 0.3984 0.6465
vn -0.2810 0.9108 0.3025
vn -0.2810 0.9108 -0.3025
vn 0.2810 0.9108 -0.3025
vn 0.2810 0.9108 0.3025
usemtl None
s 1
f 15/1/1 17/2/2 4/3/3 2/4/4
f 21/5/5 23/6/6 18/7/7 14/8/8
f 31/9/9 43/10/10 37/11/11 25/12/12
f 22/13/13 10/14/14 5/15/15 16/16/16
f 3/17/17 6/18/18 12/19/19 8/20/20
f 9/21/21 11/22/22 24/23/23 20/24/24
f 39/25/1 41/26/2 28/27/3 26/28/4
f 45/29/5 47/30/6 42/31/7 38/32/8
f 55/33/9 67/34/10 61/35/11 49/36/12
f 46/37/13 34/38/14 29/39/15 40/40/16
f 27/41/17 30/42/18 36/43/19 32/44/20
f 33/45/21 35/46/22 48/47/23 44/48/24
f 63/49/1 65/50/2 52/51/3 50/52/4
f 69/53/5 71/54/6 66/55/7 62/56/8
f 79/57/9 91/58/10 85/59/11 73/60/12
f 70/61/13 58/62/14 53/63/15 64/64/16
f 51/65/17 54/66/18 60/67/19 56/68/20
f 57/69/21 59/70/22 72/71/23 68/72/24
f 87/73/1 89/74/2 76/75/3 74/76/4
f 93/77/5 95/78/6 90/79/7 86/80/8
f 94/81/13 82/82/14 77/83/15 88/84/16
f 75/85/17 78/86/18 84/87/19 80/88/20
f 81/89/21 83/90/22 96/91/23 92/92/24
f 1/93/12 2/94/4 3/95/17
f 4/3/3 5/96/15 6/97/18
f 7/98/9 8/99/20 9/100/21
f 10/101/14 11/102/22 12/103/19
f 13/104/11 14/105/8 15/106/1
f 16/107/16 17/108/2 18/109/7
f 19/110/10 20/111/24 21/112/5
f 22/113/13 23/114/6 24/115/23
f 25/12/12 26/116/4 27/117/17
f 28/27/3 29/118/15 30/119/18
f 31/9/9 32/120/20 33/121/21
f 34/122/14 35/123/22 36/124/19
f 37/11/11 38/125/8 39/126/1
f 40/127/16 41/128/2 42/129/7
f 43/10/10 44/130/24 45/131/5
f 46/132/13 47/133/6 48/134/23
f 49/36/12 50/135/4 51/136/17
f 52/51/3 53/137/15 54/138/18
f 55/33/9 56/139/20 57/140/21
f 58/141/14 59/142/22 60/143/19
f 61/35/11 62/144/8 63/145/1
f 64/146/16 65/147/2 66/148/7
f 67/34/10 68/149/24 69/150/5
f 70/151/13 71/152/6 72/153/23
f 73/60/12 74/154/4 75/155/17
f 76/75/3 77/156/15 78/157/18
f 79/57/9 80/158/20 81/159/21
f 82/160/14 83/161/22 84/162/19
f 85/59/11 86/163/8 87/164/1
f 88/165/16 89/166/2 90/167/7
f 91/58/10 92/168/24 93/169/5
f 94/170/13 95/171/6 96/172/23
f 7/98/9 1/93/12 3/95/17 8/99/20
f 2/173/4 4/174/3 6/18/18 3/17/17
f 5/175/15 10/176/14 12/19/19 6/18/18
f 11/22/22 9/21/21 8/20/20 12/19/19
f 19/110/10 7/98/9 9/100/21 20/111/24
f 10/101/14 22/177/13 24/23/23 11/22/22
f 23/6/6 21/5/5 20/24/24 24/23/23
f 13/104/11 19/110/10 21/5/5 14/8/8
f 22/13/13 16/16/16 18/7/7 23/6/6
f 17/2/2 15/1/1 14/8/8 18/7/7
f 1/93/12 13/104/11 15/106/1 2/94/4
f 16/107/16 5/96/15 4/3/3 17/2/2
f 31/9/9 25/12/12 27/117/17 32/120/20
f 26/178/4 28/179/3 30/42/18 27/41/17
f 29/180/15 34/181/14 36/43/19 30/42/18
f 35/46/22 33/45/21 32/44/20 36/43/19
f 43/10/10 31/9/9 33/121/21 44/130/24
f 34/122/14 46/182/13 48/47/23 35/46/22
f 47/30/6 45/29/5 44/48/24 48/47/23
f 37/11/11 43/10/10 45/29/5 38/32/8
f 46/37/13 40/40/16 42/31/7 47/30/6
f 41/26/2 39/25/1 38/32/8 42/31/7
f 25/12/12 37/11/11 39/126/1 26/116/4
f 40/127/16 29/118/15 28/27/3 41/26/2
f 55/33/9 49/36/12 51/136/17 56/139/20
f 50/183/4 52/184/3 54/66/18 51/65/17
f 53/185/15 58/186/14 60/67/19 54/66/18
f 59/70/22 57/69/21 56/68/20 60/67/19
f 67/34/10 55/33/9 57/140/21 68/149/24
f 58/141/14 70/187/13 72/71/23 59/70/22
f 71/54/6 69/53/5 68/72/24 72/71/23
f 61/35/11 67/34/10 69/53/5 62/56/8
f 70/61/13 64/64/16 66/55/7 71/54/6
f 65/50/2 63/49/1 62/56/8 66/55/7
f 49/36/12 61/35/11 63/145/1 50/135/4
f 64/146/16 53/137/15 52/51/3 65/50/2
f 79/57/9 73/60/12 75/155/17 80/158/20
f 74/188/4 76/189/3 78/86/18 75/85/17
f 77/190/15 82/191/14 84/87/19 78/86/18
f 83/90/22 81/89/21 80/88/20 84/87/19
f 91/58/10 79/57/9 81/159/21 92/168/24
f 82/160/14 94/192/13 96/91/23 83/90/22
f 95/78/6 93/77/5 92/92/24 96/91/23
f 85/59/11 91/58/10 93/77/5 86/80/8
f 94/81/13 88/84/16 90/79/7 95/78/6
f 89/74/2 87/73/1 86/80/8 90/79/7
f 73/60/12 85/59/11 87/164/1 74/154/4
f 88/165/16 77/156/15 76/75/3 89/74/2
f 7/98/9 19/110/10 13/104/11 1/93/12
f 97/193/25 98/194/26 100/195/27 99/196/28
f 99/196/28 100/195/27 104/197/29 103/198/30
f 103/198/30 104/197/29 102/199/31 101/200/32
f 101/200/32 102/199/31 98/201/26 97/202/25
f 99/203/28 103/198/30 101/200/32 97/204/25
f 100/195/27 98/194/26 105/205/33 106/206/34
f 102/199/31 104/197/29 107/207/35 108/208/36
f 107/207/35 106/206/34 112/209/37 114/210/38
f 106/206/34 105/205/33 109/211/39 112/209/37
f 108/208/36 107/207/35 114/210/38 116/212/40
f 98/201/26 102/199/31 108/208/36 105/213/33
f 104/197/29 100/195/27 106/206/34 107/207/35
f 105/213/33 108/208/36 116/212/40 109/214/39
f 110/215/41 111/216/42 112/209/37 109/214/39
f 111/216/42 113/217/43 114/210/38 112/209/37
f 113/217/43 115/218/44 116/212/40 114/210/38
f 115/218/44 110/215/41 109/214/39 116/212/40
f 110/215/41 115/218/44 113/217/43 111/216/42
