# Blender v2.92.0 OBJ File: 'fase2.blend'
# www.blender.org
mtllib quadros.mtl
o Cube.005_Cube.007
v -29.886518 16.509510 -0.667842
v -29.886518 20.123657 -0.667842
v -29.876366 16.519663 -1.236215
v -29.876366 20.113504 -1.236215
v -26.272371 16.509510 -0.667842
v -26.272371 20.123657 -0.667842
v -26.282524 16.519663 -1.236215
v -26.282524 20.113504 -1.236215
v -29.423983 16.972046 -0.667842
v -29.423983 19.661121 -0.667842
v -26.734907 19.661121 -0.667842
v -26.734907 16.972046 -0.667842
v -29.423983 16.972046 -1.164448
v -29.423983 19.661121 -1.164448
v -26.734907 19.661121 -1.164448
v -26.734907 16.972046 -1.164448
vt 0.375000 0.000000
vt 0.625000 0.000000
vt 0.625000 0.250000
vt 0.375000 0.250000
vt 0.625000 0.500000
vt 0.375000 0.500000
vt 0.625000 0.750000
vt 0.375000 0.750000
vt 0.875000 0.750000
vt 0.875000 0.750000
vt 0.625000 0.750000
vt 0.125000 0.500000
vt 0.125000 0.750000
vt 0.875000 0.500000
vt 0.875000 0.750000
vt 0.625000 0.750000
vt 0.375000 0.750000
vt 0.375000 0.000000
vt 0.625000 0.000000
vt 0.125000 0.750000
vt 0.375000 0.750000
vt 0.625000 1.000000
vt 0.375000 1.000000
vt 0.125000 0.750000
vt 0.375000 0.000000
vt 0.625000 0.000000
vn -0.5820 -0.5820 0.5679
vn -0.5820 0.5820 0.5679
vn -0.5726 0.5726 -0.5867
vn -0.5726 -0.5726 -0.5867
vn 0.5726 0.5726 -0.5867
vn 0.5726 -0.5726 -0.5867
vn 0.5820 0.5820 0.5679
vn 0.5820 -0.5820 0.5679
vn 0.3015 -0.3015 0.9045
vn -0.3015 -0.3015 0.9045
vn 0.5773 -0.5773 0.5773
vn -0.5773 -0.5773 0.5773
vn -0.3015 0.3015 0.9045
vn 0.3015 0.3015 0.9045
vn -0.5773 0.5773 0.5773
vn 0.5773 0.5773 0.5773
usemtl None
s 1
f 1/1/1 2/2/2 4/3/3 3/4/4
f 3/4/4 4/3/3 8/5/5 7/6/6
f 7/6/6 8/5/5 6/7/7 5/8/8
f 6/7/7 2/9/2 10/10/9 11/11/10
f 3/12/4 7/6/6 5/8/8 1/13/1
f 8/5/5 4/14/3 2/9/2 6/7/7
f 11/11/10 10/10/9 14/15/11 15/16/12
f 5/8/8 6/7/7 11/11/10 12/17/13
f 2/2/2 1/1/1 9/18/14 10/19/9
f 1/13/1 5/8/8 12/17/13 9/20/14
f 16/21/15 15/16/12 14/22/11 13/23/16
f 12/17/13 11/11/10 15/16/12 16/21/15
f 9/20/14 12/17/13 16/21/15 13/24/16
f 10/19/9 9/18/14 13/25/16 14/26/11
o Cube.006_Cube.008
v -25.600479 14.859648 -0.077556
v -25.600479 21.773520 -0.077556
v -25.581175 14.879068 -1.236215
v -25.581175 21.754099 -1.236215
v -18.728401 14.859648 -0.077556
v -18.728401 21.773520 -0.077556
v -18.747705 14.879068 -1.236215
v -18.747705 21.754099 -1.236215
v -25.051468 15.321514 -0.077556
v -25.051468 21.311653 -0.077556
v -19.277414 21.311653 -0.077556
v -19.277414 15.321514 -0.077556
v -25.051468 15.321514 -1.164448
v -25.051468 21.311653 -1.164448
v -19.277414 21.311653 -1.164448
v -19.277414 15.321514 -1.164448
vt 0.375000 0.000000
vt 0.625000 0.000000
vt 0.625000 0.250000
vt 0.375000 0.250000
vt 0.625000 0.500000
vt 0.375000 0.500000
vt 0.625000 0.750000
vt 0.375000 0.750000
vt 0.875000 0.750000
vt 0.875000 0.750000
vt 0.625000 0.750000
vt 0.125000 0.500000
vt 0.125000 0.750000
vt 0.875000 0.500000
vt 0.875000 0.750000
vt 0.625000 0.750000
vt 0.375000 0.750000
vt 0.375000 0.000000
vt 0.625000 0.000000
vt 0.125000 0.750000
vt 0.375000 0.750000
vt 0.625000 1.000000
vt 0.375000 1.000000
vt 0.125000 0.750000
vt 0.375000 0.000000
vt 0.625000 0.000000
vn -0.5817 -0.5817 0.5686
vn -0.5817 0.5817 0.5686
vn -0.5729 0.5729 -0.5861
vn -0.5729 -0.5729 -0.5861
vn 0.5729 0.5729 -0.5861
vn 0.5729 -0.5729 -0.5861
vn 0.5817 0.5817 0.5686
vn 0.5817 -0.5817 0.5686
vn 0.3015 -0.3015 0.9045
vn -0.3015 -0.3015 0.9045
vn 0.5773 -0.5773 0.5773
vn -0.5773 -0.5773 0.5773
vn -0.3015 0.3015 0.9045
vn 0.3015 0.3015 0.9045
vn -0.5773 0.5773 0.5773
vn 0.5773 0.5773 0.5773
usemtl None
s 1
f 17/27/17 18/28/18 20/29/19 19/30/20
f 19/30/20 20/29/19 24/31/21 23/32/22
f 23/32/22 24/31/21 22/33/23 21/34/24
f 22/33/23 18/35/18 26/36/25 27/37/26
f 19/38/20 23/32/22 21/34/24 17/39/17
f 24/31/21 20/40/19 18/35/18 22/33/23
f 27/37/26 26/36/25 30/41/27 31/42/28
f 21/34/24 22/33/23 27/37/26 28/43/29
f 18/28/18 17/27/17 25/44/30 26/45/25
f 17/39/17 21/34/24 28/43/29 25/46/30
f 32/47/31 31/42/28 30/48/27 29/49/32
f 28/43/29 27/37/26 31/42/28 32/47/31
f 25/46/30 28/43/29 32/47/31 29/50/32
f 26/45/25 25/44/30 29/51/32 30/52/27
o Cube.007_Cube.009
v -16.978722 15.995914 -0.667842
v -16.978722 20.637253 -0.667842
v -16.944962 16.008951 -1.236215
v -16.944962 20.624216 -1.236215
v -4.960057 15.995914 -0.667842
v -4.960057 20.637253 -0.667842
v -4.993817 16.008951 -1.236215
v -4.993817 20.624216 -1.236215
v -16.279461 16.589909 -0.667842
v -16.279461 20.043259 -0.667842
v -5.659317 20.043259 -0.667842
v -5.659317 16.589909 -0.667842
v -16.279461 16.589909 -1.164448
v -16.279461 20.043259 -1.164448
v -5.659317 20.043259 -1.164448
v -5.659317 16.589909 -1.164448
vt 0.375000 0.000000
vt 0.625000 0.000000
vt 0.625000 0.250000
vt 0.375000 0.250000
vt 0.625000 0.500000
vt 0.375000 0.500000
vt 0.625000 0.750000
vt 0.375000 0.750000
vt 0.875000 0.750000
vt 0.875000 0.750000
vt 0.625000 0.750000
vt 0.125000 0.500000
vt 0.125000 0.750000
vt 0.875000 0.500000
vt 0.875000 0.750000
vt 0.625000 0.750000
vt 0.375000 0.750000
vt 0.375000 0.000000
vt 0.625000 0.000000
vt 0.125000 0.750000
vt 0.375000 0.750000
vt 0.625000 1.000000
vt 0.375000 1.000000
vt 0.125000 0.750000
vt 0.375000 0.000000
vt 0.625000 0.000000
vn -0.5944 -0.5813 0.5556
vn -0.5944 0.5813 0.5556
vn -0.5595 0.5731 -0.5988
vn -0.5595 -0.5731 -0.5988
vn 0.5595 0.5731 -0.5988
vn 0.5595 -0.5731 -0.5988
vn 0.5944 0.5813 0.5556
vn 0.5944 -0.5813 0.5556
vn 0.3015 -0.3015 0.9045
vn -0.3015 -0.3015 0.9045
vn 0.5773 -0.5773 0.5773
vn -0.5773 -0.5773 0.5773
vn -0.3015 0.3015 0.9045
vn 0.3015 0.3015 0.9045
vn -0.5773 0.5773 0.5773
vn 0.5773 0.5773 0.5773
usemtl None
s 1
f 33/53/33 34/54/34 36/55/35 35/56/36
f 35/56/36 36/55/35 40/57/37 39/58/38
f 39/58/38 40/57/37 38/59/39 37/60/40
f 38/59/39 34/61/34 42/62/41 43/63/42
f 35/64/36 39/58/38 37/60/40 33/65/33
f 40/57/37 36/66/35 34/61/34 38/59/39
f 43/63/42 42/62/41 46/67/43 47/68/44
f 37/60/40 38/59/39 43/63/42 44/69/45
f 34/54/34 33/53/33 41/70/46 42/71/41
f 33/65/33 37/60/40 44/69/45 41/72/46
f 48/73/47 47/68/44 46/74/43 45/75/48
f 44/69/45 43/63/42 47/68/44 48/73/47
f 41/72/46 44/69/45 48/73/47 45/76/48
f 42/71/41 41/70/46 45/77/48 46/78/43
o Cube.008_Cube.010
v -16.689192 21.404335 -1.507210
v -16.689192 30.662071 -1.507210
v -16.674366 21.430340 -1.842333
v -16.674366 30.636066 -1.842333
v -11.410820 21.404335 -1.507210
v -11.410820 30.662071 -1.507210
v -11.425646 21.430340 -1.842333
v -11.425646 30.636066 -1.842333
v -16.013670 22.589134 -1.507210
v -16.013670 29.477272 -1.507210
v -12.086342 29.477272 -1.507210
v -12.086342 22.589134 -1.507210
v -16.013670 22.589134 -1.737520
v -16.013670 29.477272 -1.737520
v -12.086342 29.477272 -1.737520
v -12.086342 22.589134 -1.737520
vt 0.375000 0.000000
vt 0.625000 0.000000
vt 0.625000 0.250000
vt 0.375000 0.250000
vt 0.625000 0.500000
vt 0.375000 0.500000
vt 0.625000 0.750000
vt 0.375000 0.750000
vt 0.875000 0.750000
vt 0.875000 0.750000
vt 0.625000 0.750000
vt 0.125000 0.500000
vt 0.125000 0.750000
vt 0.875000 0.500000
vt 0.875000 0.750000
vt 0.625000 0.750000
vt 0.375000 0.750000
vt 0.375000 0.000000
vt 0.625000 0.000000
vt 0.125000 0.750000
vt 0.375000 0.750000
vt 0.625000 1.000000
vt 0.375000 1.000000
vt 0.125000 0.750000
vt 0.375000 0.000000
vt 0.625000 0.000000
vn -0.5867 -0.5986 0.5453
vn -0.5867 0.5986 0.5453
vn -0.5670 0.5545 -0.6091
vn -0.5670 -0.5545 -0.6091
vn 0.5670 0.5545 -0.6091
vn 0.5670 -0.5545 -0.6091
vn 0.5867 0.5986 0.5453
vn 0.5867 -0.5986 0.5453
vn 0.3015 -0.3015 0.9045
vn -0.3015 -0.3015 0.9045
vn 0.5773 -0.5773 0.5773
vn -0.5773 -0.5773 0.5773
vn -0.3015 0.3015 0.9045
vn 0.3015 0.3015 0.9045
vn -0.5773 0.5773 0.5773
vn 0.5773 0.5773 0.5773
usemtl None
s 1
f 49/79/49 50/80/50 52/81/51 51/82/52
f 51/82/52 52/81/51 56/83/53 55/84/54
f 55/84/54 56/83/53 54/85/55 53/86/56
f 54/85/55 50/87/50 58/88/57 59/89/58
f 51/90/52 55/84/54 53/86/56 49/91/49
f 56/83/53 52/92/51 50/87/50 54/85/55
f 59/89/58 58/88/57 62/93/59 63/94/60
f 53/86/56 54/85/55 59/89/58 60/95/61
f 50/80/50 49/79/49 57/96/62 58/97/57
f 49/91/49 53/86/56 60/95/61 57/98/62
f 64/99/63 63/94/60 62/100/59 61/101/64
f 60/95/61 59/89/58 63/94/60 64/99/63
f 57/98/62 60/95/61 64/99/63 61/102/64
f 58/97/57 57/96/62 61/103/64 62/104/59
o Cube.009_Cube.011
v -31.770988 23.044100 -1.779819
v -31.770988 31.087786 -1.779819
v -31.737654 23.066694 -2.125296
v -31.737654 31.065191 -2.125296
v -19.903893 23.044100 -1.779819
v -19.903893 31.087786 -1.779819
v -19.937227 23.066694 -2.125296
v -19.937227 31.065191 -2.125296
v -30.908356 24.073526 -1.779819
v -30.908356 30.058359 -1.779819
v -20.766525 30.058359 -1.779819
v -20.766525 24.073526 -1.779819
v -30.908356 24.073526 -1.965570
v -30.908356 30.058359 -1.965570
v -20.766525 30.058359 -1.965570
v -20.766525 24.073526 -1.965570
vt 0.375000 0.000000
vt 0.625000 0.000000
vt 0.625000 0.250000
vt 0.375000 0.250000
vt 0.625000 0.500000
vt 0.375000 0.500000
vt 0.625000 0.750000
vt 0.375000 0.750000
vt 0.875000 0.750000
vt 0.875000 0.750000
vt 0.625000 0.750000
vt 0.125000 0.500000
vt 0.125000 0.750000
vt 0.875000 0.500000
vt 0.875000 0.750000
vt 0.625000 0.750000
vt 0.375000 0.750000
vt 0.375000 0.000000
vt 0.625000 0.000000
vt 0.125000 0.750000
vt 0.375000 0.750000
vt 0.625000 1.000000
vt 0.375000 1.000000
vt 0.125000 0.750000
vt 0.375000 0.000000
vt 0.625000 0.000000
vn -0.6029 -0.5919 0.5349
vn -0.6029 0.5919 0.5349
vn -0.5492 0.5610 -0.6194
vn -0.5492 -0.5610 -0.6195
vn 0.5492 0.5610 -0.6194
vn 0.5492 -0.5610 -0.6195
vn 0.6029 0.5919 0.5349
vn 0.6029 -0.5919 0.5349
vn 0.3015 -0.3015 0.9045
vn -0.3015 -0.3015 0.9045
vn 0.5773 -0.5773 0.5773
vn -0.5773 -0.5773 0.5773
vn -0.3015 0.3015 0.9045
vn 0.3015 0.3015 0.9045
vn -0.5773 0.5773 0.5773
vn 0.5773 0.5773 0.5773
usemtl None
s 1
f 65/105/65 66/106/66 68/107/67 67/108/68
f 67/108/68 68/107/67 72/109/69 71/110/70
f 71/110/70 72/109/69 70/111/71 69/112/72
f 70/111/71 66/113/66 74/114/73 75/115/74
f 67/116/68 71/110/70 69/112/72 65/117/65
f 72/109/69 68/118/67 66/113/66 70/111/71
f 75/115/74 74/114/73 78/119/75 79/120/76
f 69/112/72 70/111/71 75/115/74 76/121/77
f 66/106/66 65/105/65 73/122/78 74/123/73
f 65/117/65 69/112/72 76/121/77 73/124/78
f 80/125/79 79/120/76 78/126/75 77/127/80
f 76/121/77 75/115/74 79/120/76 80/125/79
f 73/124/78 76/121/77 80/125/79 77/128/80
f 74/123/73 73/122/78 77/129/80 78/130/75
