# Blender v2.92.0 OBJ File: 'porta6.blend'
# www.blender.org
mtllib alcool.mtl
o alcool_Cube
v -14.654755 15.032832 -2.538940
v -13.858916 15.032832 -2.538940
v -14.654755 11.716960 -1.857640
v -13.858916 11.716960 -1.857640
v -14.575171 11.537469 -1.566622
v -13.938499 11.537469 -1.566622
v -14.575171 11.697017 -1.814982
v -13.938499 11.697017 -1.814982
v -14.575171 12.220909 -1.448237
v -13.938499 12.220909 -1.448237
v -14.575171 12.380457 -1.789498
v -13.938499 12.380457 -1.789498
v -14.097668 13.397202 -2.365474
v -14.416003 13.397202 -2.365474
v -14.416003 14.467749 -2.365474
v -14.097668 14.467749 -2.365474
v -14.974419 11.550669 -1.501955
v -15.052674 11.607223 -1.431064
v -15.052674 15.761889 -1.431064
v -15.052674 12.457338 -2.460685
v -14.974419 12.446450 -2.538940
v -14.974419 15.032832 -2.538940
v -15.052674 15.034745 -2.460685
v -13.539252 11.550669 -1.501955
v -13.460997 11.607223 -1.431064
v -13.460997 15.761889 -1.431064
v -13.460997 12.465261 -2.460685
v -13.539252 12.454371 -2.538940
v -13.460997 15.034745 -2.460685
v -13.539252 15.032832 -2.538940
v -14.654755 11.544814 -1.504407
v -14.654755 11.606376 -1.431064
v -13.858916 11.606376 -1.431064
v -13.858916 11.544814 -1.504407
v -13.858916 15.770126 -1.431064
v -13.858916 15.831352 -1.512982
v -14.654755 15.831352 -1.512982
v -14.654755 15.770126 -1.431064
v -15.045793 15.770126 -1.431064
v -14.974419 15.831352 -1.512982
v -13.539252 15.831352 -1.512981
v -13.467879 15.770126 -1.431064
v -14.097668 13.397202 -2.504613
v -14.077458 13.362875 -2.538940
v -14.436213 13.362875 -2.538940
v -14.416003 13.397202 -2.504613
v -14.416003 14.467749 -2.504613
v -14.435648 14.514243 -2.538940
v -14.078023 14.514243 -2.538940
v -14.097668 14.467749 -2.504613
v -13.867465 11.989801 -2.575122
v -14.646206 11.989801 -2.575122
v -13.867465 11.989801 -2.429589
v -14.646206 11.989801 -2.429589
v -13.858916 12.434720 -2.527985
v -13.863863 12.454371 -2.538940
v -13.853720 12.454371 -2.538940
v -14.642708 12.446450 -2.538940
v -14.654755 12.434720 -2.527985
v -14.642707 12.454371 -2.538940
v -14.654755 12.292568 -2.395224
v -14.642708 12.281107 -2.384520
v -14.654755 12.272303 -2.376297
v -13.870963 12.281107 -2.384520
v -13.858916 12.292568 -2.395224
v -13.858916 12.272303 -2.376297
v -13.870963 11.998323 -2.582836
v -13.858916 11.998323 -2.570732
v -13.866105 11.991157 -2.576349
v -14.654755 11.998323 -2.570732
v -14.642708 11.998323 -2.582836
v -14.647566 11.991157 -2.576349
v -13.858916 11.998323 -2.432112
v -13.870963 11.998323 -2.419971
v -13.865589 11.991672 -2.427478
v -14.642708 11.998323 -2.419971
v -14.654755 11.998323 -2.432112
v -14.648082 11.991672 -2.427478
vt 0.687500 0.500000
vt 0.687500 0.739693
vt 0.637291 0.739693
vt 0.637291 0.500000
vt 0.380349 0.750000
vt 0.619415 0.750000
vt 0.619906 0.751081
vt 0.619906 0.812500
vt 0.380299 0.812500
vt 0.862709 0.500000
vt 0.862709 0.739693
vt 0.812500 0.739693
vt 0.812500 0.500000
vt 0.187500 0.546868
vt 0.189392 0.544498
vt 0.310608 0.544499
vt 0.312500 0.546868
vt 0.312500 0.696326
vt 0.187500 0.696326
vt 0.383249 0.522550
vt 0.616624 0.522550
vt 0.625000 0.437500
vt 0.375060 0.437500
vt 0.379696 0.437500
vt 0.625000 0.437500
vt 0.312500 0.696326
vt 0.187500 0.696326
vt 0.380299 0.937500
vt 0.619906 0.937500
vt 0.619906 0.998919
vt 0.619415 1.000000
vt 0.380349 1.000000
vt 0.187500 0.741408
vt 0.187500 0.750000
vt 0.376164 0.312500
vt 0.625000 0.312500
vt 0.625000 0.312500
vt 0.379696 0.312500
vt 0.380349 0.000000
vt 0.619415 0.000000
vt 0.616624 0.227450
vt 0.383249 0.227450
vt 0.362709 0.500000
vt 0.362709 0.741080
vt 0.312500 0.741110
vt 0.312500 0.541414
vt 0.312500 0.503157
vt 0.314392 0.500000
vt 0.312500 0.741408
vt 0.312500 0.750000
vt 0.375000 0.439392
vt 0.376164 0.437500
vt 0.625000 0.487709
vt 0.375000 0.487709
vt 0.188843 0.502339
vt 0.311157 0.502339
vt 0.311157 0.542159
vt 0.188843 0.542159
vt 0.187500 0.541414
vt 0.187500 0.741110
vt 0.137291 0.741080
vt 0.137291 0.500000
vt 0.185608 0.500000
vt 0.187500 0.503157
vt 0.311371 0.501967
vt 0.312500 0.503307
vt 0.312500 0.541181
vt 0.311452 0.542673
vt 0.189392 0.544498
vt 0.310608 0.544499
vt 0.375000 0.805076
vt 0.375000 0.944924
vt 0.375000 0.937500
vt 0.375000 0.812500
vt 0.312500 0.750000
vt 0.312500 0.696326
vt 0.125000 0.745670
vt 0.125000 0.508941
vt 0.187500 0.696326
vt 0.187500 0.750000
vt 0.375000 0.937500
vt 0.375000 0.812500
vt 0.375000 0.312500
vt 0.625000 0.312500
vt 0.625000 0.312500
vt 0.375000 0.312500
vt 0.812500 0.500000
vt 0.687500 0.500000
vt 0.687500 0.500000
vt 0.812500 0.500000
vt 0.625000 0.437500
vt 0.375000 0.437500
vt 0.375000 0.437500
vt 0.625000 0.437500
vt 0.687500 0.500000
vt 0.812500 0.500000
vt 0.375000 0.262291
vt 0.625000 0.262291
vt 0.375000 0.310608
vt 0.187500 0.503307
vt 0.187500 0.541181
vt 0.620987 0.750000
vt 0.619906 0.000000
vt 0.625000 0.010307
vt 0.625000 0.250000
vt 0.375000 0.750000
vt 0.312500 0.750000
vt 0.187500 0.750000
vt 0.125000 0.750000
vt 0.625000 0.812500
vt 0.625000 0.937500
vt 0.625000 0.987709
vt 0.625000 0.762291
vt 0.375000 0.440903
vt 0.375000 0.309097
vt 0.188548 0.542673
vt 0.188629 0.501967
vt 0.189392 0.500000
vt 0.310608 0.500000
vt 0.375000 0.435608
vt 0.375000 0.314392
vt 0.375000 0.312456
vt 0.375000 0.437500
vt 0.375000 0.437500
vt 0.375000 0.437500
vt 0.189358 0.500265
vt 0.187500 0.500000
vt 0.187500 0.544498
vt 0.312500 0.544498
vt 0.311551 0.500163
vt 0.187500 0.500000
vt 0.187500 0.501772
vt 0.312500 0.544499
vt 0.187500 0.544498
vt 0.187500 0.500000
vt 0.375000 0.437500
vt 0.375000 0.435608
vt 0.375000 0.314392
vn 0.0000 0.7891 -0.6142
vn 0.0000 0.0000 1.0000
vn 0.0000 -0.6826 -0.7308
vn 1.0000 0.0000 0.0000
vn -0.0000 0.0000 -1.0000
vn 0.0000 -0.9059 -0.4235
vn -0.2050 -0.8571 -0.4726
vn -1.0000 0.0000 0.0000
vn 0.1754 -0.7408 -0.6484
vn 0.2050 -0.8571 -0.4726
vn 0.0000 -1.0000 0.0000
vn -0.1667 -0.7433 -0.6478
vn 0.7060 -0.7082 0.0000
vn 0.0000 -0.1244 0.9922
vn 0.0000 -0.9931 0.1173
vn -0.6865 -0.5554 -0.4692
vn 0.0000 0.1707 -0.9853
vn 0.0000 -0.0373 0.9993
vn 0.6915 0.5805 -0.4299
vn -0.6915 0.5805 -0.4299
vn -0.7071 0.0000 -0.7071
vn 0.7071 0.0000 -0.7071
vn 0.6873 -0.5528 -0.4712
vn 0.0051 -0.7750 0.6319
vn -0.0051 -0.7750 0.6319
vn 0.0000 -0.7659 0.6429
vn 0.0000 0.8010 0.5987
vn 0.0000 0.7071 -0.7071
vn 0.0000 -0.5940 -0.8045
vn 0.8648 -0.0002 -0.5021
vn -0.8648 -0.0002 -0.5021
vn 0.0000 1.0000 0.0000
vn -0.7060 -0.7082 0.0000
vn 0.0000 -0.6711 -0.7414
vn -0.0000 -0.7485 0.6632
vn 0.0000 -0.4869 -0.8735
vn -0.6728 0.0000 -0.7398
vn 0.0000 -0.6825 -0.7309
vn 0.7000 -0.1561 -0.6969
vn -0.7000 -0.1560 -0.6969
vn 0.6929 -0.2162 0.6878
vn -0.6929 -0.2161 0.6879
vn -0.7071 0.0689 -0.7037
vn 0.8233 0.0483 -0.5655
vn 0.7071 -0.0880 0.7016
vn -0.7071 -0.0880 0.7016
vn -0.0005 0.0966 -0.9953
usemtl None
s off
f 2/1/1 36/2/1 41/3/1 30/4/1
f 25/5/2 26/6/2 42/7/2 35/8/2 33/9/2
f 22/10/1 40/11/1 37/12/1 1/13/1
f 63/14/3 62/15/3 64/16/3 66/17/3 4/18/3 3/19/3
f 26/6/4 25/5/4 27/20/4 29/21/4
f 2/22/5 56/23/5 44/24/5 49/25/5
f 3/19/6 4/18/6 8/26/6 7/27/6
f 32/28/2 38/29/2 39/30/2 19/31/2 18/32/2
f 31/33/7 3/19/7 7/27/7 5/34/7
f 60/35/5 1/36/5 48/37/5 45/38/5
f 18/39/8 19/40/8 23/41/8 20/42/8
f 28/43/9 24/44/9 34/45/9 4/18/9 66/17/9 65/46/9 55/47/9 57/48/9
f 4/18/10 34/49/10 6/50/10 8/26/10
f 57/51/5 56/52/5 2/22/5 30/53/5 28/54/5
f 52/55/11 51/56/11 53/57/11 54/58/11
f 61/59/12 63/14/12 3/19/12 31/60/12 17/61/12 21/62/12 60/63/12 59/64/12
f 69/65/13 68/66/13 73/67/13 75/68/13 53/57/13 51/56/13
f 64/16/14 62/15/14 76/69/14 74/70/14
f 34/71/15 31/72/15 5/73/15 6/74/15
f 8/26/8 6/50/8 10/75/8 12/76/8
f 21/62/16 17/61/16 18/77/16 20/78/16
f 11/79/6 12/76/6 10/75/6 9/80/6
f 6/74/17 5/73/17 9/81/17 10/82/17
f 7/27/18 8/26/18 12/76/18 11/79/18
f 5/34/4 7/27/4 11/79/4 9/80/4
f 46/83/4 47/84/4 15/85/4 14/86/4
f 55/47/4 65/46/4 73/67/4 68/66/4
f 47/87/11 50/88/11 16/89/11 15/90/11
f 50/91/8 43/92/8 13/93/8 16/94/8
f 14/86/5 15/85/5 16/94/5 13/93/5
f 1/13/5 2/1/5 49/95/5 48/96/5
f 21/97/5 22/98/5 1/36/5 60/99/5
f 61/59/8 59/64/8 70/100/8 77/101/8
f 30/4/19 41/3/19 42/102/19 26/6/19 29/21/19
f 39/103/20 40/104/20 22/105/20 23/41/20 19/40/20
f 22/98/21 21/97/21 20/42/21 23/41/21
f 29/21/22 27/20/22 28/54/22 30/53/22
f 24/44/23 28/43/23 27/20/23 25/5/23
f 34/45/24 24/44/24 25/106/24 33/107/24
f 17/61/25 31/60/25 32/108/25 18/109/25
f 31/72/26 34/71/26 33/9/26 32/28/26
f 36/110/27 37/111/27 38/29/27 35/8/27
f 37/111/27 40/112/27 39/30/27 38/29/27
f 41/113/27 36/110/27 35/8/27 42/7/27
f 33/9/2 35/8/2 38/29/2 32/28/2
f 44/114/28 45/115/28 46/83/28 43/92/28
f 48/96/29 49/95/29 50/88/29 47/87/29
f 47/84/30 46/83/30 45/38/30 48/37/30
f 49/25/31 44/24/31 43/92/31 50/91/31
f 43/92/32 46/83/32 14/86/32 13/93/32
f 1/13/1 37/12/1 36/2/1 2/1/1
f 52/55/33 54/58/33 78/116/33 77/101/33 70/100/33 72/117/33
f 51/56/34 52/55/34 72/117/34 71/118/34 67/119/34 69/65/34
f 75/68/35 74/70/35 76/69/35 78/116/35 54/58/35 53/57/35
f 56/120/5 58/121/5 60/122/5 45/115/5 44/114/5
f 55/123/36 56/124/36 57/125/36
f 58/126/37 59/64/37 60/127/37
f 61/59/38 62/128/38 63/14/38
f 64/16/38 65/129/38 66/17/38
f 67/130/39 68/66/39 69/65/39
f 70/100/40 71/131/40 72/132/40
f 73/67/41 74/133/41 75/68/41
f 76/69/42 77/134/42 78/116/42
f 70/100/43 59/64/43 58/135/43 71/131/43
f 55/123/44 68/136/44 67/137/44 56/120/44
f 64/16/45 74/70/45 73/67/45 65/46/45
f 76/69/46 62/15/46 61/59/46 77/101/46
f 58/121/47 56/120/47 67/137/47 71/138/47
