# This file uses centimeters as units for non-parametric coordinates.

mtllib Porta lapis.mtl
g default
v 0.523525 -1.018543 -0.170103
v 0.445337 -1.018543 -0.323556
v 0.323556 -1.018543 -0.445337
v 0.170103 -1.018543 -0.523525
v 0.000000 -1.018543 -0.550466
v -0.170103 -1.018543 -0.523525
v -0.323556 -1.018543 -0.445337
v -0.445337 -1.018543 -0.323556
v -0.523525 -1.018543 -0.170103
v -0.550466 -1.018543 0.000000
v -0.523525 -1.018543 0.170103
v -0.445337 -1.018543 0.323556
v -0.323556 -1.018543 0.445337
v -0.170103 -1.018543 0.523524
v 0.000000 -1.018543 0.550466
v 0.170103 -1.018543 0.523524
v 0.323556 -1.018543 0.445336
v 0.445336 -1.018543 0.323556
v 0.523524 -1.018543 0.170103
v 0.550466 -1.018543 0.000000
v 0.568488 1.018543 -0.184713
v 0.483585 1.018543 -0.351345
v 0.351345 1.018543 -0.483585
v 0.184713 1.018543 -0.568488
v 0.000000 1.018543 -0.597744
v -0.184713 1.018543 -0.568488
v -0.351345 1.018543 -0.483585
v -0.483585 1.018543 -0.351345
v -0.568488 1.018543 -0.184713
v -0.597744 1.018543 0.000000
v -0.568488 1.018543 0.184713
v -0.483585 1.018543 0.351345
v -0.351345 1.018543 0.483585
v -0.184713 1.018543 0.568488
v 0.000000 1.018543 0.597744
v 0.184713 1.018543 0.568488
v 0.351345 1.018543 0.483585
v 0.483585 1.018543 0.351345
v 0.568488 1.018543 0.184713
v 0.597743 1.018543 0.000000
v 0.571269 1.018543 0.000000
v 0.543310 1.018543 -0.176532
v 0.462167 1.018543 -0.335783
v 0.335784 1.018543 -0.462167
v 0.176532 1.018543 -0.543309
v 0.000000 1.018543 -0.571269
v -0.176532 1.018543 -0.543309
v -0.335783 1.018543 -0.462167
v -0.462167 1.018543 -0.335783
v -0.543309 1.018543 -0.176532
v -0.571269 1.018543 0.000000
v -0.543309 1.018543 0.176532
v -0.462167 1.018543 0.335783
v -0.335783 1.018543 0.462167
v -0.176532 1.018543 0.543309
v 0.000000 1.018543 0.571269
v 0.176532 1.018543 0.543309
v 0.335783 1.018543 0.462167
v 0.462167 1.018543 0.335783
v 0.543309 1.018543 0.176532
v 0.461634 -0.757966 0.000000
v 0.439040 -0.757966 -0.142653
v 0.373470 -0.757966 -0.271341
v 0.271342 -0.757966 -0.373470
v 0.142653 -0.757966 -0.439040
v 0.000000 -0.757966 -0.461635
v -0.142653 -0.757966 -0.439040
v -0.271341 -0.757966 -0.373470
v -0.373470 -0.757966 -0.271341
v -0.439040 -0.757966 -0.142653
v -0.461634 -0.757966 0.000000
v -0.439040 -0.757966 0.142653
v -0.373470 -0.757966 0.271341
v -0.271341 -0.757966 0.373470
v -0.142653 -0.757966 0.439040
v 0.000000 -0.757966 0.461634
v 0.142653 -0.757966 0.439040
v 0.271341 -0.757966 0.373470
v 0.373470 -0.757966 0.271341
v 0.439040 -0.757966 0.142653
vt 0.375000 0.312500
vt 0.387500 0.312500
vt 0.387500 0.688440
vt 0.375000 0.688440
vt 0.400000 0.312500
vt 0.400000 0.688440
vt 0.412500 0.312500
vt 0.412500 0.688440
vt 0.425000 0.312500
vt 0.425000 0.688440
vt 0.437500 0.312500
vt 0.437500 0.688440
vt 0.450000 0.312500
vt 0.450000 0.688440
vt 0.462500 0.312500
vt 0.462500 0.688440
vt 0.475000 0.312500
vt 0.475000 0.688440
vt 0.487500 0.312500
vt 0.487500 0.688440
vt 0.500000 0.312500
vt 0.500000 0.688440
vt 0.512500 0.312500
vt 0.512500 0.688440
vt 0.525000 0.312500
vt 0.525000 0.688440
vt 0.537500 0.312500
vt 0.537500 0.688440
vt 0.550000 0.312500
vt 0.550000 0.688440
vt 0.562500 0.312500
vt 0.562500 0.688440
vt 0.575000 0.312500
vt 0.575000 0.688440
vt 0.587500 0.312500
vt 0.587500 0.688440
vt 0.600000 0.312500
vt 0.600000 0.688440
vt 0.612500 0.312500
vt 0.612500 0.688440
vt 0.625000 0.312500
vt 0.625000 0.688440
vt 0.648603 0.204534
vt 0.626409 0.248091
vt 0.591841 0.282659
vt 0.548284 0.304853
vt 0.500000 0.312500
vt 0.451716 0.304853
vt 0.408159 0.282659
vt 0.373591 0.248091
vt 0.351397 0.204534
vt 0.343750 0.156250
vt 0.351397 0.107966
vt 0.373591 0.064409
vt 0.408159 0.029841
vt 0.451716 0.007647
vt 0.500000 -0.000000
vt 0.548284 0.007647
vt 0.591842 0.029841
vt 0.626409 0.064408
vt 0.648603 0.107966
vt 0.656250 0.156250
vt 0.656250 0.843750
vt 0.648603 0.892034
vt 0.626409 0.935591
vt 0.591841 0.970159
vt 0.548284 0.992353
vt 0.500000 1.000000
vt 0.451716 0.992353
vt 0.408159 0.970159
vt 0.373591 0.935591
vt 0.351397 0.892034
vt 0.343750 0.843750
vt 0.351397 0.795466
vt 0.373591 0.751909
vt 0.408159 0.717341
vt 0.451716 0.695147
vt 0.500000 0.687500
vt 0.548284 0.695147
vt 0.591842 0.717341
vt 0.626409 0.751908
vt 0.648603 0.795466
vt 0.656250 0.843750
vt 0.648603 0.892034
vt 0.648603 0.892034
vt 0.656250 0.843750
vt 0.626409 0.935591
vt 0.626409 0.935591
vt 0.591841 0.970159
vt 0.591841 0.970159
vt 0.548284 0.992353
vt 0.548284 0.992353
vt 0.500000 1.000000
vt 0.500000 1.000000
vt 0.451716 0.992353
vt 0.451716 0.992353
vt 0.408159 0.970159
vt 0.408159 0.970159
vt 0.373591 0.935591
vt 0.373591 0.935591
vt 0.351397 0.892034
vt 0.351397 0.892034
vt 0.343750 0.843750
vt 0.343750 0.843750
vt 0.351397 0.795466
vt 0.351397 0.795466
vt 0.373591 0.751909
vt 0.373591 0.751909
vt 0.408159 0.717341
vt 0.408159 0.717341
vt 0.451716 0.695147
vt 0.451716 0.695147
vt 0.500000 0.687500
vt 0.500000 0.687500
vt 0.548284 0.695147
vt 0.548284 0.695147
vt 0.591842 0.717341
vt 0.591842 0.717341
vt 0.626409 0.751908
vt 0.626409 0.751908
vt 0.648603 0.795466
vt 0.648603 0.795466
vn 0.950801 -0.023202 -0.308933
vn 0.808799 -0.023202 -0.587627
vn 0.808799 -0.023202 -0.587627
vn 0.950801 -0.023202 -0.308933
vn 0.808799 -0.023202 -0.587627
vn 0.587627 -0.023202 -0.808799
vn 0.587627 -0.023202 -0.808799
vn 0.808799 -0.023202 -0.587627
vn 0.587627 -0.023202 -0.808799
vn 0.308934 -0.023202 -0.950800
vn 0.308934 -0.023202 -0.950800
vn 0.587627 -0.023202 -0.808799
vn 0.308934 -0.023202 -0.950800
vn 0.000000 -0.023202 -0.999731
vn 0.000000 -0.023202 -0.999731
vn 0.308934 -0.023202 -0.950800
vn 0.000000 -0.023202 -0.999731
vn -0.308934 -0.023202 -0.950800
vn -0.308934 -0.023202 -0.950800
vn 0.000000 -0.023202 -0.999731
vn -0.308934 -0.023202 -0.950800
vn -0.587627 -0.023202 -0.808799
vn -0.587627 -0.023202 -0.808799
vn -0.308934 -0.023202 -0.950800
vn -0.587627 -0.023202 -0.808799
vn -0.808799 -0.023202 -0.587627
vn -0.808799 -0.023202 -0.587627
vn -0.587627 -0.023202 -0.808799
vn -0.808799 -0.023202 -0.587627
vn -0.950800 -0.023202 -0.308934
vn -0.950800 -0.023202 -0.308934
vn -0.808799 -0.023202 -0.587627
vn -0.950800 -0.023202 -0.308934
vn -0.999731 -0.023202 0.000000
vn -0.999731 -0.023202 0.000000
vn -0.950800 -0.023202 -0.308934
vn -0.999731 -0.023202 0.000000
vn -0.950800 -0.023202 0.308934
vn -0.950800 -0.023202 0.308934
vn -0.999731 -0.023202 0.000000
vn -0.950800 -0.023202 0.308934
vn -0.808799 -0.023202 0.587627
vn -0.808799 -0.023202 0.587627
vn -0.950800 -0.023202 0.308934
vn -0.808799 -0.023202 0.587627
vn -0.587627 -0.023202 0.808799
vn -0.587627 -0.023202 0.808799
vn -0.808799 -0.023202 0.587627
vn -0.587627 -0.023202 0.808799
vn -0.308934 -0.023202 0.950800
vn -0.308934 -0.023202 0.950800
vn -0.587627 -0.023202 0.808799
vn -0.308934 -0.023202 0.950800
vn 0.000000 -0.023202 0.999731
vn 0.000000 -0.023202 0.999731
vn -0.308934 -0.023202 0.950800
vn 0.000000 -0.023202 0.999731
vn 0.308934 -0.023202 0.950800
vn 0.308934 -0.023202 0.950800
vn 0.000000 -0.023202 0.999731
vn 0.308934 -0.023202 0.950800
vn 0.587627 -0.023202 0.808799
vn 0.587627 -0.023202 0.808799
vn 0.308934 -0.023202 0.950800
vn 0.587627 -0.023202 0.808799
vn 0.808799 -0.023202 0.587627
vn 0.808799 -0.023202 0.587627
vn 0.587627 -0.023202 0.808799
vn 0.808799 -0.023202 0.587627
vn 0.950800 -0.023202 0.308934
vn 0.950800 -0.023202 0.308934
vn 0.808799 -0.023202 0.587627
vn 0.950800 -0.023202 0.308934
vn 0.999731 -0.023202 0.000001
vn 0.999731 -0.023202 0.000001
vn 0.950800 -0.023202 0.308934
vn 0.999731 -0.023202 0.000001
vn 0.950801 -0.023202 -0.308933
vn 0.950801 -0.023202 -0.308933
vn 0.999731 -0.023202 0.000001
vn 0.000000 -1.000000 0.000000
vn 0.000000 -1.000000 0.000000
vn 0.000000 -1.000000 0.000000
vn 0.000000 -1.000000 0.000000
vn 0.000000 -1.000000 0.000000
vn 0.000000 -1.000000 0.000000
vn 0.000000 -1.000000 0.000000
vn 0.000000 -1.000000 0.000000
vn 0.000000 -1.000000 0.000000
vn 0.000000 -1.000000 0.000000
vn 0.000000 -1.000000 0.000000
vn 0.000000 -1.000000 0.000000
vn 0.000000 -1.000000 0.000000
vn 0.000000 -1.000000 0.000000
vn 0.000000 -1.000000 0.000000
vn 0.000000 -1.000000 0.000000
vn 0.000000 -1.000000 0.000000
vn 0.000000 -1.000000 0.000000
vn 0.000000 -1.000000 0.000000
vn 0.000000 -1.000000 0.000000
vn 0.000000 1.000000 0.000000
vn 0.000000 1.000000 0.000000
vn 0.000000 1.000000 0.000000
vn 0.000000 1.000000 0.000000
vn 0.000000 1.000000 0.000000
vn 0.000000 1.000000 0.000000
vn 0.000000 1.000000 0.000000
vn 0.000000 1.000000 0.000000
vn 0.000000 1.000000 0.000000
vn 0.000000 1.000000 0.000000
vn 0.000000 1.000000 0.000000
vn 0.000000 1.000000 0.000000
vn 0.000000 1.000000 0.000000
vn 0.000000 1.000000 0.000000
vn 0.000000 1.000000 0.000000
vn 0.000000 1.000000 0.000000
vn 0.000000 1.000000 0.000000
vn 0.000000 1.000000 0.000000
vn 0.000000 1.000000 0.000000
vn 0.000000 1.000000 0.000000
vn 0.000000 1.000000 0.000000
vn 0.000000 1.000000 0.000000
vn 0.000000 1.000000 0.000000
vn 0.000000 1.000000 0.000000
vn 0.000000 1.000000 0.000000
vn 0.000000 1.000000 0.000000
vn 0.000000 1.000000 0.000000
vn 0.000000 1.000000 0.000000
vn 0.000000 1.000000 0.000000
vn 0.000000 1.000000 0.000000
vn 0.000000 1.000000 0.000000
vn 0.000000 1.000000 0.000000
vn 0.000000 1.000000 0.000000
vn 0.000000 1.000000 0.000000
vn 0.000000 1.000000 0.000000
vn 0.000000 1.000000 0.000000
vn 0.000000 1.000000 0.000000
vn 0.000000 1.000000 -0.000001
vn 0.000000 1.000000 -0.000001
vn 0.000000 1.000000 0.000000
vn 0.000000 1.000000 -0.000001
vn 0.000000 1.000000 -0.000001
vn 0.000000 1.000000 -0.000001
vn 0.000000 1.000000 -0.000001
vn 0.000000 1.000000 -0.000001
vn 0.000000 1.000000 0.000000
vn 0.000000 1.000000 0.000000
vn 0.000000 1.000000 -0.000001
vn 0.000000 1.000000 0.000000
vn 0.000000 1.000000 0.000000
vn 0.000000 1.000000 0.000000
vn 0.000000 1.000000 0.000000
vn 0.000000 1.000000 0.000000
vn 0.000000 1.000000 0.000000
vn 0.000000 1.000000 0.000000
vn 0.000000 1.000000 0.000000
vn 0.000000 1.000000 0.000000
vn 0.000000 1.000000 0.000000
vn 0.000000 1.000000 0.000000
vn 0.000000 1.000000 0.000000
vn 0.000000 1.000000 0.000000
vn 0.000000 1.000000 0.000000
vn 0.000000 1.000000 0.000000
vn 0.000000 1.000000 0.000000
vn 0.000000 1.000000 0.000000
vn 0.000000 1.000000 0.000000
vn 0.000000 1.000000 0.000000
vn 0.000000 1.000000 0.000000
vn 0.000000 1.000000 0.000000
vn 0.000000 1.000000 0.000000
vn 0.000000 1.000000 0.000000
vn 0.000000 1.000000 0.000000
vn 0.000000 1.000000 0.000000
vn 0.000000 1.000000 0.000000
vn 0.000000 1.000000 0.000000
vn 0.000000 1.000000 0.000000
vn 0.000000 1.000000 0.000000
vn 0.000000 1.000000 0.000000
vn 0.000000 1.000000 0.000000
vn 0.000000 1.000000 0.000000
vn 0.000000 1.000000 0.000000
vn 0.000000 1.000000 0.000000
vn 0.000000 1.000000 0.000000
vn 0.000000 1.000000 0.000000
vn 0.000000 1.000000 0.000000
vn 0.000000 1.000000 0.000000
vn 0.000000 1.000000 0.000000
vn 0.000000 1.000000 0.000000
vn 0.000000 1.000000 0.000000
vn 0.000000 1.000000 0.000000
vn 0.000000 1.000000 0.000000
vn 0.000000 1.000000 0.000000
vn 0.000000 1.000000 0.000000
vn 0.000000 1.000000 0.000000
vn 0.000000 1.000000 0.000000
vn 0.000000 1.000000 0.000000
vn 0.000000 1.000000 0.000000
vn 0.000000 1.000000 0.000000
vn 0.000000 1.000000 0.000000
vn 0.000000 1.000000 0.000000
vn -0.985859 0.060841 0.156143
vn -0.985859 0.060841 0.156142
vn -0.985859 0.060841 0.156142
vn -0.985859 0.060841 0.156143
vn -0.889356 0.060841 0.453150
vn -0.889356 0.060841 0.453150
vn -0.889356 0.060841 0.453150
vn -0.889356 0.060841 0.453150
vn -0.705797 0.060841 0.705797
vn -0.705797 0.060841 0.705797
vn -0.705797 0.060841 0.705797
vn -0.705797 0.060841 0.705797
vn -0.453149 0.060841 0.889356
vn -0.453149 0.060841 0.889356
vn -0.453149 0.060841 0.889356
vn -0.453149 0.060841 0.889356
vn -0.156145 0.060841 0.985859
vn -0.156145 0.060841 0.985859
vn -0.156145 0.060841 0.985859
vn -0.156145 0.060841 0.985859
vn 0.156145 0.060841 0.985859
vn 0.156145 0.060841 0.985859
vn 0.156145 0.060841 0.985859
vn 0.156145 0.060841 0.985859
vn 0.453150 0.060841 0.889356
vn 0.453150 0.060841 0.889356
vn 0.453150 0.060841 0.889356
vn 0.453150 0.060841 0.889356
vn 0.705797 0.060841 0.705797
vn 0.705797 0.060841 0.705797
vn 0.705797 0.060841 0.705797
vn 0.705797 0.060841 0.705797
vn 0.889356 0.060841 0.453150
vn 0.889356 0.060841 0.453150
vn 0.889356 0.060841 0.453149
vn 0.889356 0.060841 0.453150
vn 0.985859 0.060841 0.156145
vn 0.985859 0.060841 0.156145
vn 0.985859 0.060841 0.156145
vn 0.985859 0.060841 0.156145
vn 0.985859 0.060841 -0.156145
vn 0.985859 0.060841 -0.156145
vn 0.985859 0.060841 -0.156145
vn 0.985859 0.060841 -0.156145
vn 0.889356 0.060841 -0.453150
vn 0.889356 0.060841 -0.453150
vn 0.889356 0.060841 -0.453150
vn 0.889356 0.060841 -0.453150
vn 0.705797 0.060841 -0.705797
vn 0.705797 0.060841 -0.705797
vn 0.705797 0.060841 -0.705797
vn 0.705797 0.060841 -0.705797
vn 0.453149 0.060841 -0.889356
vn 0.453149 0.060841 -0.889356
vn 0.453149 0.060841 -0.889356
vn 0.453149 0.060841 -0.889356
vn 0.156145 0.060841 -0.985859
vn 0.156145 0.060841 -0.985859
vn 0.156145 0.060841 -0.985859
vn 0.156145 0.060841 -0.985859
vn -0.156145 0.060841 -0.985859
vn -0.156145 0.060841 -0.985859
vn -0.156145 0.060841 -0.985859
vn -0.156145 0.060841 -0.985859
vn -0.453149 0.060841 -0.889356
vn -0.453149 0.060841 -0.889356
vn -0.453149 0.060841 -0.889356
vn -0.453149 0.060841 -0.889356
vn -0.705797 0.060841 -0.705797
vn -0.705797 0.060841 -0.705797
vn -0.705797 0.060841 -0.705797
vn -0.705797 0.060841 -0.705797
vn -0.889356 0.060841 -0.453150
vn -0.889356 0.060841 -0.453150
vn -0.889356 0.060841 -0.453150
vn -0.889356 0.060841 -0.453150
vn -0.985859 0.060841 -0.156145
vn -0.985859 0.060841 -0.156145
vn -0.985859 0.060841 -0.156145
vn -0.985859 0.060841 -0.156145
s off
g pCylinder1
usemtl initialShadingGroup
f 1/1/1 2/2/2 22/3/3 21/4/4
f 2/2/5 3/5/6 23/6/7 22/3/8
f 3/5/9 4/7/10 24/8/11 23/6/12
f 4/7/13 5/9/14 25/10/15 24/8/16
f 5/9/17 6/11/18 26/12/19 25/10/20
f 6/11/21 7/13/22 27/14/23 26/12/24
f 7/13/25 8/15/26 28/16/27 27/14/28
f 8/15/29 9/17/30 29/18/31 28/16/32
f 9/17/33 10/19/34 30/20/35 29/18/36
f 10/19/37 11/21/38 31/22/39 30/20/40
f 11/21/41 12/23/42 32/24/43 31/22/44
f 12/23/45 13/25/46 33/26/47 32/24/48
f 13/25/49 14/27/50 34/28/51 33/26/52
f 14/27/53 15/29/54 35/30/55 34/28/56
f 15/29/57 16/31/58 36/32/59 35/30/60
f 16/31/61 17/33/62 37/34/63 36/32/64
f 17/33/65 18/35/66 38/36/67 37/34/68
f 18/35/69 19/37/70 39/38/71 38/36/72
f 19/37/73 20/39/74 40/40/75 39/38/76
f 20/39/77 1/41/78 21/42/79 40/40/80
f 19/43/81 18/44/82 17/45/83 16/46/84 15/47/85 14/48/86 13/49/87 12/50/88 11/51/89 10/52/90 9/53/91 8/54/92 7/55/93 6/56/94 5/57/95 4/58/96 3/59/97 2/60/98 1/61/99 20/62/100
f 61/63/101 62/64/102 63/65/103 64/66/104 65/67/105 66/68/106 67/69/107 68/70/108 69/71/109 70/72/110 71/73/111 72/74/112 73/75/113 74/76/114 75/77/115 76/78/116 77/79/117 78/80/118 79/81/119 80/82/120
f 40/83/121 21/84/122 42/85/123 41/86/124
f 21/84/125 22/87/126 43/88/127 42/85/128
f 22/87/129 23/89/130 44/90/131 43/88/132
f 23/89/133 24/91/134 45/92/135 44/90/136
f 24/91/137 25/93/138 46/94/139 45/92/140
f 25/93/141 26/95/142 47/96/143 46/94/144
f 26/95/145 27/97/146 48/98/147 47/96/148
f 27/97/149 28/99/150 49/100/151 48/98/152
f 28/99/153 29/101/154 50/102/155 49/100/156
f 29/101/157 30/103/158 51/104/159 50/102/160
f 30/103/161 31/105/162 52/106/163 51/104/164
f 31/105/165 32/107/166 53/108/167 52/106/168
f 32/107/169 33/109/170 54/110/171 53/108/172
f 33/109/173 34/111/174 55/112/175 54/110/176
f 34/111/177 35/113/178 56/114/179 55/112/180
f 35/113/181 36/115/182 57/116/183 56/114/184
f 36/115/185 37/117/186 58/118/187 57/116/188
f 37/117/189 38/119/190 59/120/191 58/118/192
f 38/119/193 39/121/194 60/122/195 59/120/196
f 39/121/197 40/83/198 41/86/199 60/122/200
f 41/86/201 42/85/202 62/64/203 61/63/204
f 42/85/205 43/88/206 63/65/207 62/64/208
f 43/88/209 44/90/210 64/66/211 63/65/212
f 44/90/213 45/92/214 65/67/215 64/66/216
f 45/92/217 46/94/218 66/68/219 65/67/220
f 46/94/221 47/96/222 67/69/223 66/68/224
f 47/96/225 48/98/226 68/70/227 67/69/228
f 48/98/229 49/100/230 69/71/231 68/70/232
f 49/100/233 50/102/234 70/72/235 69/71/236
f 50/102/237 51/104/238 71/73/239 70/72/240
f 51/104/241 52/106/242 72/74/243 71/73/244
f 52/106/245 53/108/246 73/75/247 72/74/248
f 53/108/249 54/110/250 74/76/251 73/75/252
f 54/110/253 55/112/254 75/77/255 74/76/256
f 55/112/257 56/114/258 76/78/259 75/77/260
f 56/114/261 57/116/262 77/79/263 76/78/264
f 57/116/265 58/118/266 78/80/267 77/79/268
f 58/118/269 59/120/270 79/81/271 78/80/272
f 59/120/273 60/122/274 80/82/275 79/81/276
f 60/122/277 41/86/278 61/63/279 80/82/280
