# Blender v2.92.0 OBJ File: 'Luminaria.blend'
# www.blender.org
mtllib Quadro5.mtl
o Quadro1_Cube.018
v 14.463306 3.797725 5.955666
v 14.463306 3.797725 12.326274
v 14.463306 7.472613 12.326274
v 14.463306 7.472613 5.955666
v 14.896461 3.797725 5.955666
v 14.896461 3.797725 12.326274
v 14.896461 7.472613 12.326274
v 14.896461 7.472613 5.955666
v 14.540586 3.444837 12.601926
v 14.463306 3.530323 12.535151
v 14.540586 7.825500 12.601926
v 14.463306 7.740015 12.535151
v 14.463306 3.530323 5.746789
v 14.540586 3.444837 5.680014
v 14.540586 7.825500 5.680014
v 14.463306 7.740015 5.746789
v 15.019481 3.537340 12.509422
v 14.926978 3.444837 12.601926
v 14.926978 7.825500 12.601926
v 15.019481 7.732997 12.509422
v 15.019481 3.537340 5.772517
v 14.926978 3.444837 5.680014
v 14.926978 7.825500 5.680014
v 15.019481 7.732997 5.772517
vt 0.625000 0.250000
vt 0.375000 0.250000
vt 0.375000 0.250000
vt 0.625000 0.250000
vt 0.375000 0.791580
vt 0.625000 0.791580
vt 0.625000 0.965263
vt 0.375000 0.965263
vt 0.875000 0.750000
vt 0.875000 0.500000
vt 0.875000 0.500000
vt 0.875000 0.750000
vt 0.375000 1.000000
vt 0.625000 1.000000
vt 0.625000 1.000000
vt 0.375000 1.000000
vt 0.875000 0.500000
vt 0.875000 0.750000
vt 0.666580 0.500000
vt 0.840263 0.500000
vt 0.840263 0.750000
vt 0.666580 0.750000
vt 0.375000 0.284737
vt 0.625000 0.284737
vt 0.625000 0.458420
vt 0.375000 0.458420
vt 0.378432 0.503998
vt 0.621568 0.503998
vt 0.621568 0.746002
vt 0.378432 0.746002
vt 0.375000 0.000000
vt 0.625000 0.000000
vt 0.625000 0.250000
vt 0.375000 0.250000
vt 0.125000 0.500000
vt 0.125000 0.750000
vt 0.125000 0.750000
vt 0.125000 0.500000
vt 0.625000 1.000000
vt 0.375000 1.000000
vt 0.159737 0.500000
vt 0.159737 0.750000
vt 0.125000 0.750000
vt 0.125000 0.500000
vt 0.333420 0.750000
vt 0.333420 0.500000
vn -0.9010 0.2748 -0.3355
vn -0.9010 -0.2748 -0.3355
vn -0.9045 0.3015 0.3015
vn -0.9045 -0.3015 0.3015
vn 0.3913 -0.6507 0.6507
vn 0.3913 0.6507 0.6507
vn -0.3895 0.6570 0.6454
vn -0.3895 -0.6570 0.6454
vn -0.9010 0.2748 0.3355
vn -0.9045 -0.3015 -0.3015
vn -0.9010 -0.2748 0.3355
vn -0.9045 0.3015 -0.3015
vn -0.5773 -0.5773 0.5773
vn -0.5773 -0.5773 -0.5773
vn 0.3913 0.6507 -0.6507
vn -0.3895 0.6570 -0.6454
vn -0.3895 -0.6570 -0.6454
vn 0.3913 -0.6507 -0.6507
vn 0.9054 -0.3002 -0.3002
vn 0.9054 0.3002 -0.3002
vn 0.9054 0.3002 0.3002
vn 0.9054 -0.3002 0.3002
vn -0.5773 0.5773 -0.5773
vn -0.5773 0.5773 0.5773
usemtl None
s 1
f 16/1/1 13/2/2 1/3/3 4/4/4
f 18/5/5 19/6/6 11/7/7 9/8/8
f 12/9/9 16/10/1 4/11/4 3/12/10
f 10/13/11 12/14/9 3/15/10 2/16/12
f 3/12/10 4/11/4 8/17/13 7/18/14
f 23/19/15 15/20/16 11/21/7 19/22/6
f 14/23/17 15/24/16 23/25/15 22/26/18
f 21/27/19 24/28/20 20/29/21 17/30/22
f 6/31/23 7/32/14 8/33/13 5/34/24
f 1/35/3 2/36/12 6/37/23 5/38/24
f 4/4/4 1/3/3 5/34/24 8/33/13
f 2/16/12 3/15/10 7/39/14 6/40/23
f 14/41/17 9/42/8 10/43/11 13/44/2
f 9/8/8 11/7/7 12/14/9 10/13/11
f 11/21/7 15/20/16 16/10/1 12/9/9
f 15/24/16 14/23/17 13/2/2 16/1/1
f 13/44/2 10/43/11 2/36/12 1/35/3
f 24/28/20 21/27/19 22/26/18 23/25/15
f 18/45/5 22/46/18 21/27/19 17/30/22
f 23/19/15 19/22/6 20/29/21 24/28/20
f 19/6/6 18/5/5 17/30/22 20/29/21
f 14/41/17 22/46/18 18/45/5 9/42/8
