# Blender v2.92.0 OBJ File: 'Luminaria.blend'
# www.blender.org
mtllib Frigobar.mtl
o Frigobar_Cube.003
v -2.164439 0.723248 28.096006
v -2.164439 0.960740 28.333498
v -2.401931 0.960740 28.096006
v -2.164439 8.876251 28.333498
v -2.164439 9.113743 28.096006
v -2.401931 8.876251 28.096006
v -2.164439 0.723248 22.295599
v -2.401931 0.960740 22.295599
v -2.164439 0.960740 22.058105
v -2.164439 9.113743 22.295599
v -2.164439 8.876251 22.058105
v -2.401931 8.876251 22.295599
v 3.635968 0.723248 28.096006
v 3.873460 0.960740 28.096006
v 3.635968 0.960740 28.333498
v 3.635968 9.113743 28.096006
v 3.635968 8.876251 28.333498
v 3.873460 8.876251 28.096006
v 3.635968 0.723248 22.295599
v 3.635968 0.960740 22.058105
v 3.873460 0.960740 22.295599
v 3.635968 9.113743 22.295599
v 3.873460 8.876251 22.295599
v 3.635968 8.876251 22.058105
v -2.819092 6.063823 23.258537
v -2.839786 6.063823 23.498243
v -2.726273 7.092254 23.258537
v -2.726273 7.092254 23.498243
v -2.726548 5.037879 23.258537
v -2.726548 5.037879 23.498243
v -2.369183 5.037879 23.258537
v -2.369183 5.037879 23.498243
v -2.368908 7.092254 23.258537
v -2.368908 7.092254 23.498243
v -2.865206 4.829700 23.258537
v -2.897919 4.793177 23.295059
v -2.865206 7.297945 23.258537
v -2.897919 7.334469 23.295059
v -2.719068 4.829700 23.258537
v -2.717755 4.793177 23.295059
v -2.717755 7.334469 23.295059
v -2.719040 7.297945 23.258537
v -2.980728 6.063823 23.258537
v -3.017473 6.063823 23.295059
v -2.924653 7.092254 23.295059
v -2.887909 7.092254 23.258537
v -2.924928 5.037879 23.295059
v -2.888183 5.037879 23.258537
v -2.342174 4.793177 23.295059
v -2.346205 4.829700 23.258537
v -2.346205 7.297945 23.258537
v -2.342174 7.334469 23.295059
v -2.859196 4.836409 23.498243
v -2.897919 4.793177 23.455011
v -2.859196 7.291237 23.498243
v -2.897919 7.334469 23.455011
v -2.717755 4.793177 23.455011
v -2.719309 4.836409 23.498243
v -2.719276 7.291237 23.498243
v -2.717755 7.334469 23.455011
v -2.994671 6.063823 23.498243
v -3.017473 6.063823 23.455011
v -2.924653 7.092254 23.455011
v -2.881159 7.092254 23.498243
v -2.924928 5.037879 23.455011
v -2.881433 5.037879 23.498243
v -2.346946 4.836409 23.498243
v -2.342174 4.793177 23.455011
v -2.342174 7.334469 23.455011
v -2.346946 7.291237 23.498243
v -2.783167 5.550851 23.258537
v -2.783167 5.550851 23.498243
v -2.944802 5.550851 23.258537
v -2.981546 5.550851 23.295059
v -2.938052 5.550851 23.498243
v -2.981546 5.550851 23.455011
v -2.783029 6.578038 23.258537
v -2.783029 6.578038 23.498243
v -2.944665 6.578038 23.258537
v -2.981409 6.578038 23.295059
v -2.937915 6.578038 23.498243
v -2.981409 6.578039 23.455011
v -1.579171 -0.411474 28.199455
v -1.531064 -0.411474 28.247456
v -1.684442 0.836115 27.921783
v -1.634572 0.836115 27.971556
v -1.531118 -0.411474 27.534327
v -1.579171 -0.411474 27.585329
v -1.634627 0.836115 27.047884
v -1.684442 0.836115 27.100750
v -0.914149 -0.411474 28.247456
v -0.866041 -0.411474 28.199455
v -0.810641 0.836115 27.971556
v -0.760770 0.836115 27.921783
v -0.866041 -0.411474 27.585329
v -0.914095 -0.411474 27.534327
v -0.760770 0.836115 27.100750
v -0.810586 0.836115 27.047884
v -1.377919 -1.651553 28.420427
v -1.423959 -1.651553 28.374504
v -1.423959 -1.651553 28.066538
v -1.377971 -1.651553 28.017723
v -1.021254 -1.651553 28.374504
v -1.067294 -1.651553 28.420427
v -1.067241 -1.651553 28.017723
v -1.021254 -1.651553 28.066538
v -0.866041 -0.411474 22.263954
v -0.914149 -0.411474 22.215954
v -0.760770 0.836115 22.541628
v -0.810641 0.836115 22.491856
v -0.914095 -0.411474 22.929085
v -0.866041 -0.411474 22.878082
v -0.810586 0.836115 23.415525
v -0.760770 0.836115 23.362659
v -1.531064 -0.411474 22.215954
v -1.579171 -0.411474 22.263954
v -1.634572 0.836115 22.491856
v -1.684442 0.836115 22.541628
v -1.579171 -0.411474 22.878082
v -1.531117 -0.411474 22.929085
v -1.684442 0.836115 23.362659
v -1.634626 0.836115 23.415525
v -1.067293 -1.651553 22.042982
v -1.021254 -1.651553 22.088905
v -1.021254 -1.651553 22.396872
v -1.067241 -1.651553 22.445686
v -1.423958 -1.651553 22.088905
v -1.377919 -1.651553 22.042982
v -1.377971 -1.651553 22.445686
v -1.423958 -1.651553 22.396873
v 2.547967 -0.411474 28.199455
v 2.596074 -0.411474 28.247456
v 2.442696 0.836115 27.921783
v 2.492566 0.836115 27.971556
v 2.596020 -0.411474 27.534327
v 2.547967 -0.411474 27.585329
v 2.492512 0.836115 27.047884
v 2.442696 0.836115 27.100750
v 3.212989 -0.411474 28.247456
v 3.261097 -0.411474 28.199455
v 3.316497 0.836115 27.971556
v 3.366368 0.836115 27.921783
v 3.261097 -0.411474 27.585329
v 3.213043 -0.411474 27.534327
v 3.366368 0.836115 27.100750
v 3.316552 0.836115 27.047884
v 2.749219 -1.651553 28.420427
v 2.703180 -1.651553 28.374504
v 2.703180 -1.651553 28.066538
v 2.749167 -1.651553 28.017723
v 3.105884 -1.651553 28.374504
v 3.059844 -1.651553 28.420427
v 3.059897 -1.651553 28.017723
v 3.105884 -1.651553 28.066538
v 3.261097 -0.411474 22.263954
v 3.212989 -0.411474 22.215954
v 3.366368 0.836115 22.541628
v 3.316497 0.836115 22.491856
v 3.213044 -0.411474 22.929085
v 3.261097 -0.411474 22.878082
v 3.316552 0.836115 23.415525
v 3.366368 0.836115 23.362659
v 2.596074 -0.411474 22.215954
v 2.547967 -0.411474 22.263954
v 2.492566 0.836115 22.491856
v 2.442696 0.836115 22.541628
v 2.547967 -0.411474 22.878082
v 2.596020 -0.411474 22.929085
v 2.442696 0.836115 23.362659
v 2.492512 0.836115 23.415525
v 3.059845 -1.651553 22.042982
v 3.105885 -1.651553 22.088905
v 3.105885 -1.651553 22.396872
v 3.059897 -1.651553 22.445686
v 2.703180 -1.651553 22.088905
v 2.749219 -1.651553 22.042982
v 2.749167 -1.651553 22.445686
v 2.703180 -1.651553 22.396873
vt 0.382076 0.759461
vt 0.617924 0.759461
vt 0.617924 0.990539
vt 0.382076 0.990539
vt 0.382076 0.509461
vt 0.617924 0.509461
vt 0.617924 0.740539
vt 0.382076 0.740539
vt 0.634461 0.509461
vt 0.865539 0.509461
vt 0.865539 0.740539
vt 0.634461 0.740539
vt 0.382076 0.009461
vt 0.617924 0.009461
vt 0.617924 0.240539
vt 0.382076 0.240539
vt 0.382076 0.259461
vt 0.617924 0.259461
vt 0.617924 0.490539
vt 0.382076 0.490539
vt 0.134461 0.740539
vt 0.134461 0.750000
vt 0.125000 0.740539
vt 0.625000 0.990539
vt 0.617924 1.000000
vt 0.134461 0.509461
vt 0.125000 0.509461
vt 0.134461 0.500000
vt 0.625000 0.259461
vt 0.625000 0.259461
vt 0.617924 0.250000
vt 0.365539 0.740539
vt 0.375000 0.740539
vt 0.365539 0.750000
vt 0.625000 0.759461
vt 0.625000 0.759461
vt 0.617924 0.750000
vt 0.365539 0.509461
vt 0.365539 0.500000
vt 0.375000 0.509461
vt 0.625000 0.509461
vt 0.625000 0.509461
vt 0.617924 0.500000
vt 0.382076 0.000000
vt 0.617924 0.000000
vt 0.625000 0.009461
vt 0.625000 0.240539
vt 0.625000 0.490539
vt 0.378593 0.500000
vt 0.399073 0.500000
vt 0.399073 0.500000
vt 0.378593 0.500000
vt 0.399073 0.750000
vt 0.379253 0.750000
vt 0.379253 0.750000
vt 0.399073 0.750000
vt 0.620747 0.750000
vt 0.601172 0.750000
vt 0.601172 0.750000
vt 0.620747 0.750000
vt 0.625000 0.538091
vt 0.875000 0.538091
vt 0.875000 0.704912
vt 0.625000 0.704912
vt 0.601172 0.045088
vt 0.625000 0.045088
vt 0.625000 0.211909
vt 0.601172 0.211909
vt 0.601172 0.296306
vt 0.621407 0.299818
vt 0.621407 0.500000
vt 0.601172 0.500000
vt 0.550586 0.750000
vt 0.601172 0.945188
vt 0.550586 0.945188
vt 0.449536 0.500000
vt 0.500000 0.500000
vt 0.500000 0.750000
vt 0.449536 0.750000
vt 0.601172 0.500000
vt 0.621407 0.500000
vt 0.625000 0.538091
vt 0.625000 0.704912
vt 0.550586 0.296306
vt 0.550586 0.500000
vt 0.550586 0.045088
vt 0.550586 0.211909
vt 0.449536 0.296306
vt 0.500000 0.296306
vt 0.500000 0.945188
vt 0.449536 0.945188
vt 0.378593 0.299827
vt 0.399073 0.296306
vt 0.620747 0.941121
vt 0.375000 0.045088
vt 0.399073 0.045088
vt 0.399073 0.211909
vt 0.375000 0.211909
vt 0.375000 0.538091
vt 0.375000 0.704912
vt 0.375000 0.704912
vt 0.375000 0.538091
vt 0.449536 0.045088
vt 0.500000 0.045088
vt 0.500000 0.211909
vt 0.449536 0.211909
vt 0.125000 0.538091
vt 0.170394 0.500000
vt 0.373179 0.500000
vt 0.625000 0.250000
vt 0.625000 0.500000
vt 0.125000 0.704912
vt 0.601639 0.000000
vt 0.621214 0.000000
vt 0.372844 0.750000
vt 0.178733 0.750000
vt 0.625000 0.750000
vt 0.625000 1.000000
vt 0.449303 0.000000
vt 0.499533 0.000000
vt 0.550819 0.000000
vt 0.601172 0.000000
vt 0.378786 0.000000
vt 0.398606 0.000000
vt 0.399073 0.945188
vt 0.379253 0.941110
vt 0.399073 0.000000
vt 0.500467 0.000000
vt 0.375000 0.766865
vt 0.625000 0.763498
vt 0.625000 0.986502
vt 0.375000 0.983135
vt 0.375000 0.266846
vt 0.375000 0.483154
vt 0.375000 0.471451
vt 0.375000 0.278549
vt 0.125000 0.530304
vt 0.153549 0.500000
vt 0.346451 0.500000
vt 0.375000 0.530304
vt 0.375000 0.721491
vt 0.346418 0.750000
vt 0.153582 0.750000
vt 0.125000 0.721491
vt 0.375000 0.971418
vt 0.375000 0.778582
vt 0.375000 0.517880
vt 0.375000 0.733173
vt 0.625000 0.263483
vt 0.625000 0.486517
vt 0.375000 0.016827
vt 0.625000 0.013471
vt 0.625000 0.235691
vt 0.375000 0.232120
vt 0.625000 0.514309
vt 0.625000 0.736529
vt 0.638483 0.500000
vt 0.861517 0.500000
vt 0.875000 0.514309
vt 0.875000 0.736529
vt 0.861502 0.750000
vt 0.638498 0.750000
vt 0.375000 0.000000
vt 0.623475 0.000000
vt 0.375000 0.219696
vt 0.375000 0.000000
vt 0.375000 0.028509
vt 0.375000 0.766865
vt 0.625000 0.763498
vt 0.625000 0.986502
vt 0.375000 0.983135
vt 0.375000 0.266846
vt 0.375000 0.483154
vt 0.375000 0.471451
vt 0.375000 0.278549
vt 0.125000 0.530304
vt 0.153549 0.500000
vt 0.346451 0.500000
vt 0.375000 0.530304
vt 0.375000 0.721491
vt 0.346418 0.750000
vt 0.153582 0.750000
vt 0.125000 0.721491
vt 0.375000 0.971418
vt 0.375000 0.778582
vt 0.375000 0.517880
vt 0.375000 0.733173
vt 0.625000 0.263483
vt 0.625000 0.486517
vt 0.375000 0.016827
vt 0.625000 0.013471
vt 0.625000 0.235691
vt 0.375000 0.232120
vt 0.625000 0.514309
vt 0.625000 0.736529
vt 0.638483 0.500000
vt 0.861517 0.500000
vt 0.875000 0.514309
vt 0.875000 0.736529
vt 0.861502 0.750000
vt 0.638498 0.750000
vt 0.375000 0.000000
vt 0.623475 0.000000
vt 0.375000 0.219696
vt 0.375000 0.000000
vt 0.375000 0.028509
vt 0.375000 0.766865
vt 0.625000 0.763498
vt 0.625000 0.986502
vt 0.375000 0.983135
vt 0.375000 0.266846
vt 0.375000 0.483154
vt 0.375000 0.471451
vt 0.375000 0.278549
vt 0.125000 0.530304
vt 0.153549 0.500000
vt 0.346451 0.500000
vt 0.375000 0.530304
vt 0.375000 0.721491
vt 0.346418 0.750000
vt 0.153582 0.750000
vt 0.125000 0.721491
vt 0.375000 0.971418
vt 0.375000 0.778582
vt 0.375000 0.517880
vt 0.375000 0.733173
vt 0.625000 0.263483
vt 0.625000 0.486517
vt 0.375000 0.016827
vt 0.625000 0.013471
vt 0.625000 0.235691
vt 0.375000 0.232120
vt 0.625000 0.514309
vt 0.625000 0.736529
vt 0.638483 0.500000
vt 0.861517 0.500000
vt 0.875000 0.514309
vt 0.875000 0.736529
vt 0.861502 0.750000
vt 0.638498 0.750000
vt 0.375000 0.000000
vt 0.623475 0.000000
vt 0.375000 0.219696
vt 0.375000 0.000000
vt 0.375000 0.028509
vt 0.375000 0.766865
vt 0.625000 0.763498
vt 0.625000 0.986502
vt 0.375000 0.983135
vt 0.375000 0.266846
vt 0.375000 0.483154
vt 0.375000 0.471451
vt 0.375000 0.278549
vt 0.125000 0.530304
vt 0.153549 0.500000
vt 0.346451 0.500000
vt 0.375000 0.530304
vt 0.375000 0.721491
vt 0.346418 0.750000
vt 0.153582 0.750000
vt 0.125000 0.721491
vt 0.375000 0.971418
vt 0.375000 0.778582
vt 0.375000 0.517880
vt 0.375000 0.733173
vt 0.625000 0.263483
vt 0.625000 0.486517
vt 0.375000 0.016827
vt 0.625000 0.013471
vt 0.625000 0.235691
vt 0.375000 0.232120
vt 0.625000 0.514309
vt 0.625000 0.736529
vt 0.638483 0.500000
vt 0.861517 0.500000
vt 0.875000 0.514309
vt 0.875000 0.736529
vt 0.861502 0.750000
vt 0.638498 0.750000
vt 0.375000 0.000000
vt 0.623475 0.000000
vt 0.375000 0.219696
vt 0.375000 0.000000
vt 0.375000 0.028509
vn 0.3416 -0.3416 0.8756
vn 0.3416 0.3416 0.8756
vn -0.3416 0.3416 0.8756
vn -0.3416 -0.3416 0.8756
vn 0.8756 -0.3416 -0.3416
vn 0.8756 0.3416 -0.3416
vn 0.8756 0.3416 0.3416
vn 0.8756 -0.3416 0.3416
vn 0.3416 0.8756 -0.3416
vn -0.3416 0.8756 -0.3416
vn -0.3416 0.8756 0.3416
vn 0.3416 0.8756 0.3416
vn -0.8756 -0.3416 0.3416
vn -0.8756 0.3416 0.3416
vn -0.8756 0.3416 -0.3416
vn -0.8756 -0.3416 -0.3416
vn -0.3416 -0.3416 -0.8756
vn -0.3416 0.3416 -0.8756
vn 0.3416 0.3416 -0.8756
vn 0.3416 -0.3416 -0.8756
vn -0.3416 -0.8756 0.3416
vn -0.3416 -0.8756 -0.3416
vn 0.3416 -0.8756 0.3416
vn 0.3416 -0.8756 -0.3416
vn 0.0000 -0.3827 -0.9239
vn 0.3024 0.3376 -0.8914
vn 0.5419 0.6050 -0.5833
vn 0.6449 -0.2494 -0.7224
vn 0.3024 0.3376 0.8914
vn 0.0000 -0.3827 0.9239
vn 0.6449 -0.2494 0.7224
vn 0.5419 0.6050 0.5833
vn 0.0000 0.3827 0.9239
vn 0.3024 -0.3376 0.8914
vn 0.5419 -0.6050 0.5833
vn 0.6449 0.2494 0.7224
vn 0.0000 0.9239 -0.3827
vn -0.6155 0.6871 -0.3861
vn -0.6155 0.6871 0.3861
vn 0.0000 0.9239 0.3827
vn -0.9183 0.1014 0.3827
vn -0.9183 0.1014 -0.3827
vn -0.3804 0.0420 -0.9239
vn -0.2880 0.3215 -0.9020
vn 0.0000 0.3827 -0.9239
vn 0.3024 -0.3376 -0.8914
vn 0.6959 -0.0698 0.7147
vn -0.3804 0.0420 0.9239
vn -0.4092 0.0410 0.9115
vn 0.7065 0.0708 -0.7042
vn 0.7062 0.0000 -0.7080
vn 0.6644 0.0000 0.7474
vn 0.6959 0.0698 0.7147
vn 0.5419 -0.6050 -0.5833
vn 0.6449 0.2494 -0.7224
vn 0.6698 0.6782 -0.3023
vn 0.6698 0.6782 0.3023
vn -0.3847 0.0350 -0.9223
vn 0.7065 -0.0709 -0.7042
vn -0.9332 0.0878 0.3485
vn -0.9207 0.0827 -0.3815
vn -0.3848 -0.0350 -0.9223
vn -0.3956 0.0000 -0.9184
vn -0.4649 0.0000 0.8854
vn -0.4092 -0.0410 0.9115
vn -0.2880 -0.3215 -0.9020
vn -0.3804 -0.0420 -0.9239
vn -0.2880 0.3215 0.9020
vn -0.6154 -0.6871 0.3861
vn -0.9183 -0.1014 0.3827
vn -0.9183 -0.1014 -0.3827
vn -0.6154 -0.6871 -0.3861
vn 0.6698 -0.6782 -0.3023
vn 0.6698 -0.6782 0.3023
vn 0.0000 -0.9239 0.3827
vn 0.0000 -0.9239 -0.3827
vn -0.9332 -0.0878 0.3485
vn -0.9481 0.0000 0.3179
vn -0.9257 0.0000 -0.3782
vn -0.9207 -0.0827 -0.3815
vn -0.2880 -0.3215 0.9020
vn -0.3804 -0.0420 0.9239
vn 0.3829 0.1238 0.9154
vn 0.3033 0.6908 0.6563
vn -0.3033 0.6908 0.6563
vn -0.3829 0.1238 0.9154
vn -0.3750 -0.3692 -0.8503
vn 0.3750 -0.3692 -0.8503
vn 0.2613 -0.7662 -0.5871
vn -0.2613 -0.7662 -0.5871
vn -0.6659 -0.7166 -0.2076
vn 0.6659 -0.7166 -0.2076
vn 0.6885 -0.6500 0.3217
vn 0.2774 -0.5969 0.7528
vn -0.2774 -0.5969 0.7528
vn -0.6885 -0.6500 0.3217
vn 0.9090 -0.2287 -0.3482
vn 0.9204 -0.0238 0.3901
vn -0.3339 0.4836 -0.8091
vn 0.3339 0.4836 -0.8091
vn -0.9204 -0.0238 0.3901
vn -0.7350 0.6275 0.2569
vn -0.7591 0.5406 -0.3627
vn -0.9090 -0.2287 -0.3482
vn 0.7591 0.5406 -0.3627
vn 0.7350 0.6275 0.2569
vn -0.3829 0.1238 -0.9154
vn -0.3033 0.6908 -0.6563
vn 0.3033 0.6908 -0.6563
vn 0.3829 0.1238 -0.9154
vn 0.3750 -0.3692 0.8503
vn -0.3750 -0.3692 0.8503
vn -0.2613 -0.7662 0.5871
vn 0.2613 -0.7662 0.5871
vn 0.6659 -0.7166 0.2076
vn -0.6659 -0.7166 0.2076
vn -0.6885 -0.6500 -0.3217
vn -0.2774 -0.5969 -0.7528
vn 0.2774 -0.5969 -0.7528
vn 0.6885 -0.6500 -0.3217
vn -0.9090 -0.2287 0.3482
vn -0.9204 -0.0238 -0.3901
vn 0.3339 0.4836 0.8091
vn -0.3339 0.4836 0.8091
vn 0.9204 -0.0238 -0.3901
vn 0.7350 0.6275 -0.2569
vn 0.7591 0.5406 0.3627
vn 0.9090 -0.2287 0.3482
vn -0.7591 0.5406 0.3627
vn -0.7350 0.6275 -0.2569
usemtl None
s 1
f 15/1/1 17/2/2 4/3/3 2/4/4
f 21/5/5 23/6/6 18/7/7 14/8/8
f 22/9/9 10/10/10 5/11/11 16/12/12
f 3/13/13 6/14/14 12/15/15 8/16/16
f 9/17/17 11/18/18 24/19/19 20/20/20
f 1/21/21 2/22/4 3/23/13
f 4/3/3 5/24/11 6/25/14
f 7/26/22 8/27/16 9/28/17
f 10/29/10 11/30/18 12/31/15
f 13/32/23 14/33/8 15/34/1
f 16/35/12 17/36/2 18/37/7
f 19/38/24 20/39/20 21/40/5
f 22/41/9 23/42/6 24/43/19
f 7/26/22 1/21/21 3/23/13 8/27/16
f 2/44/4 4/45/3 6/14/14 3/13/13
f 5/46/11 10/47/10 12/15/15 6/14/14
f 11/18/18 9/17/17 8/16/16 12/15/15
f 19/38/24 7/26/22 9/28/17 20/39/20
f 10/29/10 22/48/9 24/19/19 11/18/18
f 23/6/6 21/5/5 20/20/20 24/19/19
f 13/32/23 19/38/24 21/5/5 14/8/8
f 22/9/9 16/12/12 18/7/7 23/6/6
f 17/2/2 15/1/1 14/8/8 18/7/7
f 1/21/21 13/32/23 15/34/1 2/22/4
f 16/35/12 5/24/11 4/3/3 17/2/2
f 7/26/22 19/38/24 13/32/23 1/21/21
f 39/49/25 29/50/26 31/51/27 50/52/28
f 30/53/29 58/54/30 67/55/31 32/56/32
f 59/57/33 28/58/34 34/59/35 70/60/36
f 41/61/37 38/62/38 56/63/39 60/64/40
f 63/65/41 56/66/39 38/67/38 45/68/42
f 46/69/43 37/70/44 42/71/45 27/72/46
f 78/73/47 28/58/34 64/74/48 81/75/49
f 71/76/50 25/77/51 26/78/52 72/79/53
f 33/80/54 51/81/55 52/82/56 69/83/57 70/60/36 34/59/35
f 79/84/58 46/69/43 27/72/46 77/85/59
f 82/86/60 63/65/41 45/68/42 80/87/61
f 77/85/59 27/72/46 28/58/34 78/73/47
f 73/88/62 43/89/63 25/77/51 71/76/50
f 72/79/53 26/78/52 61/90/64 75/91/65
f 35/92/66 48/93/67 29/50/26 39/49/25
f 28/58/34 59/57/33 55/94/68 64/74/48
f 27/72/46 42/71/45 51/81/55 33/80/54
f 54/95/69 65/96/70 47/97/71 36/98/72
f 49/99/73 50/52/28 31/51/27 32/56/32 67/55/31 68/100/74
f 57/101/75 40/102/76 49/99/73 68/100/74
f 76/103/77 62/104/78 44/105/79 74/106/80
f 28/58/34 27/72/46 33/80/54 34/59/35
f 29/50/26 30/53/29 32/56/32 31/51/27
f 41/61/37 60/64/40 69/83/57 52/82/56
f 48/93/67 35/92/66 36/98/72 47/97/71
f 40/102/76 36/107/72 35/108/66 39/109/25
f 38/110/38 41/111/37 42/71/45 37/70/44
f 79/84/58 43/89/63 44/105/79 80/87/61
f 37/70/44 46/69/43 45/68/42 38/67/38
f 73/88/62 48/93/67 47/97/71 74/106/80
f 51/81/55 42/71/45 41/61/37 52/82/56
f 49/99/73 40/102/76 39/49/25 50/52/28
f 36/107/72 40/102/76 57/101/75 54/112/69
f 64/113/48 55/114/68 56/66/39 63/65/41
f 54/112/69 57/101/75 58/115/30 53/116/81
f 60/117/40 56/118/39 55/94/68 59/57/33
f 75/119/65 61/120/64 62/104/78 76/103/77
f 81/121/49 64/122/48 63/65/41 82/86/60
f 53/123/81 66/124/82 65/96/70 54/95/69
f 59/57/33 70/60/36 69/83/57 60/64/40
f 57/101/75 68/100/74 67/55/31 58/54/30
f 58/54/30 30/53/29 66/125/82 53/126/81
f 66/127/82 75/119/65 76/103/77 65/96/70
f 43/89/63 73/88/62 74/106/80 44/105/79
f 65/96/70 76/103/77 74/106/80 47/97/71
f 30/53/29 72/79/53 75/91/65 66/125/82
f 48/93/67 73/88/62 71/76/50 29/50/26
f 29/50/26 71/76/50 72/79/53 30/53/29
f 61/128/64 81/121/49 82/86/60 62/104/78
f 46/69/43 79/84/58 80/87/61 45/68/42
f 25/77/51 77/85/59 78/73/47 26/78/52
f 62/104/78 82/86/60 80/87/61 44/105/79
f 43/89/63 79/84/58 77/85/59 25/77/51
f 26/78/52 78/73/47 81/75/49 61/90/64
f 91/129/83 93/130/84 86/131/85 84/132/86
f 87/133/87 96/134/88 105/135/89 102/136/90
f 101/137/91 102/138/90 105/139/89 106/140/92 103/141/93 104/142/94 99/143/95 100/144/96
f 91/129/83 84/132/86 99/145/95 104/146/94
f 95/147/97 92/148/98 103/141/93 106/140/92
f 87/133/87 89/149/99 98/150/100 96/134/88
f 83/151/101 85/152/102 90/153/103 88/154/104
f 95/147/97 97/155/105 94/156/106 92/148/98
f 97/155/105 98/157/100 89/158/99 90/159/103 85/160/102 86/161/85 93/162/84 94/156/106
f 84/163/86 86/164/85 85/152/102 83/151/101
f 89/149/99 87/133/87 88/154/104 90/153/103
f 97/155/105 95/147/97 96/134/88 98/150/100
f 93/130/84 91/129/83 92/148/98 94/156/106
f 95/147/97 106/140/92 105/135/89 96/134/88
f 101/165/91 88/154/104 87/133/87 102/136/90
f 99/166/95 84/163/86 83/151/101 100/167/96
f 91/129/83 104/146/94 103/141/93 92/148/98
f 83/151/101 88/154/104 101/165/91 100/167/96
f 115/168/107 117/169/108 110/170/109 108/171/110
f 111/172/111 120/173/112 129/174/113 126/175/114
f 125/176/115 126/177/114 129/178/113 130/179/116 127/180/117 128/181/118 123/182/119 124/183/120
f 115/168/107 108/171/110 123/184/119 128/185/118
f 119/186/121 116/187/122 127/180/117 130/179/116
f 111/172/111 113/188/123 122/189/124 120/173/112
f 107/190/125 109/191/126 114/192/127 112/193/128
f 119/186/121 121/194/129 118/195/130 116/187/122
f 121/194/129 122/196/124 113/197/123 114/198/127 109/199/126 110/200/109 117/201/108 118/195/130
f 108/202/110 110/203/109 109/191/126 107/190/125
f 113/188/123 111/172/111 112/193/128 114/192/127
f 121/194/129 119/186/121 120/173/112 122/189/124
f 117/169/108 115/168/107 116/187/122 118/195/130
f 119/186/121 130/179/116 129/174/113 120/173/112
f 125/204/115 112/193/128 111/172/111 126/175/114
f 123/205/119 108/202/110 107/190/125 124/206/120
f 115/168/107 128/185/118 127/180/117 116/187/122
f 107/190/125 112/193/128 125/204/115 124/206/120
f 139/207/83 141/208/84 134/209/85 132/210/86
f 135/211/87 144/212/88 153/213/89 150/214/90
f 149/215/91 150/216/90 153/217/89 154/218/92 151/219/93 152/220/94 147/221/95 148/222/96
f 139/207/83 132/210/86 147/223/95 152/224/94
f 143/225/97 140/226/98 151/219/93 154/218/92
f 135/211/87 137/227/99 146/228/100 144/212/88
f 131/229/101 133/230/102 138/231/103 136/232/104
f 143/225/97 145/233/105 142/234/106 140/226/98
f 145/233/105 146/235/100 137/236/99 138/237/103 133/238/102 134/239/85 141/240/84 142/234/106
f 132/241/86 134/242/85 133/230/102 131/229/101
f 137/227/99 135/211/87 136/232/104 138/231/103
f 145/233/105 143/225/97 144/212/88 146/228/100
f 141/208/84 139/207/83 140/226/98 142/234/106
f 143/225/97 154/218/92 153/213/89 144/212/88
f 149/243/91 136/232/104 135/211/87 150/214/90
f 147/244/95 132/241/86 131/229/101 148/245/96
f 139/207/83 152/224/94 151/219/93 140/226/98
f 131/229/101 136/232/104 149/243/91 148/245/96
f 163/246/107 165/247/108 158/248/109 156/249/110
f 159/250/111 168/251/112 177/252/113 174/253/114
f 173/254/115 174/255/114 177/256/113 178/257/116 175/258/117 176/259/118 171/260/119 172/261/120
f 163/246/107 156/249/110 171/262/119 176/263/118
f 167/264/121 164/265/122 175/258/117 178/257/116
f 159/250/111 161/266/123 170/267/124 168/251/112
f 155/268/125 157/269/126 162/270/127 160/271/128
f 167/264/121 169/272/129 166/273/130 164/265/122
f 169/272/129 170/274/124 161/275/123 162/276/127 157/277/126 158/278/109 165/279/108 166/273/130
f 156/280/110 158/281/109 157/269/126 155/268/125
f 161/266/123 159/250/111 160/271/128 162/270/127
f 169/272/129 167/264/121 168/251/112 170/267/124
f 165/247/108 163/246/107 164/265/122 166/273/130
f 167/264/121 178/257/116 177/252/113 168/251/112
f 173/282/115 160/271/128 159/250/111 174/253/114
f 171/283/119 156/280/110 155/268/125 172/284/120
f 163/246/107 176/263/118 175/258/117 164/265/122
f 155/268/125 160/271/128 173/282/115 172/284/120
