# This file uses centimeters as units for non-parametric coordinates.

mtllib Porta_Sache.mtl
g default
v -0.204049 -0.168302 0.204049
v 0.204049 -0.168302 0.204049
v -0.232248 0.050176 0.232248
v 0.232248 0.050176 0.232248
v -0.232248 0.050176 -0.232248
v 0.232248 0.050176 -0.232248
v -0.204049 -0.168302 -0.204049
v 0.204049 -0.168302 -0.204049
v -0.191078 -0.183982 -0.191078
v 0.191078 -0.183982 -0.191078
v 0.191078 -0.183982 0.191078
v -0.191078 -0.183982 0.191078
v -0.232248 0.209035 0.232248
v 0.232248 0.209035 0.232248
v 0.232248 0.209035 -0.232248
v -0.232248 0.209035 -0.232248
v -0.247167 0.064426 0.247166
v 0.247167 0.064426 0.247166
v 0.247167 0.196138 0.247166
v -0.247167 0.196138 0.247166
v 0.247167 0.064426 -0.247167
v 0.247167 0.196138 -0.247167
v -0.247167 0.064426 -0.247167
v -0.247167 0.196138 -0.247167
v -0.186109 -0.153481 0.186109
v 0.186109 -0.153481 0.186109
v 0.186109 -0.153481 -0.186109
v -0.186109 -0.153481 -0.186109
vt 0.375000 0.000000
vt 0.625000 0.000000
vt 0.375000 0.250000
vt 0.625000 0.250000
vt 0.375000 0.500000
vt 0.625000 0.500000
vt 0.375000 0.750000
vt 0.625000 0.750000
vt 0.375000 1.000000
vt 0.625000 1.000000
vt 0.875000 0.000000
vt 0.875000 0.250000
vt 0.125000 0.000000
vt 0.125000 0.250000
vt 0.375000 0.750000
vt 0.625000 0.750000
vt 0.625000 1.000000
vt 0.375000 1.000000
vt 0.375000 0.250000
vt 0.625000 0.250000
vt 0.625000 0.500000
vt 0.375000 0.500000
vt 0.375000 0.250000
vt 0.625000 0.250000
vt 0.625000 0.250000
vt 0.375000 0.250000
vt 0.625000 0.500000
vt 0.625000 0.500000
vt 0.375000 0.500000
vt 0.375000 0.500000
vt 0.375000 0.250000
vt 0.625000 0.250000
vt 0.625000 0.500000
vt 0.375000 0.500000
vn 0.000000 -0.128006 0.991773
vn 0.000000 -0.128006 0.991773
vn 0.000000 -0.128006 0.991773
vn 0.000000 -0.128006 0.991773
vn 0.000000 1.000000 0.000000
vn 0.000000 1.000000 0.000000
vn 0.000000 1.000000 0.000000
vn 0.000000 1.000000 0.000000
vn 0.000000 -0.128007 -0.991773
vn 0.000000 -0.128007 -0.991773
vn 0.000000 -0.128007 -0.991773
vn 0.000000 -0.128007 -0.991773
vn 0.000000 -1.000000 0.000000
vn 0.000000 -1.000000 0.000000
vn 0.000000 -1.000000 0.000000
vn 0.000000 -1.000000 0.000000
vn 0.991773 -0.128006 0.000000
vn 0.991773 -0.128006 0.000000
vn 0.991773 -0.128006 0.000000
vn 0.991773 -0.128006 0.000000
vn -0.991773 -0.128006 0.000000
vn -0.991773 -0.128006 0.000000
vn -0.991773 -0.128006 0.000000
vn -0.991773 -0.128006 0.000000
vn 0.000000 -0.637420 -0.770516
vn 0.000000 -0.637420 -0.770516
vn 0.000000 -0.637420 -0.770516
vn 0.000000 -0.637420 -0.770516
vn 0.770517 -0.637420 0.000000
vn 0.770517 -0.637420 0.000000
vn 0.770517 -0.637420 0.000000
vn 0.770517 -0.637420 0.000000
vn 0.000000 -0.637419 0.770517
vn 0.000000 -0.637419 0.770517
vn 0.000000 -0.637419 0.770517
vn 0.000000 -0.637419 0.770517
vn -0.770517 -0.637420 0.000000
vn -0.770517 -0.637420 0.000000
vn -0.770517 -0.637420 0.000000
vn -0.770517 -0.637420 0.000000
vn 0.000000 0.000000 1.000000
vn 0.000000 0.000000 1.000000
vn 0.000000 0.000000 1.000000
vn 0.000000 0.000000 1.000000
vn 1.000000 0.000000 0.000000
vn 1.000000 0.000000 0.000000
vn 1.000000 0.000000 0.000000
vn 1.000000 0.000000 0.000000
vn 0.000000 0.000000 -1.000000
vn 0.000000 0.000000 -1.000000
vn 0.000000 0.000000 -1.000000
vn 0.000000 0.000000 -1.000000
vn -1.000000 0.000000 0.000000
vn -1.000000 0.000000 0.000000
vn -1.000000 0.000000 0.000000
vn -1.000000 0.000000 0.000000
vn 0.000000 -0.723145 0.690697
vn 0.000000 -0.723145 0.690697
vn 0.000000 -0.723145 0.690697
vn 0.000000 -0.723145 0.690697
vn 0.000000 0.756527 0.653963
vn 0.000000 0.756527 0.653963
vn 0.000000 0.756527 0.653963
vn 0.000000 0.756527 0.653963
vn 0.690696 -0.723145 0.000000
vn 0.690696 -0.723145 0.000000
vn 0.690696 -0.723145 0.000000
vn 0.690696 -0.723145 0.000000
vn 0.653962 0.756528 0.000000
vn 0.653962 0.756528 0.000000
vn 0.653962 0.756528 0.000000
vn 0.653962 0.756528 0.000000
vn 0.000000 -0.723146 -0.690695
vn 0.000000 -0.723146 -0.690695
vn 0.000000 -0.723146 -0.690695
vn 0.000000 -0.723146 -0.690695
vn 0.000000 0.756528 -0.653961
vn 0.000000 0.756528 -0.653961
vn 0.000000 0.756528 -0.653961
vn 0.000000 0.756528 -0.653961
vn -0.690696 -0.723145 0.000000
vn -0.690696 -0.723145 0.000000
vn -0.690696 -0.723145 0.000000
vn -0.690696 -0.723145 0.000000
vn -0.653962 0.756528 0.000000
vn -0.653962 0.756528 0.000000
vn -0.653962 0.756528 0.000000
vn -0.653962 0.756528 0.000000
vn 0.000000 0.126255 -0.991998
vn 0.000000 0.126255 -0.991998
vn 0.000000 0.126255 -0.991998
vn 0.000000 0.126255 -0.991998
vn -0.991998 0.126255 0.000000
vn -0.991998 0.126255 0.000000
vn -0.991998 0.126255 0.000000
vn -0.991998 0.126255 0.000000
vn 0.000000 0.126255 0.991998
vn 0.000000 0.126255 0.991998
vn 0.000000 0.126255 0.991998
vn 0.000000 0.126255 0.991998
vn 0.991998 0.126255 0.000000
vn 0.991998 0.126255 0.000000
vn 0.991998 0.126255 0.000000
vn 0.991998 0.126255 0.000000
s off
g pCube194
usemtl initialShadingGroup
f 1/1/1 2/2/2 4/4/3 3/3/4
f 25/31/5 26/32/6 27/33/7 28/34/8
f 5/5/9 6/6/10 8/8/11 7/7/12
f 9/15/13 10/16/14 11/17/15 12/18/16
f 2/2/17 8/11/18 6/12/19 4/4/20
f 7/13/21 1/1/22 3/3/23 5/14/24
f 7/7/25 8/8/26 10/16/27 9/15/28
f 8/8/29 2/10/30 11/17/31 10/16/32
f 2/10/33 1/9/34 12/18/35 11/17/36
f 1/9/37 7/7/38 9/15/39 12/18/40
f 17/23/41 18/24/42 19/25/43 20/26/44
f 18/24/45 21/27/46 22/28/47 19/25/48
f 21/27/49 23/29/50 24/30/51 22/28/52
f 23/29/53 17/23/54 20/26/55 24/30/56
f 3/3/57 4/4/58 18/24/59 17/23/60
f 14/20/61 13/19/62 20/26/63 19/25/64
f 4/4/65 6/6/66 21/27/67 18/24/68
f 15/21/69 14/20/70 19/25/71 22/28/72
f 6/6/73 5/5/74 23/29/75 21/27/76
f 16/22/77 15/21/78 22/28/79 24/30/80
f 5/5/81 3/3/82 17/23/83 23/29/84
f 13/19/85 16/22/86 24/30/87 20/26/88
f 13/19/89 14/20/90 26/32/91 25/31/92
f 14/20/93 15/21/94 27/33/95 26/32/96
f 15/21/97 16/22/98 28/34/99 27/33/100
f 16/22/101 13/19/102 25/31/103 28/34/104
