# This file uses centimeters as units for non-parametric coordinates.

mtllib Proginostico.mtl
g default
v -0.145333 -0.028951 1.619572
v 0.145333 -0.028951 1.619572
v -0.145333 0.023806 1.695566
v 0.145333 0.023806 1.695566
v -0.145333 0.023806 -1.695566
v 0.145333 0.023806 -1.695566
v -0.145333 -0.027818 -1.695566
v 0.145333 -0.027818 -1.695566
v 0.294130 -0.024651 -1.693665
v 0.294130 -0.025784 1.716260
v 0.294130 0.020638 -1.693665
v 0.294130 0.020638 1.693665
v -0.294130 -0.024651 -1.693665
v -0.294130 -0.025784 1.724065
v -0.294130 0.020638 1.693665
v -0.294130 0.020638 -1.693665
v 0.575046 -0.021522 -1.693665
v 0.575046 -0.021522 1.804966
v 0.587939 0.017510 -1.693665
v 0.587939 0.017510 1.693665
v -0.575046 -0.021522 -1.693665
v -0.575046 -0.021522 1.804966
v -0.587939 0.017510 1.693665
v -0.587939 0.017510 -1.693665
v 1.050206 -0.016169 -1.693665
v 1.050206 -0.016169 1.804966
v 1.073753 0.012157 -1.693665
v 1.073753 0.012157 1.693665
v -1.050206 -0.016169 -1.693665
v -1.050206 -0.016169 1.804966
v -1.073753 0.012157 1.693665
v -1.073753 0.012157 -1.693665
v -0.145334 -0.013587 1.845115
v 0.145334 -0.013587 1.845115
v 0.145334 0.013587 1.832883
v -0.145334 0.013587 1.832883
v -0.145334 0.013587 -1.832883
v 0.145334 0.013587 -1.832883
v 0.145334 -0.013587 -1.832883
v -0.145334 -0.013587 -1.832883
v 1.275686 -0.006938 -1.843060
v 1.275686 -0.006938 1.843046
v 1.267225 0.006938 -1.830829
v 1.267225 0.006938 1.830829
v -1.275686 -0.006938 -1.843060
v -1.275686 -0.006938 1.843046
v -1.267225 0.006938 1.830829
v -1.267225 0.006938 -1.830829
v 0.294131 0.011779 -1.830829
v 0.294131 -0.011779 -1.830829
v 0.294131 -0.011779 1.843046
v 0.294131 0.011779 1.830829
v -0.294131 0.011779 1.830829
v -0.294131 -0.011779 1.843046
v -0.294131 -0.011779 -1.830829
v -0.294131 0.011779 -1.830829
v 0.587940 0.009993 -1.830829
v 0.587940 -0.009993 -1.830829
v 0.587940 -0.009993 1.843046
v 0.587940 0.009993 1.830829
v -0.587940 0.009993 1.830829
v -0.587940 -0.009993 1.843046
v -0.587940 -0.009993 -1.830829
v -0.587940 0.009993 -1.830829
v -0.145333 -0.032378 1.619572
v 0.145333 -0.032378 1.619572
v 0.145334 -0.022950 1.832883
v -0.145334 -0.022950 1.832883
v 1.073753 -0.019871 -1.674126
v 1.073753 -0.023608 1.804966
v 1.267225 -0.012564 -1.811290
v 1.267225 -0.016301 1.830829
v -1.073753 -0.019871 -1.674126
v -1.073753 -0.023608 1.804966
v -1.267225 -0.016301 1.830829
v -1.267225 -0.012564 -1.811290
v 0.294130 -0.029210 1.716260
v 0.294131 -0.021142 1.830829
v -0.294130 -0.029210 1.724065
v -0.294131 -0.021142 1.830829
v 0.587939 -0.024948 1.804966
v 0.587940 -0.019356 1.830829
v -0.587939 -0.024948 1.804966
v -0.587940 -0.019356 1.830829
v -0.004285 -0.032378 1.612340
v -0.004285 -0.022950 1.832884
v -0.004285 -0.013587 1.845115
v -0.004285 0.013587 1.832884
v -0.004285 0.023806 1.695566
v -0.004285 0.023806 -1.695566
v -0.004285 0.013587 -1.832884
v -0.004285 -0.013587 -1.832884
v -0.004285 -0.027818 -1.695566
v -0.004285 -0.028951 1.612340
v 0.237888 -0.030407 1.649745
v 0.237889 -0.021825 1.831605
v 0.237889 -0.012463 1.843828
v 0.237889 0.012463 1.831605
v 0.237888 0.021836 1.694383
v 0.237888 0.021836 -1.694383
v 0.237889 0.012463 -1.831605
v 0.237889 -0.012463 -1.831605
v 0.237888 -0.025848 -1.694383
v 0.237888 -0.026981 1.649745
v -0.228586 -0.030605 1.648068
v -0.228586 -0.027179 1.648068
v -0.228586 -0.026046 -1.694502
v -0.228586 -0.012576 -1.831734
v -0.228586 0.012576 -1.831734
v -0.228586 0.022034 -1.694502
v -0.228586 0.022034 1.694502
v -0.228586 0.012576 1.831734
v -0.228586 -0.012576 1.843957
v -0.228586 -0.021938 1.831734
vt 0.375000 0.000000
vt 0.625000 0.000000
vt 0.375000 0.250000
vt 0.625000 0.250000
vt 0.375000 0.500000
vt 0.625000 0.500000
vt 0.375000 0.750000
vt 0.625000 0.750000
vt 0.375000 1.000000
vt 0.625000 1.000000
vt 0.875000 0.000000
vt 0.875000 0.250000
vt 0.125000 0.000000
vt 0.125000 0.250000
vt 0.625000 0.000000
vt 0.875000 0.000000
vt 0.875000 0.250000
vt 0.625000 0.250000
vt 0.125000 0.000000
vt 0.375000 0.000000
vt 0.375000 0.250000
vt 0.125000 0.250000
vt 0.625000 0.000000
vt 0.875000 0.000000
vt 0.875000 0.250000
vt 0.625000 0.250000
vt 0.125000 0.000000
vt 0.375000 0.000000
vt 0.375000 0.250000
vt 0.125000 0.250000
vt 0.625000 0.000000
vt 0.875000 0.000000
vt 0.875000 0.250000
vt 0.625000 0.250000
vt 0.125000 0.000000
vt 0.375000 0.000000
vt 0.375000 0.250000
vt 0.125000 0.250000
vt 0.375000 0.000000
vt 0.625000 0.000000
vt 0.625000 0.250000
vt 0.375000 0.250000
vt 0.375000 0.500000
vt 0.625000 0.500000
vt 0.625000 0.750000
vt 0.375000 0.750000
vt 0.625000 0.000000
vt 0.875000 0.000000
vt 0.875000 0.250000
vt 0.625000 0.250000
vt 0.125000 0.000000
vt 0.375000 0.000000
vt 0.375000 0.250000
vt 0.125000 0.250000
vt 0.875000 0.250000
vt 0.875000 0.250000
vt 0.875000 0.000000
vt 0.875000 0.000000
vt 0.625000 0.000000
vt 0.625000 0.250000
vt 0.375000 0.250000
vt 0.375000 0.000000
vt 0.125000 0.000000
vt 0.125000 0.000000
vt 0.125000 0.250000
vt 0.125000 0.250000
vt 0.875000 0.250000
vt 0.875000 0.000000
vt 0.625000 0.000000
vt 0.625000 0.250000
vt 0.375000 0.250000
vt 0.375000 0.000000
vt 0.125000 0.000000
vt 0.125000 0.250000
vt 0.375000 0.000000
vt 0.625000 0.000000
vt 0.625000 0.000000
vt 0.375000 0.000000
vt 0.625000 0.000000
vt 0.875000 0.000000
vt 0.875000 0.000000
vt 0.625000 0.000000
vt 0.125000 0.000000
vt 0.375000 0.000000
vt 0.375000 0.000000
vt 0.125000 0.000000
vt 0.625000 0.000000
vt 0.625000 0.000000
vt 0.375000 0.000000
vt 0.375000 0.000000
vt 0.625000 0.000000
vt 0.625000 0.000000
vt 0.375000 0.000000
vt 0.375000 0.000000
vt 0.496314 0.000000
vt 0.496314 0.000000
vt 0.496314 0.000000
vt 0.496314 0.250000
vt 0.496314 0.250000
vt 0.496314 0.500000
vt 0.496314 0.500000
vt 0.496314 0.750000
vt 0.496314 0.750000
vt 0.496314 0.000000
vt 0.496314 1.000000
vt 0.625000 0.000000
vt 0.625000 0.000000
vt 0.625000 0.000000
vt 0.625000 0.250000
vt 0.625000 0.250000
vt 0.875000 0.250000
vt 0.875000 0.250000
vt 0.875000 0.000000
vt 0.875000 0.000000
vt 0.625000 0.000000
vt 0.375000 0.000000
vt 0.375000 0.000000
vt 0.125000 0.000000
vt 0.125000 0.000000
vt 0.125000 0.250000
vt 0.125000 0.250000
vt 0.375000 0.250000
vt 0.375000 0.250000
vt 0.375000 0.000000
vt 0.375000 0.000000
vn -0.000001 0.410450 0.911883
vn 0.000000 0.410450 0.911883
vn 0.000000 0.410450 0.911883
vn -0.000001 0.410450 0.911883
vn 0.000000 1.000000 0.000000
vn 0.000000 1.000000 0.000000
vn 0.000000 1.000000 0.000000
vn 0.000000 1.000000 0.000000
vn -0.000001 0.000000 -1.000000
vn -0.000000 0.000000 -1.000000
vn -0.000000 0.000000 -1.000000
vn -0.000001 0.000000 -1.000000
vn -0.000009 -1.000000 -0.000342
vn 0.000000 -1.000000 -0.000342
vn -0.000000 -1.000000 -0.000342
vn -0.000009 -1.000000 -0.000342
vn 0.853799 0.520603 0.000000
vn 0.853799 0.520603 0.000000
vn 0.853799 0.520603 0.000000
vn 0.853799 0.520603 0.000000
vn -0.853797 0.520606 0.000000
vn -0.853797 0.520606 0.000000
vn -0.853797 0.520606 0.000000
vn -0.853797 0.520606 0.000000
vn 0.021339 -0.999772 -0.000340
vn 0.021339 -0.999772 -0.000340
vn 0.021394 -0.999771 -0.000338
vn 0.021397 -0.999771 -0.000338
vn 0.013807 0.000000 -0.999905
vn 0.013807 0.000000 -0.999905
vn 0.013808 0.000000 -0.999905
vn 0.013808 0.000000 -0.999905
vn 0.021282 0.999774 0.000000
vn 0.021282 0.999774 0.000000
vn 0.021282 0.999774 0.000000
vn 0.021282 0.999774 0.000000
vn 0.012541 0.424868 0.905169
vn 0.012541 0.424868 0.905169
vn 0.012484 0.433604 0.901017
vn 0.012484 0.433604 0.901017
vn -0.021342 -0.999772 -0.000340
vn -0.021342 -0.999772 -0.000340
vn -0.021406 -0.999771 -0.000338
vn -0.021403 -0.999771 -0.000338
vn -0.012550 0.423374 0.905868
vn -0.012550 0.423374 0.905868
vn -0.012484 0.433578 0.901030
vn -0.012484 0.433578 0.901030
vn -0.021282 0.999774 0.000000
vn -0.021282 0.999774 0.000000
vn -0.021282 0.999774 0.000000
vn -0.021282 0.999774 0.000000
vn -0.013807 0.000000 -0.999905
vn -0.013807 0.000000 -0.999905
vn -0.013808 0.000000 -0.999905
vn -0.013808 0.000000 -0.999905
vn 0.013179 -0.999913 -0.000164
vn 0.013179 -0.999913 -0.000164
vn 0.013179 -0.999913 -0.000164
vn 0.013179 -0.999913 -0.000164
vn 0.000000 0.000000 -1.000000
vn 0.000000 0.000000 -1.000000
vn 0.000000 0.000000 -1.000000
vn 0.000000 0.000000 -1.000000
vn 0.010649 0.999943 0.000000
vn 0.010649 0.999943 0.000000
vn 0.010649 0.999943 0.000000
vn 0.010649 0.999943 0.000000
vn 0.000000 0.489362 0.872081
vn 0.000000 0.489362 0.872081
vn 0.000000 0.489362 0.872081
vn 0.000000 0.489362 0.872081
vn -0.013177 -0.999913 -0.000164
vn -0.013177 -0.999913 -0.000164
vn -0.013177 -0.999913 -0.000164
vn -0.013177 -0.999913 -0.000164
vn 0.000000 0.489362 0.872081
vn 0.000000 0.489362 0.872081
vn 0.000000 0.489362 0.872081
vn 0.000000 0.489362 0.872081
vn -0.010649 0.999943 0.000000
vn -0.010649 0.999943 0.000000
vn -0.010649 0.999943 0.000000
vn -0.010649 0.999943 0.000000
vn 0.000000 0.000000 -1.000000
vn 0.000000 0.000000 -1.000000
vn 0.000000 0.000000 -1.000000
vn 0.000000 0.000000 -1.000000
vn 0.011265 -0.999937 0.000000
vn 0.011265 -0.999937 0.000000
vn 0.011265 -0.999937 0.000000
vn 0.011265 -0.999937 0.000000
vn -0.008421 0.337841 -0.941165
vn -0.008421 0.337841 -0.941166
vn -0.008421 0.337841 -0.941166
vn -0.008421 0.337841 -0.941165
vn 0.011018 0.999939 0.000000
vn 0.011018 0.999939 0.000000
vn 0.011018 0.999939 0.000000
vn 0.011018 0.999939 0.000000
vn -0.000000 0.585148 0.810926
vn -0.000000 0.585148 0.810926
vn -0.000000 0.585148 0.810926
vn -0.000000 0.585148 0.810926
vn -0.011265 -0.999937 0.000000
vn -0.011265 -0.999937 0.000000
vn -0.011265 -0.999937 0.000000
vn -0.011265 -0.999937 0.000000
vn -0.000000 0.585148 0.810926
vn -0.000000 0.585148 0.810926
vn -0.000000 0.585148 0.810926
vn -0.000000 0.585148 0.810926
vn -0.011018 0.999939 0.000000
vn -0.011018 0.999939 0.000000
vn -0.011018 0.999939 0.000000
vn -0.011018 0.999939 0.000000
vn 0.008421 0.337841 -0.941166
vn 0.008421 0.337841 -0.941165
vn 0.008421 0.337841 -0.941165
vn 0.008421 0.337841 -0.941166
vn 0.001113 -0.999056 0.043421
vn -0.000000 -0.999057 0.043421
vn 0.000000 -0.999057 0.043421
vn 0.001113 -0.999056 0.043421
vn 0.000000 0.997243 0.074212
vn -0.000000 0.997243 0.074212
vn -0.000000 0.997243 0.074212
vn -0.000000 0.997243 0.074212
vn -0.000000 0.997242 -0.074212
vn 0.000000 0.997243 -0.074212
vn -0.000000 0.997243 -0.074212
vn -0.000000 0.997242 -0.074212
vn 0.000000 -0.994673 -0.103085
vn -0.000000 -0.994673 -0.103085
vn -0.000000 -0.994673 -0.103085
vn -0.000000 -0.994673 -0.103085
vn 0.037439 -0.999298 -0.001049
vn 0.037439 -0.999298 -0.001049
vn 0.037439 -0.999298 -0.001049
vn 0.037439 -0.999298 -0.001049
vn 0.026962 0.999636 0.000000
vn 0.026962 0.999636 0.000000
vn 0.026962 0.999636 0.000000
vn 0.026962 0.999636 0.000000
vn -0.037439 -0.999298 -0.001049
vn -0.037439 -0.999298 -0.001049
vn -0.037439 -0.999298 -0.001049
vn -0.037439 -0.999298 -0.001049
vn -0.026962 0.999636 0.000000
vn -0.026962 0.999636 0.000000
vn -0.026962 0.999636 0.000000
vn -0.026962 0.999636 0.000000
vn 0.017619 0.997309 -0.071171
vn 0.017598 0.997427 -0.069490
vn 0.017595 0.997445 -0.069232
vn 0.017619 0.997309 -0.071171
vn 0.017942 -0.994984 -0.098412
vn 0.017961 -0.994818 -0.100072
vn 0.017961 -0.994818 -0.100072
vn 0.017939 -0.995010 -0.098152
vn 0.009593 -0.998917 0.045527
vn 0.002512 -0.998823 0.048440
vn 0.001108 -0.998797 0.049017
vn 0.009593 -0.998917 0.045527
vn 0.017599 0.997427 0.069490
vn 0.017619 0.997309 0.071171
vn 0.017619 0.997309 0.071171
vn 0.017595 0.997445 0.069232
vn -0.017623 0.997287 0.071475
vn -0.017599 0.997427 0.069500
vn -0.017595 0.997446 0.069228
vn -0.017623 0.997287 0.071475
vn 0.000568 -0.998742 0.050143
vn -0.000941 -0.998777 0.049433
vn -0.009221 -0.998920 0.045534
vn -0.009221 -0.998920 0.045534
vn -0.017965 -0.994788 -0.100373
vn -0.017942 -0.994983 -0.098422
vn -0.017939 -0.995010 -0.098148
vn -0.017965 -0.994788 -0.100373
vn -0.017599 0.997427 -0.069500
vn -0.017623 0.997287 -0.071475
vn -0.017623 0.997287 -0.071475
vn -0.017595 0.997446 -0.069228
vn 0.008348 0.998188 -0.059584
vn 0.008348 0.998188 -0.059584
vn 0.008348 0.998188 -0.059584
vn 0.008348 0.998188 -0.059584
vn 0.008518 -0.996067 -0.088195
vn 0.008518 -0.996067 -0.088195
vn 0.008518 -0.996067 -0.088195
vn 0.008518 -0.996067 -0.088195
vn -0.004373 -0.995292 0.096820
vn -0.004373 -0.995292 0.096820
vn -0.004373 -0.995292 0.096820
vn -0.004373 -0.995292 0.096820
vn 0.008348 0.998188 0.059584
vn 0.008348 0.998188 0.059584
vn 0.008348 0.998188 0.059584
vn 0.008348 0.998188 0.059584
vn -0.008348 0.998188 0.059584
vn -0.008348 0.998188 0.059584
vn -0.008348 0.998188 0.059584
vn -0.008348 0.998188 0.059584
vn 0.003869 -0.994730 0.102460
vn 0.003869 -0.994730 0.102460
vn 0.003869 -0.994730 0.102460
vn 0.003869 -0.994730 0.102460
vn -0.008518 -0.996067 -0.088195
vn -0.008518 -0.996067 -0.088195
vn -0.008518 -0.996067 -0.088195
vn -0.008518 -0.996067 -0.088195
vn -0.008348 0.998188 -0.059584
vn -0.008348 0.998188 -0.059584
vn -0.008348 0.998188 -0.059584
vn -0.008348 0.998188 -0.059584
vn 0.007210 0.999121 -0.041294
vn 0.007210 0.999121 -0.041294
vn 0.007210 0.999121 -0.041294
vn 0.007210 0.999121 -0.041294
vn 0.006511 -0.997741 -0.066864
vn 0.006511 -0.997741 -0.066863
vn 0.006511 -0.997741 -0.066863
vn 0.006511 -0.997741 -0.066864
vn 0.003673 -0.973416 0.229015
vn 0.003673 -0.973416 0.229015
vn 0.003673 -0.973416 0.229015
vn 0.003673 -0.973416 0.229015
vn 0.007210 0.999121 0.041294
vn 0.007210 0.999121 0.041294
vn 0.007210 0.999121 0.041294
vn 0.007210 0.999121 0.041294
vn -0.007210 0.999121 0.041294
vn -0.007210 0.999121 0.041294
vn -0.007210 0.999121 0.041294
vn -0.007210 0.999121 0.041294
vn -0.003673 -0.973416 0.229015
vn -0.003673 -0.973416 0.229015
vn -0.003673 -0.973416 0.229015
vn -0.003673 -0.973416 0.229015
vn -0.006511 -0.997741 -0.066863
vn -0.006511 -0.997741 -0.066864
vn -0.006511 -0.997741 -0.066864
vn -0.006511 -0.997741 -0.066863
vn -0.007210 0.999121 -0.041294
vn -0.007210 0.999121 -0.041294
vn -0.007210 0.999121 -0.041294
vn -0.007210 0.999121 -0.041294
vn -0.051203 0.000000 -0.998688
vn 0.000000 0.000000 -1.000000
vn 0.000000 0.000000 -1.000000
vn -0.051203 0.000000 -0.998688
vn 0.000000 -0.794070 0.607826
vn -0.000001 -0.794070 0.607827
vn -0.000001 -0.794070 0.607827
vn 0.000000 -0.794070 0.607826
vn -0.230006 -0.973189 -0.000521
vn -0.230006 -0.973189 -0.000521
vn -0.230006 -0.973189 -0.000521
vn -0.230006 -0.973189 -0.000521
vn -0.069589 -0.984891 -0.158579
vn -0.069589 -0.984891 -0.158579
vn -0.069589 -0.984891 -0.158579
vn -0.069589 -0.984891 -0.158579
vn 0.662774 -0.748819 -0.000382
vn 0.662774 -0.748819 -0.000382
vn 0.662774 -0.748819 -0.000382
vn 0.662774 -0.748819 -0.000382
vn 0.230006 -0.973189 -0.000521
vn 0.230006 -0.973189 -0.000521
vn 0.230006 -0.973189 -0.000521
vn 0.230006 -0.973189 -0.000521
vn -0.662774 -0.748820 -0.000382
vn -0.662774 -0.748820 -0.000382
vn -0.662774 -0.748820 -0.000382
vn -0.662774 -0.748820 -0.000382
vn 0.069589 -0.984891 -0.158579
vn 0.069589 -0.984891 -0.158579
vn 0.069589 -0.984891 -0.158579
vn 0.069589 -0.984891 -0.158579
vn 0.309952 0.000000 -0.950752
vn 0.562625 0.000000 -0.826712
vn 0.527039 0.000000 -0.849841
vn 0.309952 0.000000 -0.950752
vn 0.018067 -0.793773 0.607946
vn 0.018065 -0.793839 0.607860
vn 0.018065 -0.793839 0.607860
vn 0.018067 -0.793780 0.607937
vn -0.591047 0.000000 -0.806637
vn -0.323842 0.000000 -0.946111
vn -0.323842 0.000000 -0.946111
vn -0.557956 0.000000 -0.829870
vn -0.018066 -0.793849 0.607846
vn -0.018067 -0.793773 0.607946
vn -0.018067 -0.793780 0.607937
vn -0.018066 -0.793849 0.607846
vn 0.252961 0.475917 -0.842327
vn 0.252961 0.475917 -0.842327
vn 0.252961 0.475917 -0.842327
vn 0.252961 0.475917 -0.842327
vn 0.004824 -0.793731 0.608250
vn 0.004824 -0.793731 0.608250
vn 0.004824 -0.793731 0.608250
vn 0.004824 -0.793731 0.608250
vn -0.236554 0.445050 -0.863697
vn -0.236554 0.445050 -0.863697
vn -0.236554 0.445050 -0.863697
vn -0.236554 0.445050 -0.863697
vn -0.004824 -0.793731 0.608250
vn -0.004824 -0.793731 0.608250
vn -0.004824 -0.793731 0.608250
vn -0.004824 -0.793731 0.608250
vn -0.000000 0.000000 -1.000000
vn -0.000000 0.000000 -1.000000
vn -0.000000 0.000000 -1.000000
vn -0.000000 0.000000 -1.000000
vn 0.003550 -0.794328 0.607479
vn 0.003550 -0.794328 0.607479
vn 0.003550 -0.794328 0.607479
vn 0.003550 -0.794328 0.607479
vn 0.000001 0.000000 -1.000000
vn 0.000001 0.000000 -1.000000
vn 0.000001 0.000000 -1.000000
vn 0.000001 0.000000 -1.000000
vn -0.003551 -0.794328 0.607479
vn -0.003551 -0.794328 0.607479
vn -0.003551 -0.794328 0.607479
vn -0.003551 -0.794328 0.607479
vn -0.001049 -0.999056 0.043421
vn -0.001049 -0.999056 0.043421
vn 0.000001 -0.794070 0.607826
vn 0.000001 -0.794070 0.607826
vn 0.000001 0.410450 0.911883
vn 0.000001 0.410450 0.911883
vn 0.000000 0.997243 0.074212
vn 0.000000 0.997243 0.074212
vn 0.000000 1.000000 0.000000
vn 0.000000 1.000000 0.000000
vn 0.000000 0.997243 -0.074212
vn 0.000000 0.997243 -0.074212
vn 0.000001 0.000000 -1.000000
vn 0.000001 0.000000 -1.000000
vn 0.000000 -0.994673 -0.103085
vn 0.000000 -0.994673 -0.103085
vn 0.000008 -1.000000 -0.000342
vn 0.000008 -1.000000 -0.000342
vn 0.048277 0.000000 -0.998834
vn 0.048277 0.000000 -0.998834
vn -0.016082 -0.998297 0.056076
vn -0.016082 -0.998297 0.056076
vn 0.018070 -0.793674 0.608075
vn 0.018070 -0.793674 0.608075
vn 0.012371 0.450105 0.892890
vn 0.012371 0.450105 0.892890
vn 0.017560 0.997646 0.066291
vn 0.017560 0.997646 0.066291
vn 0.021282 0.999774 0.000000
vn 0.021282 0.999774 0.000000
vn 0.017560 0.997646 -0.066291
vn 0.017560 0.997646 -0.066291
vn 0.013808 0.000000 -0.999905
vn 0.013808 0.000000 -0.999905
vn 0.017905 -0.995293 -0.095244
vn 0.017905 -0.995293 -0.095244
vn 0.021482 -0.999769 -0.000335
vn 0.021482 -0.999769 -0.000335
vn 0.763609 0.000000 -0.645679
vn 0.763609 0.000000 -0.645679
vn -0.757265 0.000000 -0.653107
vn -0.757265 0.000000 -0.653107
vn -0.021478 -0.999769 -0.000335
vn -0.021478 -0.999769 -0.000335
vn -0.017909 -0.995264 -0.095546
vn -0.017909 -0.995264 -0.095546
vn -0.013809 0.000000 -0.999905
vn -0.013809 0.000000 -0.999905
vn -0.017563 0.997625 -0.066597
vn -0.017563 0.997625 -0.066597
vn -0.021282 0.999774 0.000000
vn -0.021282 0.999774 0.000000
vn -0.017563 0.997625 0.066597
vn -0.017563 0.997625 0.066597
vn -0.012384 0.448450 0.893722
vn -0.012384 0.448450 0.893722
vn -0.018067 -0.793684 0.608062
vn -0.018067 -0.793684 0.608062
vn 0.016262 -0.998212 0.057521
vn 0.016262 -0.998212 0.057521
s 1
g pCube195
usemtl initialShadingGroup
f 33/39/1 87/97/2 88/98/3 36/42/4
s 2
f 3/3/5 89/99/6 90/100/7 5/5/8
s 3
f 37/43/9 91/101/10 92/102/11 40/46/12
s 4
f 7/7/13 93/103/14 94/105/15 1/9/16
s off
f 42/47/17 41/48/18 43/49/19 44/50/20
f 45/51/21 46/52/22 47/53/23 48/54/24
s 5
f 2/2/25 8/11/26 103/114/27 104/115/28
s 6
f 39/58/29 38/55/30 101/112/31 102/113/32
s 7
f 6/12/33 4/4/34 99/110/35 100/111/36
s 8
f 35/41/37 34/40/38 97/108/39 98/109/40
s 9
f 7/13/41 1/1/42 106/117/43 107/118/44
s 10
f 33/39/45 36/42/46 112/123/47 113/124/48
s 11
f 3/3/49 5/14/50 110/121/51 111/122/52
s 12
f 37/66/53 40/63/54 108/119/55 109/120/56
s off
f 10/15/57 9/16/58 17/24/59 18/23/60
f 50/57/61 49/56/62 57/67/63 58/68/64
f 11/17/65 12/18/66 20/26/67 19/25/68
f 52/60/69 51/59/70 59/69/71 60/70/72
f 13/19/73 14/20/74 22/28/75 21/27/76
f 54/62/77 53/61/78 61/71/79 62/72/80
f 15/21/81 16/22/82 24/30/83 23/29/84
f 56/65/85 55/64/86 63/73/87 64/74/88
f 18/23/89 17/24/90 25/32/91 26/31/92
f 58/68/93 57/67/94 43/49/95 41/48/96
f 19/25/97 20/26/98 28/34/99 27/33/100
f 60/70/101 59/69/102 42/47/103 44/50/104
f 21/27/105 22/28/106 30/36/107 29/35/108
f 62/72/109 61/71/110 47/53/111 46/52/112
f 23/29/113 24/30/114 32/38/115 31/37/116
f 64/74/117 63/73/118 45/51/119 48/54/120
s 13
f 65/75/121 85/95/122 86/96/123 68/78/124
s 14
f 89/99/125 3/3/126 36/42/127 88/98/128
s 15
f 5/5/129 90/100/130 91/101/131 37/43/132
s 16
f 93/103/133 7/7/134 40/46/135 92/102/136
s off
f 70/79/137 69/80/138 71/81/139 72/82/140
f 27/33/141 28/34/142 44/50/143 43/49/144
f 73/83/145 74/84/146 75/85/147 76/86/148
f 31/37/149 32/38/150 48/54/151 47/53/152
s 17
f 6/12/153 100/111/154 101/112/155 38/55/156
s 18
f 103/114/157 8/11/158 39/58/159 102/113/160
s 19
f 66/76/161 95/106/162 96/107/163 67/77/164
s 20
f 99/110/165 4/4/166 35/41/167 98/109/168
s 21
f 3/3/169 111/122/170 112/123/171 36/42/172
s 22
f 114/125/173 105/116/174 65/75/175 68/78/176
s 23
f 7/13/177 107/118/178 108/119/179 40/63/180
s 24
f 110/121/181 5/14/182 37/66/183 109/120/184
s off
f 11/17/185 19/25/186 57/67/187 49/56/188
f 17/24/189 9/16/190 50/57/191 58/68/192
f 77/87/193 81/91/194 82/92/195 78/88/196
f 20/26/197 12/18/198 52/60/199 60/70/200
f 15/21/201 23/29/202 61/71/203 53/61/204
f 83/93/205 79/89/206 80/90/207 84/94/208
f 13/19/209 21/27/210 63/73/211 55/64/212
f 24/30/213 16/22/214 56/65/215 64/74/216
f 19/25/217 27/33/218 43/49/219 57/67/220
f 25/32/221 17/24/222 58/68/223 41/48/224
f 81/91/225 70/79/226 72/82/227 82/92/228
f 28/34/229 20/26/230 60/70/231 44/50/232
f 23/29/233 31/37/234 47/53/235 61/71/236
f 74/84/237 83/93/238 84/94/239 75/85/240
f 21/27/241 29/35/242 45/51/243 63/73/244
f 32/38/245 24/30/246 64/74/247 48/54/248
s 25
f 1/1/249 94/104/250 85/95/251 65/75/252
s 26
f 87/97/253 33/39/254 68/78/255 86/96/256
s off
f 26/31/257 25/32/258 69/80/259 70/79/260
f 25/32/261 41/48/262 71/81/263 69/80/264
f 41/48/265 42/47/266 72/82/267 71/81/268
f 29/35/269 30/36/270 74/84/271 73/83/272
f 46/52/273 45/51/274 76/86/275 75/85/276
f 45/51/277 29/35/278 73/83/279 76/86/280
s 27
f 2/2/281 104/115/282 95/106/283 66/76/284
s 28
f 97/108/285 34/40/286 67/77/287 96/107/288
s 29
f 106/117/289 1/1/290 65/75/291 105/116/292
s 30
f 33/39/293 113/124/294 114/125/295 68/78/296
s off
f 10/15/297 18/23/298 81/91/299 77/87/300
f 59/69/301 51/59/302 78/88/303 82/92/304
f 22/28/305 14/20/306 79/89/307 83/93/308
f 54/62/309 62/72/310 84/94/311 80/90/312
f 18/23/313 26/31/314 70/79/315 81/91/316
f 42/47/317 59/69/318 82/92/319 72/82/320
f 30/36/321 22/28/322 83/93/323 74/84/324
f 62/72/325 46/52/326 75/85/327 84/94/328
s 13
f 85/95/122 66/76/329 67/77/330 86/96/123
s 26
f 34/40/331 87/97/253 86/96/256 67/77/332
s 1
f 88/98/3 87/97/2 34/40/333 35/41/334
s 14
f 4/4/335 89/99/125 88/98/128 35/41/336
s 2
f 90/100/7 89/99/6 4/4/337 6/6/338
s 15
f 91/101/131 90/100/130 6/6/339 38/44/340
s 3
f 92/102/11 91/101/10 38/44/341 39/45/342
s 16
f 8/8/343 93/103/133 92/102/136 39/45/344
s 4
f 94/105/15 93/103/14 8/8/345 2/10/346
s 25
f 85/95/251 94/104/250 2/2/347 66/76/348
s 19
f 95/106/162 77/87/349 78/88/350 96/107/163
s 28
f 51/59/351 97/108/285 96/107/288 78/88/352
s 8
f 98/109/40 97/108/39 51/59/353 52/60/354
s 20
f 12/18/355 99/110/165 98/109/168 52/60/356
s 7
f 100/111/36 99/110/35 12/18/357 11/17/358
s 17
f 101/112/155 100/111/154 11/17/359 49/56/360
s 6
f 102/113/32 101/112/31 49/56/361 50/57/362
s 18
f 9/16/363 103/114/157 102/113/160 50/57/364
s 5
f 104/115/28 103/114/27 9/16/365 10/15/366
s 27
f 95/106/283 104/115/282 10/15/367 77/87/368
s 29
f 14/20/369 106/117/289 105/116/292 79/89/370
s 9
f 107/118/44 106/117/43 14/20/371 13/19/372
s 23
f 108/119/179 107/118/178 13/19/373 55/64/374
s 12
f 109/120/56 108/119/55 55/64/375 56/65/376
s 24
f 16/22/377 110/121/181 109/120/184 56/65/378
s 11
f 111/122/52 110/121/51 16/22/379 15/21/380
s 21
f 112/123/171 111/122/170 15/21/381 53/61/382
s 10
f 113/124/48 112/123/47 53/61/383 54/62/384
s 30
f 114/125/295 113/124/294 54/62/385 80/90/386
s 22
f 79/89/387 105/116/174 114/125/173 80/90/388
