# Blender v2.92.0 OBJ File: 'assets2.2.blend'
# www.blender.org
mtllib Gavetas.mtl
o Cube.002_Cube.003
v -7.572768 4.294239 10.160516
v -7.572768 4.294239 3.148764
v -7.572768 7.938035 10.160516
v -7.572768 7.938035 3.148764
v -7.572768 0.735649 3.165647
v -7.572768 0.735649 10.143633
v -7.572768 4.197288 10.143633
v -7.572768 4.197288 3.165647
v -7.670620 0.803680 3.233678
v -7.602589 0.735649 3.165647
v -7.602589 0.735649 10.143633
v -7.670620 0.803680 10.075601
v -7.602589 4.197288 10.143633
v -7.670620 4.129256 10.075601
v -7.602589 4.197288 3.165647
v -7.670620 4.129256 3.233678
v -7.588937 4.294239 10.160516
v -7.670620 4.375922 10.078832
v -7.670620 4.375922 3.230448
v -7.588937 4.294239 3.148764
v -7.670620 7.856352 10.078832
v -7.588937 7.938035 10.160516
v -7.588937 7.938035 3.148764
v -7.670620 7.856352 3.230448
v -7.572768 0.707055 10.201271
v -7.531047 4.248922 10.247717
v -7.572768 4.248922 10.201453
v -7.572768 0.707055 3.108008
v -7.572768 4.248922 3.107826
v -7.531047 4.248922 3.061562
v -7.572768 7.959245 10.201329
v -7.572768 7.959245 3.107950
v -4.007861 0.684015 10.213026
v -4.007861 0.684015 3.096253
v -4.007861 7.983352 10.213026
v -4.007861 7.983352 3.096253
v -7.531047 0.684015 10.213026
v -7.531047 0.718706 10.247717
v -7.552796 0.696026 10.223505
v -7.531047 0.718706 3.061562
v -7.531047 0.684015 3.096253
v -7.552796 0.696026 3.085774
v -7.531047 7.948660 10.247717
v -7.531047 7.983352 10.213026
v -7.552687 7.970848 10.223658
v -7.531047 7.983352 3.096253
v -7.531047 7.948660 3.061562
v -7.552687 7.970848 3.085623
v -4.007861 4.248922 10.163789
v -4.091789 4.248922 10.247717
v -4.091789 4.248922 3.061562
v -4.007861 4.248922 3.145490
v -4.007861 0.684015 10.213026
v -4.091789 0.718706 10.247717
v -4.091789 0.718706 3.061562
v -4.007861 0.684015 3.096253
v -4.091789 7.948660 10.247717
v -4.007861 7.983352 10.213026
v -4.007861 7.983352 3.096253
v -4.091789 7.948660 3.061562
v -7.842151 6.006447 6.499790
v -7.612860 6.006447 6.499790
v -7.842151 5.915611 6.517859
v -7.612860 5.915611 6.517859
v -7.842151 5.838604 6.569313
v -7.612860 5.838604 6.569313
v -7.842151 5.787149 6.646320
v -7.612860 5.787149 6.646320
v -7.842151 5.769081 6.737156
v -7.612860 5.769081 6.737156
v -7.842151 5.787149 6.827992
v -7.612860 5.787149 6.827992
v -7.842151 5.838604 6.904999
v -7.612860 5.838604 6.904999
v -7.842151 5.915611 6.956453
v -7.612860 5.915611 6.956453
v -7.842151 6.006447 6.974522
v -7.612860 6.006447 6.974522
v -7.842151 6.097283 6.956453
v -7.612860 6.097283 6.956453
v -7.842151 6.174290 6.904999
v -7.612860 6.174290 6.904999
v -7.842151 6.225744 6.827992
v -7.612860 6.225744 6.827992
v -7.842151 6.243813 6.737156
v -7.612860 6.243813 6.737156
v -7.842151 6.225744 6.646320
v -7.612860 6.225744 6.646320
v -7.842151 6.174290 6.569313
v -7.612860 6.174290 6.569313
v -7.842151 6.097282 6.517859
v -7.612860 6.097282 6.517859
v -7.868757 6.006447 6.338095
v -7.868757 5.853733 6.368472
v -7.868757 5.724268 6.454977
v -7.868757 5.637763 6.584442
v -7.868757 5.607386 6.737156
v -7.868757 5.637763 6.889870
v -7.868757 5.724268 7.019334
v -7.868757 5.853733 7.105839
v -7.868757 6.006446 7.136216
v -7.868757 6.159161 7.105840
v -7.868757 6.288625 7.019334
v -7.868757 6.375131 6.889870
v -7.868757 6.405507 6.737156
v -7.868757 6.375131 6.584442
v -7.868757 6.288625 6.454977
v -7.868757 6.159161 6.368472
v -8.151136 6.006447 6.338095
v -8.151136 5.853733 6.368472
v -8.151136 5.724268 6.454977
v -8.151136 5.637763 6.584442
v -8.151136 5.607386 6.737156
v -8.151136 5.637763 6.889870
v -8.151136 5.724268 7.019334
v -8.151136 5.853733 7.105839
v -8.151136 6.006446 7.136216
v -8.151136 6.159161 7.105840
v -8.151136 6.288625 7.019334
v -8.151136 6.375131 6.889870
v -8.151136 6.405507 6.737156
v -8.151136 6.375131 6.584442
v -8.151136 6.288625 6.454977
v -8.151136 6.159161 6.368472
v -8.151135 6.006446 6.737156
v -7.842151 2.560121 6.499790
v -7.612860 2.560121 6.499790
v -7.842151 2.469285 6.517859
v -7.612860 2.469285 6.517859
v -7.842151 2.392279 6.569313
v -7.612860 2.392278 6.569313
v -7.842151 2.340824 6.646320
v -7.612860 2.340824 6.646320
v -7.842151 2.322756 6.737156
v -7.612860 2.322756 6.737156
v -7.842151 2.340824 6.827992
v -7.612860 2.340824 6.827992
v -7.842151 2.392279 6.904999
v -7.612860 2.392278 6.904999
v -7.842151 2.469285 6.956453
v -7.612860 2.469285 6.956453
v -7.842151 2.560121 6.974522
v -7.612860 2.560121 6.974522
v -7.842151 2.650957 6.956453
v -7.612860 2.650957 6.956453
v -7.842151 2.727964 6.904999
v -7.612860 2.727964 6.904999
v -7.842151 2.779418 6.827992
v -7.612860 2.779418 6.827992
v -7.842151 2.797487 6.737156
v -7.612860 2.797487 6.737156
v -7.842151 2.779418 6.646320
v -7.612860 2.779418 6.646320
v -7.842151 2.727964 6.569313
v -7.612860 2.727964 6.569313
v -7.842151 2.650957 6.517859
v -7.612860 2.650957 6.517859
v -7.868757 2.560121 6.338095
v -7.868757 2.407407 6.368472
v -7.868757 2.277943 6.454977
v -7.868757 2.191437 6.584442
v -7.868757 2.161061 6.737156
v -7.868757 2.191437 6.889870
v -7.868757 2.277943 7.019334
v -7.868757 2.407407 7.105839
v -7.868757 2.560121 7.136216
v -7.868757 2.712835 7.105840
v -7.868757 2.842299 7.019334
v -7.868757 2.928805 6.889870
v -7.868757 2.959182 6.737156
v -7.868757 2.928805 6.584442
v -7.868757 2.842299 6.454977
v -7.868757 2.712835 6.368472
v -8.151136 2.560121 6.338095
v -8.151136 2.407407 6.368472
v -8.151136 2.277943 6.454977
v -8.151136 2.191437 6.584442
v -8.151136 2.161061 6.737156
v -8.151136 2.191437 6.889870
v -8.151136 2.277943 7.019334
v -8.151136 2.407407 7.105839
v -8.151136 2.560121 7.136216
v -8.151136 2.712835 7.105840
v -8.151136 2.842299 7.019334
v -8.151136 2.928805 6.889870
v -8.151136 2.959182 6.737156
v -8.151136 2.928805 6.584442
v -8.151136 2.842299 6.454977
v -8.151136 2.712835 6.368472
v -8.151135 2.560121 6.737156
vt 0.126401 0.500000
vt 0.127926 0.501207
vt 0.127926 0.748793
vt 0.126401 0.750000
vt 0.125000 0.750000
vt 0.125000 0.500000
vt 0.626624 0.250000
vt 0.375000 0.250000
vt 0.375000 0.250000
vt 0.625000 0.250000
vt 0.625000 0.494114
vt 0.625000 0.252926
vt 0.625000 0.252926
vt 0.625000 0.494114
vt 0.625000 0.001609
vt 0.625000 0.248391
vt 0.625000 0.000000
vt 0.375000 1.000000
vt 0.626624 1.000000
vt 0.625000 1.000000
vt 0.375000 1.000000
vt 0.625000 0.250000
vt 0.625000 0.250000
vt 0.625000 0.250000
vt 0.625000 0.250000
vt 0.625000 0.747080
vt 0.625000 0.502920
vt 0.625000 0.501207
vt 0.625000 0.501207
vt 0.625000 0.748793
vt 0.625000 0.748793
vt 0.875000 0.750000
vt 0.875000 0.500000
vt 0.875000 0.500000
vt 0.875000 0.750000
vt 0.625000 1.000000
vt 0.625000 1.000000
vt 0.625000 1.000000
vt 0.625000 1.000000
vt 0.377433 0.755886
vt 0.625000 0.755886
vt 0.625000 0.997074
vt 0.377433 0.997074
vt 0.625000 0.000000
vt 0.872074 0.501207
vt 0.872074 0.748793
vt 0.625000 0.250000
vt 0.625000 0.250000
vt 0.375000 0.748793
vt 0.369114 0.750000
vt 0.127926 0.750000
vt 0.375000 0.748793
vt 0.377433 0.252926
vt 0.377433 0.494114
vt 0.625000 0.755886
vt 0.625000 0.997074
vt 0.625000 1.000000
vt 0.625000 1.000000
vt 0.375000 0.250000
vt 0.625000 0.250000
vt 0.379913 0.002437
vt 0.620087 0.002437
vt 0.620087 0.247563
vt 0.379913 0.247563
vt 0.875000 0.500000
vt 0.875000 0.750000
vt 0.625000 1.000000
vt 0.375000 1.000000
vt 0.625000 0.247088
vt 0.625000 0.002912
vt 0.625000 0.002912
vt 0.625000 0.247088
vt 0.625000 0.000000
vt 0.375000 0.000000
vt 0.125000 0.500000
vt 0.125000 0.750000
vt 0.125000 0.750000
vt 0.125000 0.500000
vt 0.625000 0.000000
vt 0.625000 0.000000
vt 0.375000 0.998599
vt 0.375000 0.251401
vt 0.625000 0.998592
vt 0.625000 0.251408
vt 0.873592 0.750000
vt 0.873592 0.500000
vt 0.374330 0.998283
vt 0.127926 0.500000
vt 0.127926 0.500842
vt 0.625000 0.997074
vt 0.625000 0.997074
vt 0.625000 0.251717
vt 0.625000 0.750000
vt 0.625000 0.750000
vt 0.369114 0.500000
vt 0.375000 0.501207
vt 0.375000 0.501207
vt 0.625000 0.252926
vt 0.625000 0.500000
vt 0.625000 0.500000
vt 1.000000 0.500000
vt 1.000000 1.000000
vt 0.937500 1.000000
vt 0.937500 0.500000
vt 0.875000 1.000000
vt 0.875000 0.500000
vt 0.812500 1.000000
vt 0.812500 0.500000
vt 0.750000 1.000000
vt 0.750000 0.500000
vt 0.687500 1.000000
vt 0.687500 0.500000
vt 0.625000 1.000000
vt 0.625000 0.500000
vt 0.562500 1.000000
vt 0.562500 0.500000
vt 0.500000 1.000000
vt 0.500000 0.500000
vt 0.437500 1.000000
vt 0.437500 0.500000
vt 0.375000 1.000000
vt 0.375000 0.500000
vt 0.312500 1.000000
vt 0.312500 0.500000
vt 0.250000 1.000000
vt 0.250000 0.500000
vt 0.187500 1.000000
vt 0.187500 0.500000
vt 0.125000 1.000000
vt 0.125000 0.500000
vt 0.341844 0.471731
vt 0.250000 0.490000
vt 0.158156 0.471731
vt 0.080294 0.419706
vt 0.028269 0.341844
vt 0.010000 0.250000
vt 0.028269 0.158156
vt 0.080294 0.080294
vt 0.158156 0.028269
vt 0.250000 0.010000
vt 0.341844 0.028269
vt 0.419706 0.080294
vt 0.471731 0.158156
vt 0.490000 0.250000
vt 0.471731 0.341844
vt 0.419706 0.419706
vt 0.062500 1.000000
vt 0.062500 0.500000
vt 0.000000 1.000000
vt 0.000000 0.500000
vt 0.562500 0.500000
vt 0.625000 0.500000
vt 0.500000 0.500000
vt 0.437500 0.500000
vt 0.437500 0.500000
vt 0.500000 0.500000
vt 0.250000 0.500000
vt 0.312500 0.500000
vt 0.687500 0.500000
vt 0.750000 0.500000
vt 0.375000 0.500000
vt 0.062500 0.500000
vt 0.125000 0.500000
vt 0.812500 0.500000
vt 0.875000 0.500000
vt 0.937500 0.500000
vt 1.000000 0.500000
vt 0.187500 0.500000
vt 0.000000 0.500000
vt 0.312500 0.500000
vt 0.250000 0.500000
vt 0.312500 0.500000
vt 0.875000 0.500000
vt 0.937500 0.500000
vt 0.375000 0.500000
vt 0.812500 0.500000
vt 0.750000 0.500000
vt 0.687500 0.500000
vt 0.187500 0.500000
vt 0.625000 0.500000
vt 0.125000 0.500000
vt 0.562500 0.500000
vt 0.062500 0.500000
vt 1.000000 0.500000
vt 0.000000 0.500000
vt 0.750000 0.500000
vt 0.250000 0.500000
vt 0.687500 0.500000
vt 0.187500 0.500000
vt 0.625000 0.500000
vt 0.125000 0.500000
vt 0.562500 0.500000
vt 1.000000 0.500000
vt 0.062500 0.500000
vt 0.500000 0.500000
vt 0.937500 0.500000
vt 0.437500 0.500000
vt 0.875000 0.500000
vt 0.375000 0.500000
vt 0.812500 0.500000
vt 1.000000 0.500000
vt 1.000000 1.000000
vt 0.937500 1.000000
vt 0.937500 0.500000
vt 0.875000 1.000000
vt 0.875000 0.500000
vt 0.812500 1.000000
vt 0.812500 0.500000
vt 0.750000 1.000000
vt 0.750000 0.500000
vt 0.687500 1.000000
vt 0.687500 0.500000
vt 0.625000 1.000000
vt 0.625000 0.500000
vt 0.562500 1.000000
vt 0.562500 0.500000
vt 0.500000 1.000000
vt 0.500000 0.500000
vt 0.437500 1.000000
vt 0.437500 0.500000
vt 0.375000 1.000000
vt 0.375000 0.500000
vt 0.312500 1.000000
vt 0.312500 0.500000
vt 0.250000 1.000000
vt 0.250000 0.500000
vt 0.187500 1.000000
vt 0.187500 0.500000
vt 0.125000 1.000000
vt 0.125000 0.500000
vt 0.341844 0.471731
vt 0.250000 0.490000
vt 0.158156 0.471731
vt 0.080294 0.419706
vt 0.028269 0.341844
vt 0.010000 0.250000
vt 0.028269 0.158156
vt 0.080294 0.080294
vt 0.158156 0.028269
vt 0.250000 0.010000
vt 0.341844 0.028269
vt 0.419706 0.080294
vt 0.471731 0.158156
vt 0.490000 0.250000
vt 0.471731 0.341844
vt 0.419706 0.419706
vt 0.062500 1.000000
vt 0.062500 0.500000
vt 0.000000 1.000000
vt 0.000000 0.500000
vt 0.562500 0.500000
vt 0.625000 0.500000
vt 0.500000 0.500000
vt 0.437500 0.500000
vt 0.437500 0.500000
vt 0.500000 0.500000
vt 0.250000 0.500000
vt 0.312500 0.500000
vt 0.687500 0.500000
vt 0.750000 0.500000
vt 0.375000 0.500000
vt 0.062500 0.500000
vt 0.125000 0.500000
vt 0.812500 0.500000
vt 0.875000 0.500000
vt 0.937500 0.500000
vt 1.000000 0.500000
vt 0.187500 0.500000
vt 0.000000 0.500000
vt 0.312500 0.500000
vt 0.250000 0.500000
vt 0.312500 0.500000
vt 0.875000 0.500000
vt 0.937500 0.500000
vt 0.375000 0.500000
vt 0.812500 0.500000
vt 0.750000 0.500000
vt 0.687500 0.500000
vt 0.187500 0.500000
vt 0.625000 0.500000
vt 0.125000 0.500000
vt 0.562500 0.500000
vt 0.062500 0.500000
vt 1.000000 0.500000
vt 0.000000 0.500000
vt 0.750000 0.500000
vt 0.250000 0.500000
vt 0.687500 0.500000
vt 0.187500 0.500000
vt 0.625000 0.500000
vt 0.125000 0.500000
vt 0.562500 0.500000
vt 1.000000 0.500000
vt 0.062500 0.500000
vt 0.500000 0.500000
vt 0.937500 0.500000
vt 0.437500 0.500000
vt 0.875000 0.500000
vt 0.375000 0.500000
vt 0.812500 0.500000
vn -0.5651 -0.6111 -0.5543
vn -0.1828 -0.9279 -0.3248
vn -0.1828 -0.9279 0.3248
vn -0.5651 -0.6111 0.5543
vn -0.8628 -0.4281 0.2687
vn -0.8628 -0.4281 -0.2687
vn -0.9336 0.0000 -0.3583
vn -0.9045 -0.3015 -0.3015
vn -0.9045 0.3015 -0.3015
vn 0.3032 0.0001 -0.9529
vn -0.4068 0.0000 -0.9135
vn -0.3252 0.3004 -0.8966
vn 0.2056 0.3376 -0.9185
vn -0.9336 0.0000 0.3583
vn -0.9045 0.3015 0.3015
vn -0.9045 -0.3015 0.3015
vn -0.8669 0.4196 -0.2691
vn 0.8900 0.0001 0.4560
vn 0.8900 0.0001 -0.4560
vn 0.6915 0.3363 -0.6393
vn 0.4759 0.8125 -0.3366
vn 0.4759 0.8125 0.3366
vn 0.6915 0.3363 0.6393
vn -0.8669 0.4196 0.2691
vn 0.2056 -0.3375 0.9186
vn 0.3032 0.0001 0.9529
vn -0.4068 0.0000 0.9135
vn -0.3250 -0.2998 0.8969
vn -0.1917 0.9264 -0.3240
vn -0.1917 0.9264 0.3240
vn -0.3913 -0.6507 -0.6507
vn -0.3913 0.6507 -0.6507
vn 0.6915 -0.3362 0.6393
vn 0.4759 -0.8125 0.3366
vn -0.3250 -0.2998 -0.8969
vn 0.2056 -0.3375 -0.9186
vn 0.2056 0.3376 0.9185
vn -0.3252 0.3004 0.8966
vn -0.3913 0.6507 0.6507
vn -0.3913 -0.6507 0.6507
vn -0.9054 -0.3002 0.3002
vn -0.9054 0.3002 0.3002
vn -0.9054 0.3002 -0.3002
vn -0.9054 -0.3002 -0.3002
vn -0.5724 0.6062 0.5521
vn -0.5724 0.6062 -0.5521
vn 0.6915 -0.3362 -0.6393
vn 0.4759 -0.8125 -0.3366
vn 0.6897 0.0000 -0.7241
vn 0.6657 0.0000 -0.7462
vn 0.6657 -0.2855 -0.6894
vn 0.6897 -0.2771 -0.6690
vn 0.6657 -0.5276 -0.5276
vn 0.6897 -0.5120 -0.5120
vn 0.6657 -0.6894 -0.2855
vn 0.6897 -0.6690 -0.2771
vn 0.6657 -0.7462 0.0000
vn 0.6897 -0.7241 0.0000
vn 0.6657 -0.6894 0.2855
vn 0.6897 -0.6690 0.2771
vn 0.6657 -0.5276 0.5276
vn 0.6897 -0.5120 0.5120
vn 0.6657 -0.2855 0.6894
vn 0.6897 -0.2771 0.6690
vn 0.6657 0.0000 0.7462
vn 0.6897 0.0000 0.7241
vn 0.6657 0.2855 0.6894
vn 0.6897 0.2771 0.6690
vn 0.6657 0.5276 0.5276
vn 0.6897 0.5120 0.5120
vn 0.6657 0.6894 0.2855
vn 0.6897 0.6690 0.2771
vn 0.6657 0.7462 0.0000
vn 0.6897 0.7241 0.0000
vn 0.6657 0.6894 -0.2855
vn 0.6897 0.6690 -0.2771
vn 0.6657 0.5276 -0.5276
vn 0.6897 0.5120 -0.5120
vn 0.6657 0.2855 -0.6894
vn 0.6897 0.2771 -0.6690
vn 0.6100 -0.3032 0.7320
vn 0.6100 -0.5603 0.5603
vn 0.6100 0.0000 0.7924
vn 0.6100 0.3032 0.7320
vn -0.6657 0.2855 0.6894
vn -0.6657 0.0000 0.7462
vn 0.6100 0.7924 0.0000
vn 0.6100 0.7320 0.3032
vn 0.6100 -0.7320 0.3032
vn 0.6100 -0.7924 0.0000
vn 0.6100 0.5603 0.5603
vn 0.6100 0.3032 -0.7320
vn 0.6100 0.5603 -0.5603
vn 0.6100 -0.7320 -0.3032
vn 0.6100 -0.5603 -0.5603
vn 0.6100 -0.3032 -0.7320
vn 0.6100 0.0000 -0.7924
vn 0.6100 0.7320 -0.3032
vn -0.6657 0.6894 0.2855
vn -0.6657 0.7462 0.0000
vn -1.0000 0.0000 0.0000
vn -0.6657 -0.5276 -0.5276
vn -0.6657 -0.2855 -0.6894
vn -0.6657 0.5276 0.5276
vn -0.6657 -0.6894 -0.2855
vn -0.6657 -0.7462 0.0000
vn -0.6657 -0.6894 0.2855
vn -0.6657 0.6894 -0.2855
vn -0.6657 -0.5276 0.5276
vn -0.6657 0.5276 -0.5276
vn -0.6657 -0.2855 0.6894
vn -0.6657 0.2855 -0.6894
vn -0.6657 0.0000 -0.7462
usemtl None
s 1
f 42/1/1 41/2/2 37/3/3 39/4/4 25/5/5 28/6/6
f 29/7/7 28/8/6 5/9/8 8/10/9
f 51/11/10 30/12/11 47/13/12 60/14/13
f 27/15/14 29/16/7 8/10/9 7/17/15
f 25/18/5 27/19/14 7/20/15 6/21/16
f 32/22/17 29/23/7 2/24/8 4/25/9
f 49/26/18 52/27/19 59/28/20 36/29/21 35/30/22 58/31/23
f 31/32/24 32/33/17 4/34/9 3/35/15
f 27/36/14 31/37/24 3/38/15 1/39/16
f 54/40/25 50/41/26 26/42/27 38/43/28
f 29/16/7 27/15/14 1/44/16 2/24/8
f 36/29/21 46/45/29 44/46/30 35/30/22
f 4/25/9 2/24/8 20/47/31 23/48/32
f 53/49/33 54/50/25 38/51/28 37/3/3 33/52/34
f 40/53/35 30/12/11 51/11/10 55/54/36
f 26/42/27 50/41/26 57/55/37 43/56/38
f 1/39/16 3/38/15 22/57/39 17/58/40
f 8/10/9 5/9/8 10/59/31 15/60/32
f 12/61/41 14/62/42 16/63/43 9/64/44
f 3/35/15 4/34/9 23/65/32 22/66/39
f 6/21/16 7/20/15 13/67/39 11/68/40
f 19/69/44 18/70/41 21/71/42 24/72/43
f 7/17/15 8/10/9 15/60/32 13/73/39
f 10/59/31 11/74/40 12/61/41 9/64/44
f 11/74/40 13/73/39 14/62/42 12/61/41
f 13/73/39 15/60/32 16/63/43 14/62/42
f 15/60/32 10/59/31 9/64/44 16/63/43
f 5/75/8 6/76/16 11/77/40 10/78/31
f 18/70/41 19/69/44 20/47/31 17/79/40
f 22/80/39 23/48/32 24/72/43 21/71/42
f 19/69/44 24/72/43 23/48/32 20/47/31
f 17/79/40 22/80/39 21/71/42 18/70/41
f 2/24/8 1/44/16 17/79/40 20/47/31
f 39/81/4 38/43/28 26/42/27 27/19/14 25/18/5
f 30/12/11 40/53/35 42/82/1 28/8/6 29/7/7
f 26/42/27 43/56/38 45/83/45 31/37/24 27/36/14
f 29/23/7 32/22/17 48/84/46 47/13/12 30/12/11
f 45/85/45 44/46/30 46/45/29 48/86/46 32/33/17 31/32/24
f 28/6/6 25/5/5 6/76/16 5/75/8
f 37/87/3 38/43/28 39/81/4
f 40/88/35 41/2/2 42/89/1
f 43/56/38 44/90/30 45/91/45
f 46/92/29 47/13/12 48/84/46
f 35/93/22 44/90/30 43/56/38 57/55/37 58/94/23
f 40/88/35 55/95/36 56/96/47 34/97/48 41/2/2
f 46/98/29 36/99/21 59/100/20 60/14/13 47/13/12
f 41/2/2 34/97/48 33/52/34 37/3/3
f 55/54/36 51/11/10 52/27/19 56/96/47
f 50/41/26 54/40/25 53/49/33 49/26/18
f 57/55/37 50/41/26 49/26/18 58/31/23
f 51/11/10 60/14/13 59/28/20 52/27/19
f 34/97/48 56/96/47 52/27/19 49/26/18 53/49/33 33/52/34
f 61/101/49 62/102/50 64/103/51 63/104/52
f 63/104/52 64/103/51 66/105/53 65/106/54
f 65/106/54 66/105/53 68/107/55 67/108/56
f 67/108/56 68/107/55 70/109/57 69/110/58
f 69/110/58 70/109/57 72/111/59 71/112/60
f 71/112/60 72/111/59 74/113/61 73/114/62
f 73/114/62 74/113/61 76/115/63 75/116/64
f 75/116/64 76/115/63 78/117/65 77/118/66
f 77/118/66 78/117/65 80/119/67 79/120/68
f 79/120/68 80/119/67 82/121/69 81/122/70
f 81/122/70 82/121/69 84/123/71 83/124/72
f 83/124/72 84/123/71 86/125/73 85/126/74
f 85/126/74 86/125/73 88/127/75 87/128/76
f 87/128/76 88/127/75 90/129/77 89/130/78
f 64/131/51 62/132/50 92/133/79 90/134/77 88/135/75 86/136/73 84/137/71 82/138/69 80/139/67 78/140/65 76/141/63 74/142/61 72/143/59 70/144/57 68/145/55 66/146/53
f 89/130/78 90/129/77 92/147/79 91/148/80
f 91/148/80 92/147/79 62/149/50 61/150/49
f 73/114/62 75/116/64 100/151/81 99/152/82
f 101/153/83 102/154/84 118/155/85 117/156/86
f 83/124/72 85/126/74 105/157/87 104/158/88
f 69/110/58 71/112/60 98/159/89 97/160/90
f 79/120/68 81/122/70 103/161/91 102/154/84
f 89/130/78 91/148/80 108/162/92 107/163/93
f 65/106/54 67/108/56 96/164/94 95/165/95
f 75/116/64 77/118/66 101/153/83 100/151/81
f 61/101/49 63/104/52 94/166/96 93/167/97
f 85/126/74 87/128/76 106/168/98 105/157/87
f 71/112/60 73/114/62 99/152/82 98/159/89
f 81/122/70 83/124/72 104/158/88 103/161/91
f 91/148/80 61/150/49 93/169/97 108/162/92
f 67/108/56 69/110/58 97/160/90 96/164/94
f 77/118/66 79/120/68 102/154/84 101/153/83
f 87/128/76 89/130/78 107/163/93 106/168/98
f 63/104/52 65/106/54 95/165/95 94/166/96
f 120/170/99 121/171/100 125/172/101
f 94/166/96 95/165/95 111/173/102 110/174/103
f 102/154/84 103/161/91 119/175/104 118/155/85
f 95/165/95 96/164/94 112/176/105 111/173/102
f 103/161/91 104/158/88 120/170/99 119/175/104
f 96/164/94 97/160/90 113/177/106 112/176/105
f 104/158/88 105/157/87 121/171/100 120/170/99
f 97/160/90 98/159/89 114/178/107 113/177/106
f 105/157/87 106/168/98 122/179/108 121/171/100
f 98/159/89 99/152/82 115/180/109 114/178/107
f 106/168/98 107/163/93 123/181/110 122/179/108
f 99/152/82 100/151/81 116/182/111 115/180/109
f 107/163/93 108/162/92 124/183/112 123/181/110
f 100/151/81 101/153/83 117/156/86 116/182/111
f 93/167/97 94/166/96 110/174/103 109/184/113
f 108/162/92 93/169/97 109/185/113 124/183/112
f 113/177/106 114/178/107 125/186/101
f 121/171/100 122/179/108 125/187/101
f 114/178/107 115/180/109 125/188/101
f 122/179/108 123/181/110 125/189/101
f 115/180/109 116/182/111 125/190/101
f 123/181/110 124/183/112 125/191/101
f 116/182/111 117/156/86 125/192/101
f 109/184/113 110/174/103 125/193/101
f 124/183/112 109/185/113 125/194/101
f 117/156/86 118/155/85 125/195/101
f 110/174/103 111/173/102 125/196/101
f 118/155/85 119/175/104 125/197/101
f 111/173/102 112/176/105 125/198/101
f 119/175/104 120/170/99 125/199/101
f 112/176/105 113/177/106 125/200/101
f 126/201/49 127/202/50 129/203/51 128/204/52
f 128/204/52 129/203/51 131/205/53 130/206/54
f 130/206/54 131/205/53 133/207/55 132/208/56
f 132/208/56 133/207/55 135/209/57 134/210/58
f 134/210/58 135/209/57 137/211/59 136/212/60
f 136/212/60 137/211/59 139/213/61 138/214/62
f 138/214/62 139/213/61 141/215/63 140/216/64
f 140/216/64 141/215/63 143/217/65 142/218/66
f 142/218/66 143/217/65 145/219/67 144/220/68
f 144/220/68 145/219/67 147/221/69 146/222/70
f 146/222/70 147/221/69 149/223/71 148/224/72
f 148/224/72 149/223/71 151/225/73 150/226/74
f 150/226/74 151/225/73 153/227/75 152/228/76
f 152/228/76 153/227/75 155/229/77 154/230/78
f 129/231/51 127/232/50 157/233/79 155/234/77 153/235/75 151/236/73 149/237/71 147/238/69 145/239/67 143/240/65 141/241/63 139/242/61 137/243/59 135/244/57 133/245/55 131/246/53
f 154/230/78 155/229/77 157/247/79 156/248/80
f 156/248/80 157/247/79 127/249/50 126/250/49
f 138/214/62 140/216/64 165/251/81 164/252/82
f 166/253/83 167/254/84 183/255/85 182/256/86
f 148/224/72 150/226/74 170/257/87 169/258/88
f 134/210/58 136/212/60 163/259/89 162/260/90
f 144/220/68 146/222/70 168/261/91 167/254/84
f 154/230/78 156/248/80 173/262/92 172/263/93
f 130/206/54 132/208/56 161/264/94 160/265/95
f 140/216/64 142/218/66 166/253/83 165/251/81
f 126/201/49 128/204/52 159/266/96 158/267/97
f 150/226/74 152/228/76 171/268/98 170/257/87
f 136/212/60 138/214/62 164/252/82 163/259/89
f 146/222/70 148/224/72 169/258/88 168/261/91
f 156/248/80 126/250/49 158/269/97 173/262/92
f 132/208/56 134/210/58 162/260/90 161/264/94
f 142/218/66 144/220/68 167/254/84 166/253/83
f 152/228/76 154/230/78 172/263/93 171/268/98
f 128/204/52 130/206/54 160/265/95 159/266/96
f 185/270/99 186/271/100 190/272/101
f 159/266/96 160/265/95 176/273/102 175/274/103
f 167/254/84 168/261/91 184/275/104 183/255/85
f 160/265/95 161/264/94 177/276/105 176/273/102
f 168/261/91 169/258/88 185/270/99 184/275/104
f 161/264/94 162/260/90 178/277/106 177/276/105
f 169/258/88 170/257/87 186/271/100 185/270/99
f 162/260/90 163/259/89 179/278/107 178/277/106
f 170/257/87 171/268/98 187/279/108 186/271/100
f 163/259/89 164/252/82 180/280/109 179/278/107
f 171/268/98 172/263/93 188/281/110 187/279/108
f 164/252/82 165/251/81 181/282/111 180/280/109
f 172/263/93 173/262/92 189/283/112 188/281/110
f 165/251/81 166/253/83 182/256/86 181/282/111
f 158/267/97 159/266/96 175/274/103 174/284/113
f 173/262/92 158/269/97 174/285/113 189/283/112
f 178/277/106 179/278/107 190/286/101
f 186/271/100 187/279/108 190/287/101
f 179/278/107 180/280/109 190/288/101
f 187/279/108 188/281/110 190/289/101
f 180/280/109 181/282/111 190/290/101
f 188/281/110 189/283/112 190/291/101
f 181/282/111 182/256/86 190/292/101
f 174/284/113 175/274/103 190/293/101
f 189/283/112 174/285/113 190/294/101
f 182/256/86 183/255/85 190/295/101
f 175/274/103 176/273/102 190/296/101
f 183/255/85 184/275/104 190/297/101
f 176/273/102 177/276/105 190/298/101
f 184/275/104 185/270/99 190/299/101
f 177/276/105 178/277/106 190/300/101
