# This file uses centimeters as units for non-parametric coordinates.

mtllib Luminaria_LED.mtl
g default
v -2.929903 0.346067 2.636942
v -2.636942 0.346067 2.929903
v 2.929903 0.346067 2.636942
v 2.636942 0.346067 2.929903
v -2.929903 0.346067 -2.636942
v -2.636942 0.346067 -2.929903
v 2.636942 0.346067 -2.929903
v 2.929903 0.346067 -2.636942
v -2.595515 -0.346067 2.829890
v -2.636942 -0.246055 2.929903
v 2.595515 -0.346067 2.829890
v 2.636942 -0.246055 2.929903
v -2.829890 -0.346067 2.595515
v -2.929903 -0.246055 2.636942
v 2.829890 -0.346067 2.595515
v 2.929903 -0.246055 2.636942
v -2.829890 -0.346067 -2.595515
v -2.929903 -0.246055 -2.636942
v -2.595515 -0.346067 -2.829890
v -2.636942 -0.246055 -2.929903
v 2.595515 -0.346067 -2.829890
v 2.636942 -0.246055 -2.929903
v 2.829890 -0.346067 -2.595515
v 2.929903 -0.246055 -2.636942
v -2.317217 -0.346067 -2.526462
v -2.526462 -0.346067 -2.317217
v 2.317217 -0.346067 -2.526462
v 2.526462 -0.346067 -2.317217
v 2.526462 -0.346067 2.317217
v 2.317217 -0.346067 2.526462
v -2.317217 -0.346067 2.526462
v -2.526462 -0.346067 2.317217
v -2.219406 -0.278213 -2.419818
v -2.419818 -0.278213 -2.219406
v 2.219406 -0.278213 -2.419818
v 2.419818 -0.278213 -2.219406
v 2.419818 -0.278213 2.219406
v 2.219406 -0.278213 2.419818
v -2.219406 -0.278213 2.419818
v -2.419818 -0.278213 2.219406
vt 0.375000 0.262499
vt 0.625000 0.262499
vt 0.375000 0.487501
vt 0.389266 0.995733
vt 0.387499 1.000000
vt 0.375000 0.987501
vt 0.389266 0.000000
vt 0.610734 0.000000
vt 0.612501 1.000000
vt 0.610734 0.995733
vt 0.620733 0.985734
vt 0.625000 0.987501
vt 0.360734 0.000000
vt 0.137499 0.036125
vt 0.139266 0.000000
vt 0.639266 0.000000
vt 0.860734 0.000000
vt 0.625000 0.722762
vt 0.620732 0.764268
vt 0.387499 0.250000
vt 0.612501 0.036125
vt 0.387499 0.713875
vt 0.612501 0.500000
vt 0.637499 0.250000
vt 0.862501 0.036125
vt 0.862501 0.250000
vt 0.137499 0.250000
vt 0.362501 0.036125
vt 0.379267 0.764266
vt 0.389266 0.754267
vt 0.610732 0.754268
vt 0.379267 0.985734
vt 0.387499 0.036125
vt 0.362501 0.250000
vt 0.637499 0.036125
vt 0.612501 0.250000
vt 0.387499 0.500000
vt 0.375000 0.722762
vt 0.625000 0.487501
vt 0.612501 0.713875
vt 0.379267 0.764266
vt 0.389266 0.754267
vt 0.610732 0.754268
vt 0.620732 0.764268
vt 0.620733 0.985734
vt 0.610734 0.995733
vt 0.389266 0.995733
vt 0.379267 0.985734
vt 0.379267 0.764266
vt 0.389266 0.754267
vt 0.610732 0.754268
vt 0.620732 0.764268
vt 0.620733 0.985734
vt 0.610734 0.995733
vt 0.389266 0.995733
vt 0.379267 0.985734
vn 0.000000 1.000000 0.000000
vn 0.000000 1.000000 0.000000
vn 0.000000 1.000000 0.000000
vn 0.000000 1.000000 0.000000
vn 0.000000 1.000000 0.000000
vn 0.000000 1.000000 0.000000
vn 0.000000 1.000000 0.000000
vn 0.000000 1.000000 0.000000
vn -0.499998 -0.707109 0.499998
vn -0.499998 -0.707109 0.499998
vn -0.499998 -0.707109 0.499998
vn -0.499998 -0.707109 0.499998
vn 0.000000 -0.707109 0.707105
vn 0.000000 -0.707109 0.707105
vn 0.000000 -0.707109 0.707105
vn 0.000000 -0.707109 0.707105
vn 0.499998 -0.707109 0.499998
vn 0.499998 -0.707109 0.499998
vn 0.499998 -0.707109 0.499998
vn 0.499998 -0.707109 0.499998
vn -0.707104 -0.707109 0.000000
vn -0.707104 -0.707109 0.000000
vn -0.707104 -0.707109 0.000000
vn -0.707104 -0.707109 0.000000
vn 0.707104 -0.707109 0.000000
vn 0.707104 -0.707109 0.000000
vn 0.707104 -0.707109 0.000000
vn 0.707104 -0.707109 0.000000
vn -0.499998 -0.707109 -0.499998
vn -0.499998 -0.707109 -0.499998
vn -0.499998 -0.707109 -0.499998
vn -0.499998 -0.707109 -0.499998
vn 0.000000 -0.707109 -0.707105
vn 0.000000 -0.707109 -0.707105
vn 0.000000 -0.707109 -0.707105
vn 0.000000 -0.707109 -0.707105
vn 0.499998 -0.707109 -0.499998
vn 0.499998 -0.707109 -0.499998
vn 0.499998 -0.707109 -0.499998
vn 0.499998 -0.707109 -0.499998
vn 0.000000 0.000000 1.000000
vn 0.000000 0.000000 1.000000
vn 0.000000 0.000000 1.000000
vn 0.000000 0.000000 1.000000
vn 0.000000 0.000000 -1.000000
vn 0.000000 0.000000 -1.000000
vn 0.000000 0.000000 -1.000000
vn 0.000000 0.000000 -1.000000
vn 1.000000 0.000000 0.000000
vn 1.000000 0.000000 0.000000
vn 1.000000 0.000000 0.000000
vn 1.000000 0.000000 0.000000
vn -1.000000 0.000000 0.000000
vn -1.000000 0.000000 0.000000
vn -1.000000 0.000000 0.000000
vn -1.000000 0.000000 0.000000
vn 0.000000 -1.000000 0.000000
vn 0.000000 -1.000000 0.000000
vn 0.000000 -1.000000 0.000000
vn 0.000000 -1.000000 0.000000
vn 0.000000 -1.000000 0.000000
vn 0.000000 -1.000000 0.000000
vn 0.000000 -1.000000 0.000000
vn 0.000000 -1.000000 0.000000
vn -0.707107 0.000000 0.707107
vn -0.707107 0.000000 0.707107
vn -0.707107 0.000000 0.707107
vn -0.707107 0.000000 0.707107
vn 0.707107 0.000000 0.707107
vn 0.707107 0.000000 0.707107
vn 0.707107 0.000000 0.707107
vn 0.707107 0.000000 0.707107
vn -0.707107 0.000000 -0.707107
vn -0.707107 0.000000 -0.707107
vn -0.707107 0.000000 -0.707107
vn -0.707107 0.000000 -0.707107
vn 0.707107 0.000000 -0.707107
vn 0.707107 0.000000 -0.707107
vn 0.707107 0.000000 -0.707107
vn 0.707107 0.000000 -0.707107
vn 0.000000 -1.000000 0.000000
vn 0.000000 -1.000000 0.000000
vn 0.000000 -1.000000 0.000000
vn 0.000000 -1.000000 0.000000
vn 0.000000 -1.000000 -0.000000
vn 0.000000 -1.000000 -0.000000
vn 0.000000 -1.000000 -0.000000
vn 0.000000 -1.000000 -0.000000
vn 0.000000 -1.000000 0.000000
vn 0.000000 -1.000000 0.000000
vn 0.000000 -1.000000 0.000000
vn 0.000000 -1.000000 0.000000
vn 0.000000 -1.000000 0.000000
vn 0.000000 -1.000000 0.000000
vn 0.000000 -1.000000 0.000000
vn 0.000000 -1.000000 0.000000
vn 0.000000 -1.000000 0.000000
vn 0.000000 -1.000000 0.000000
vn 0.000000 -1.000000 0.000000
vn 0.000000 -1.000000 0.000000
vn 0.000000 -1.000000 0.000000
vn 0.000000 -1.000000 0.000000
vn 0.000000 -1.000000 0.000000
vn 0.000000 -1.000000 0.000000
vn 0.000000 -1.000000 0.000000
vn 0.000000 -1.000000 0.000000
vn 0.000000 -1.000000 0.000000
vn 0.000000 -1.000000 0.000000
vn 0.000000 -1.000000 0.000000
vn 0.000000 -1.000000 0.000000
vn 0.000000 -1.000000 0.000000
vn 0.000000 -1.000000 0.000000
vn 0.300436 -0.905249 0.300436
vn 0.300436 -0.905249 0.300436
vn 0.300436 -0.905249 0.300436
vn 0.300436 -0.905249 0.300436
vn 0.000000 -0.843695 0.536823
vn 0.000000 -0.843695 0.536823
vn 0.000000 -0.843695 0.536823
vn 0.000000 -0.843695 0.536823
vn -0.300436 -0.905249 0.300436
vn -0.300436 -0.905249 0.300436
vn -0.300436 -0.905249 0.300436
vn -0.300436 -0.905249 0.300436
vn -0.536823 -0.843695 0.000000
vn -0.536823 -0.843695 0.000000
vn -0.536823 -0.843695 0.000000
vn -0.536823 -0.843695 0.000000
vn -0.300436 -0.905249 -0.300436
vn -0.300436 -0.905249 -0.300436
vn -0.300436 -0.905249 -0.300436
vn -0.300436 -0.905249 -0.300436
vn 0.000000 -0.843695 -0.536823
vn 0.000000 -0.843695 -0.536823
vn 0.000000 -0.843695 -0.536823
vn 0.000000 -0.843695 -0.536823
vn 0.300436 -0.905249 -0.300436
vn 0.300436 -0.905249 -0.300436
vn 0.300436 -0.905249 -0.300436
vn 0.300436 -0.905249 -0.300436
vn 0.536823 -0.843695 0.000000
vn 0.536823 -0.843695 0.000000
vn 0.536823 -0.843695 0.000000
vn 0.536823 -0.843695 0.000000
s off
g pCube210
usemtl initialShadingGroup
f 1/1/1 2/20/2 4/36/3 3/2/4 8/39/5 7/23/6 6/37/7 5/3/8
f 9/4/9 10/5/10 14/6/11 13/32/12
f 10/33/13 9/7/14 11/8/15 12/21/16
f 12/9/17 11/10/18 15/11/19 16/12/20
f 13/13/21 14/28/22 18/14/23 17/15/24
f 16/35/25 15/16/26 23/17/27 24/25/28
f 17/29/29 18/38/30 20/22/31 19/30/32
f 19/30/33 20/22/34 22/40/35 21/31/36
f 21/31/37 22/40/38 24/18/39 23/19/40
f 2/20/41 10/33/42 12/21/43 4/36/44
f 20/22/45 6/37/46 7/23/47 22/40/48
f 3/24/49 16/35/50 24/25/51 8/26/52
f 5/27/53 18/14/54 14/28/55 1/34/56
f 34/49/57 33/50/58 35/51/59 36/52/60 37/53/61 38/54/62 39/55/63 40/56/64
f 14/28/65 10/33/66 2/20/67 1/34/68
f 12/21/69 16/35/70 3/24/71 4/36/72
f 5/3/73 6/37/74 20/22/75 18/38/76
f 7/23/77 8/39/78 24/18/79 22/40/80
f 17/29/81 19/30/82 25/42/83 26/41/84
f 19/30/85 21/31/86 27/43/87 25/42/88
f 21/31/89 23/19/90 28/44/91 27/43/92
f 23/19/93 15/11/94 29/45/95 28/44/96
f 15/11/97 11/10/98 30/46/99 29/45/100
f 11/10/101 9/4/102 31/47/103 30/46/104
f 9/4/105 13/32/106 32/48/107 31/47/108
f 13/32/109 17/29/110 26/41/111 32/48/112
f 26/41/113 25/42/114 33/50/115 34/49/116
f 25/42/117 27/43/118 35/51/119 33/50/120
f 27/43/121 28/44/122 36/52/123 35/51/124
f 28/44/125 29/45/126 37/53/127 36/52/128
f 29/45/129 30/46/130 38/54/131 37/53/132
f 30/46/133 31/47/134 39/55/135 38/54/136
f 31/47/137 32/48/138 40/56/139 39/55/140
f 32/48/141 26/41/142 34/49/143 40/56/144
