# Blender v2.92.0 OBJ File: 'assets2.2.blend'
# www.blender.org
mtllib prateleira.mtl
o Cube.001_Cube.002
v 11.676657 9.559436 47.554985
v 11.676657 10.888838 47.554985
v 17.939907 9.559436 47.554985
v 17.939907 10.888838 47.554985
v 11.676657 9.559436 48.173874
v 11.676657 10.888838 48.173874
v 17.939907 9.559436 48.173874
v 17.939907 10.888838 48.173874
v 11.676657 12.112900 48.173874
v 11.676657 12.112900 47.554985
v 17.939907 12.112900 47.554985
v 17.939907 12.112900 48.173874
v 11.676657 9.559436 68.667053
v 11.676657 10.888838 68.667053
v 17.939907 9.559436 68.667053
v 17.939907 10.888838 68.667053
v 11.676657 9.559436 68.048164
v 11.676657 10.888838 68.048164
v 17.939907 9.559436 68.048164
v 17.939907 10.888838 68.048164
v 11.676657 10.888838 58.111019
v 17.939907 9.559436 58.111019
v 11.676657 9.559436 58.111019
v 17.939907 10.888838 58.111019
v 11.676657 12.112900 68.048164
v 11.676657 12.112900 68.667053
v 17.939907 12.112900 68.667053
v 17.939907 12.112900 68.048164
vt 0.375000 0.243349
vt 0.625000 0.243349
vt 0.625000 0.250000
vt 0.375000 0.250000
vt 0.625000 0.500000
vt 0.375000 0.500000
vt 0.625000 0.250000
vt 0.625000 0.500000
vt 0.125000 0.500000
vt 0.375000 0.506651
vt 0.125000 0.506651
vt 0.625000 0.506651
vt 0.375000 0.128489
vt 0.625000 0.128489
vt 0.625000 0.621511
vt 0.375000 0.621511
vt 0.125000 0.621511
vt 0.875000 0.506651
vt 0.875000 0.621511
vt 0.875000 0.500000
vt 0.875000 0.506651
vt 0.625000 0.506651
vt 0.625000 0.243349
vt 0.375000 0.243349
vt 0.375000 0.250000
vt 0.625000 0.250000
vt 0.625000 0.243349
vt 0.375000 0.500000
vt 0.625000 0.500000
vt 0.625000 0.500000
vt 0.625000 0.250000
vt 0.125000 0.500000
vt 0.125000 0.506651
vt 0.375000 0.506651
vt 0.625000 0.506651
vt 0.875000 0.506651
vt 0.625000 0.506651
vt 0.875000 0.506651
vt 0.875000 0.500000
vt 0.625000 0.243349
vn -0.7071 -0.7071 0.0000
vn -0.9045 0.3015 0.3015
vn -0.7071 0.0000 -0.7071
vn -0.5773 -0.5773 -0.5773
vn 0.7071 0.0000 -0.7071
vn 0.5773 -0.5773 -0.5773
vn -0.5773 0.5773 -0.5773
vn 0.5773 0.5773 -0.5773
vn 0.7071 -0.7071 0.0000
vn 0.9045 0.3015 0.3015
vn -0.7071 0.7071 0.0000
vn 0.7071 0.7071 0.0000
vn -0.5773 0.5773 0.5773
vn 0.5773 0.5773 0.5773
vn -0.5773 -0.5773 0.5773
vn -0.7071 0.0000 0.7071
vn -0.9045 0.3015 -0.3015
vn 0.5773 -0.5773 0.5773
vn 0.7071 0.0000 0.7071
vn 0.9045 0.3015 -0.3015
usemtl None
s 1
f 5/1/1 6/2/2 2/3/3 1/4/4
f 1/4/4 2/3/3 4/5/5 3/6/6
f 4/5/5 2/3/3 10/7/7 11/8/8
f 1/9/4 3/6/6 7/10/9 5/11/1
f 3/6/6 4/5/5 8/12/10 7/10/9
f 23/13/1 21/14/11 6/2/2 5/1/1
f 7/10/9 8/12/10 24/15/12 22/16/9
f 5/11/1 7/10/9 22/16/9 23/17/1
f 8/12/10 6/18/2 21/19/11 24/15/12
f 11/8/8 10/20/7 9/21/13 12/22/14
f 6/18/2 8/12/10 12/22/14 9/21/13
f 2/3/3 6/2/2 9/23/13 10/7/7
f 8/12/10 4/5/5 11/8/8 12/22/14
f 17/24/1 13/25/15 14/26/16 18/27/17
f 13/25/15 15/28/18 16/29/19 14/26/16
f 16/29/19 27/30/14 26/31/13 14/26/16
f 13/32/15 17/33/1 19/34/9 15/28/18
f 15/28/18 19/34/9 20/35/20 16/29/19
f 23/13/1 17/24/1 18/27/17 21/14/11
f 19/34/9 22/16/9 24/15/12 20/35/20
f 17/33/1 23/17/1 22/16/9 19/34/9
f 20/35/20 24/15/12 21/19/11 18/36/17
f 27/30/14 28/37/8 25/38/7 26/39/13
f 18/36/17 25/38/7 28/37/8 20/35/20
f 14/26/16 26/31/13 25/40/7 18/27/17
f 20/35/20 28/37/8 27/30/14 16/29/19
